STARTFONT 2.1
COMMENT Product Version DEVELOPER VERSION
FONT -wqy-gb2312-medium-r-normal--14-180-75-75-c-80-iso10646-1
SIZE 14 75 75
FONTBOUNDINGBOX 14 14 0 -2
STARTPROPERTIES 4
FONT_ASCENT 14
FONT_DESCENT 2
DEFAULT_CHAR 32
FONT_NAME "yhunifont"
ENDPROPERTIES
CHARS 8836
STARTCHAR U+00A4
ENCODING 164
SWIDTH 520 0 
DWIDTH 14 0
BBX 14 14 -1 -4
BITMAP
0000
4F20
30C0
2040
4020
4020
4020
4020
2040
30C0
4F20
0000
0000
0000
ENDCHAR
STARTCHAR U+00A7
ENCODING 167
SWIDTH 520 0 
DWIDTH 14 0
BBX 14 14 -1 -4
BITMAP
0600
0900
0900
0400
0A00
0900
0900
0500
0200
0900
0900
0600
0000
0000
ENDCHAR
STARTCHAR U+00A8
ENCODING 168
SWIDTH 520 0 
DWIDTH 14 0
BBX 14 14 -1 -4
BITMAP
0000
1980
1980
0000
0000
0000
0000
0000
0000
0000
0000
0000
0000
0000
ENDCHAR
STARTCHAR U+00B0
ENCODING 176
SWIDTH 520 0 
DWIDTH 14 0
BBX 14 14 -1 -4
BITMAP
0000
7000
5000
7000
0000
0000
0000
0000
0000
0000
0000
0000
0000
0000
ENDCHAR
STARTCHAR U+00B1
ENCODING 177
SWIDTH 520 0 
DWIDTH 14 0
BBX 14 14 -1 -4
BITMAP
0000
0200
0200
0200
0200
3FE0
0200
0200
0200
0000
3FE0
0000
0000
0000
ENDCHAR
STARTCHAR U+00B7
ENCODING 183
SWIDTH 520 0 
DWIDTH 14 0
BBX 14 14 -1 -4
BITMAP
0000
0000
0000
0000
0000
0E00
0E00
0E00
0000
0000
0000
0000
0000
0000
ENDCHAR
STARTCHAR U+00D7
ENCODING 215
SWIDTH 520 0 
DWIDTH 14 0
BBX 14 14 -1 -4
BITMAP
0000
0000
1040
0880
0500
0200
0500
0880
1040
0000
0000
0000
0000
0000
ENDCHAR
STARTCHAR U+00E0
ENCODING 224
SWIDTH 520 0 
DWIDTH 14 0
BBX 14 14 -1 -4
BITMAP
0000
0000
2000
2000
0000
3000
4800
4800
4800
4800
3800
0000
0000
0000
ENDCHAR
STARTCHAR U+00E1
ENCODING 225
SWIDTH 520 0 
DWIDTH 14 0
BBX 14 14 -1 -4
BITMAP
0000
0000
0000
1000
2000
3000
4800
4800
4800
4800
3800
0000
0000
0000
ENDCHAR
STARTCHAR U+00E8
ENCODING 232
SWIDTH 520 0 
DWIDTH 14 0
BBX 14 14 -1 -4
BITMAP
0000
0000
2000
2000
0000
3800
4400
7C00
4000
4400
3800
0000
0000
0000
ENDCHAR
STARTCHAR U+00E9
ENCODING 233
SWIDTH 520 0 
DWIDTH 14 0
BBX 14 14 -1 -4
BITMAP
0000
0000
0800
1000
0000
3800
4400
7C00
4000
4400
3800
0000
0000
0000
ENDCHAR
STARTCHAR U+00EA
ENCODING 234
SWIDTH 520 0 
DWIDTH 14 0
BBX 14 14 -1 -4
BITMAP
0000
0000
1000
2800
0000
3800
4400
7C00
4000
4400
3800
0000
0000
0000
ENDCHAR
STARTCHAR U+00EC
ENCODING 236
SWIDTH 520 0 
DWIDTH 14 0
BBX 14 14 -1 -4
BITMAP
0000
0000
4000
2000
0000
2000
2000
2000
2000
2000
3000
0000
0000
0000
ENDCHAR
STARTCHAR U+00ED
ENCODING 237
SWIDTH 520 0 
DWIDTH 14 0
BBX 14 14 -1 -4
BITMAP
0000
0000
0000
3000
0000
2000
2000
2000
2000
2000
3000
0000
0000
0000
ENDCHAR
STARTCHAR U+00F2
ENCODING 242
SWIDTH 520 0 
DWIDTH 14 0
BBX 14 14 -1 -4
BITMAP
0000
0000
2000
2000
0000
3800
4400
4400
4400
4400
3800
0000
0000
0000
ENDCHAR
STARTCHAR U+00F3
ENCODING 243
SWIDTH 520 0 
DWIDTH 14 0
BBX 14 14 -1 -4
BITMAP
0000
0000
0800
1000
0000
3800
4400
4400
4400
4800
3800
0000
0000
0000
ENDCHAR
STARTCHAR U+00F7
ENCODING 247
SWIDTH 520 0 
DWIDTH 14 0
BBX 14 14 -1 -4
BITMAP
0000
0000
0600
0600
0000
0000
7FE0
0000
0000
0600
0600
0000
0000
0000
ENDCHAR
STARTCHAR U+00F9
ENCODING 249
SWIDTH 520 0 
DWIDTH 14 0
BBX 14 14 -1 -4
BITMAP
0000
0000
2000
2000
0000
4800
4800
4800
4800
4800
3400
0000
0000
0000
ENDCHAR
STARTCHAR U+00FA
ENCODING 250
SWIDTH 520 0 
DWIDTH 14 0
BBX 14 14 -1 -4
BITMAP
0000
0000
0800
1000
0000
4800
4800
4800
4800
4800
3400
0000
0000
0000
ENDCHAR
STARTCHAR U+00FC
ENCODING 252
SWIDTH 520 0 
DWIDTH 14 0
BBX 14 14 -1 -4
BITMAP
0000
0000
0000
4800
0000
4800
4800
4800
4800
4800
3400
0000
0000
0000
ENDCHAR
STARTCHAR U+0101
ENCODING 257
SWIDTH 520 0 
DWIDTH 14 0
BBX 14 14 -1 -4
BITMAP
0000
0000
0000
3800
0000
3000
4800
4800
4800
4800
3800
0000
0000
0000
ENDCHAR
STARTCHAR U+0113
ENCODING 275
SWIDTH 520 0 
DWIDTH 14 0
BBX 14 14 -1 -4
BITMAP
0000
0000
0000
3800
0000
3800
4400
7C00
4000
4400
3800
0000
0000
0000
ENDCHAR
STARTCHAR U+011B
ENCODING 283
SWIDTH 520 0 
DWIDTH 14 0
BBX 14 14 -1 -4
BITMAP
0000
0000
4000
3800
0000
3800
4400
7C00
4000
4400
3800
0000
0000
0000
ENDCHAR
STARTCHAR U+012B
ENCODING 299
SWIDTH 520 0 
DWIDTH 14 0
BBX 14 14 -1 -4
BITMAP
0000
0000
0000
7000
0000
2000
2000
2000
2000
2000
3000
0000
0000
0000
ENDCHAR
STARTCHAR U+0144
ENCODING 324
SWIDTH 520 0 
DWIDTH 14 0
BBX 14 14 -1 -4
BITMAP
0000
0000
0000
1000
0000
7800
4800
4800
4800
4800
4C00
0000
0000
0000
ENDCHAR
STARTCHAR U+0148
ENCODING 328
SWIDTH 520 0 
DWIDTH 14 0
BBX 14 14 -1 -4
BITMAP
0000
0000
4000
3800
0000
7800
4800
4800
4800
4800
4C00
0000
0000
0000
ENDCHAR
STARTCHAR U+014D
ENCODING 333
SWIDTH 520 0 
DWIDTH 14 0
BBX 14 14 -1 -4
BITMAP
0000
0000
0000
3800
0000
3800
4400
4400
4400
4800
3800
0000
0000
0000
ENDCHAR
STARTCHAR U+016B
ENCODING 363
SWIDTH 520 0 
DWIDTH 14 0
BBX 14 14 -1 -4
BITMAP
0000
0000
0000
3800
0000
4800
4800
4800
4800
4800
3400
0000
0000
0000
ENDCHAR
STARTCHAR U+01CE
ENCODING 462
SWIDTH 520 0 
DWIDTH 14 0
BBX 14 14 -1 -4
BITMAP
0000
0000
0000
3000
2000
3000
4800
4800
4800
4800
3800
0000
0000
0000
ENDCHAR
STARTCHAR U+01D0
ENCODING 464
SWIDTH 520 0 
DWIDTH 14 0
BBX 14 14 -1 -4
BITMAP
0000
0000
0000
3000
0000
2000
2000
2000
2000
2000
3000
0000
0000
0000
ENDCHAR
STARTCHAR U+01D2
ENCODING 466
SWIDTH 520 0 
DWIDTH 14 0
BBX 14 14 -1 -4
BITMAP
0000
0000
4000
3800
0000
3800
4400
4400
4400
4800
3800
0000
0000
0000
ENDCHAR
STARTCHAR U+01D4
ENCODING 468
SWIDTH 520 0 
DWIDTH 14 0
BBX 14 14 -1 -4
BITMAP
0000
0000
4000
3800
0000
4800
4800
4800
4800
4800
3400
0000
0000
0000
ENDCHAR
STARTCHAR U+01D6
ENCODING 470
SWIDTH 520 0 
DWIDTH 14 0
BBX 14 14 -1 -4
BITMAP
0000
0000
3800
4800
0000
4800
4800
4800
4800
4800
3400
0000
0000
0000
ENDCHAR
STARTCHAR U+01D8
ENCODING 472
SWIDTH 520 0 
DWIDTH 14 0
BBX 14 14 -1 -4
BITMAP
0000
1000
1000
4800
0000
4800
4800
4800
4800
4800
3400
0000
0000
0000
ENDCHAR
STARTCHAR U+01DA
ENCODING 474
SWIDTH 520 0 
DWIDTH 14 0
BBX 14 14 -1 -4
BITMAP
0000
4800
3000
4800
0000
4800
4800
4800
4800
4800
3400
0000
0000
0000
ENDCHAR
STARTCHAR U+01DC
ENCODING 476
SWIDTH 520 0 
DWIDTH 14 0
BBX 14 14 -1 -4
BITMAP
0000
2000
1000
4800
0000
4800
4800
4800
4800
4800
3400
0000
0000
0000
ENDCHAR
STARTCHAR U+0251
ENCODING 593
SWIDTH 520 0 
DWIDTH 14 0
BBX 14 14 -1 -4
BITMAP
0000
0000
0000
0000
0000
3000
4800
4800
4800
4800
3400
0000
0000
0000
ENDCHAR
STARTCHAR U+0261
ENCODING 609
SWIDTH 520 0 
DWIDTH 14 0
BBX 14 14 -1 -4
BITMAP
0000
0000
0000
0000
0000
3000
4800
8800
4800
3800
0800
4800
7000
0000
ENDCHAR
STARTCHAR U+02C7
ENCODING 711
SWIDTH 520 0 
DWIDTH 14 0
BBX 14 14 -1 -4
BITMAP
0000
1100
0A00
0400
0000
0000
0000
0000
0000
0000
0000
0000
0000
0000
ENDCHAR
STARTCHAR U+02C9
ENCODING 713
SWIDTH 520 0 
DWIDTH 14 0
BBX 14 14 -1 -4
BITMAP
0000
1F80
0000
0000
0000
0000
0000
0000
0000
0000
0000
0000
0000
0000
ENDCHAR
STARTCHAR U+0391
ENCODING 913
SWIDTH 520 0 
DWIDTH 14 0
BBX 14 14 -1 -4
BITMAP
0000
0400
0400
0400
0A00
0A00
1F00
1100
2080
71C0
0000
0000
0000
0000
ENDCHAR
STARTCHAR U+0392
ENCODING 914
SWIDTH 520 0 
DWIDTH 14 0
BBX 14 14 -1 -4
BITMAP
0000
3F00
1080
1080
1080
1F00
1080
1080
1080
3F00
0000
0000
0000
0000
ENDCHAR
STARTCHAR U+0393
ENCODING 915
SWIDTH 520 0 
DWIDTH 14 0
BBX 14 14 -1 -4
BITMAP
0000
1FC0
0840
0840
0800
0800
0800
0800
0800
1C00
0000
0000
0000
0000
ENDCHAR
STARTCHAR U+0394
ENCODING 916
SWIDTH 520 0 
DWIDTH 14 0
BBX 14 14 -1 -4
BITMAP
0000
0400
0400
0A00
0A00
1100
1100
2080
2080
7FC0
0000
0000
0000
0000
ENDCHAR
STARTCHAR U+0395
ENCODING 917
SWIDTH 520 0 
DWIDTH 14 0
BBX 14 14 -1 -4
BITMAP
0000
3FC0
1040
1000
1100
1F00
1100
1000
1040
3FC0
0000
0000
0000
0000
ENDCHAR
STARTCHAR U+0396
ENCODING 918
SWIDTH 520 0 
DWIDTH 14 0
BBX 14 14 -1 -4
BITMAP
0000
1F80
1080
1100
0200
0200
0400
0880
1080
1F80
0000
0000
0000
0000
ENDCHAR
STARTCHAR U+0397
ENCODING 919
SWIDTH 520 0 
DWIDTH 14 0
BBX 14 14 -1 -4
BITMAP
0000
39C0
1080
1080
1080
1F80
1080
1080
1080
39C0
0000
0000
0000
0000
ENDCHAR
STARTCHAR U+0398
ENCODING 920
SWIDTH 520 0 
DWIDTH 14 0
BBX 14 14 -1 -4
BITMAP
0000
0F00
1080
2040
2940
2F40
2940
2040
1080
0F00
0000
0000
0000
0000
ENDCHAR
STARTCHAR U+0399
ENCODING 921
SWIDTH 520 0 
DWIDTH 14 0
BBX 14 14 -1 -4
BITMAP
0000
0700
0200
0200
0200
0200
0200
0200
0200
0700
0000
0000
0000
0000
ENDCHAR
STARTCHAR U+039A
ENCODING 922
SWIDTH 520 0 
DWIDTH 14 0
BBX 14 14 -1 -4
BITMAP
0000
39C0
1080
1100
1200
1400
1A00
1100
1080
39C0
0000
0000
0000
0000
ENDCHAR
STARTCHAR U+039B
ENCODING 923
SWIDTH 520 0 
DWIDTH 14 0
BBX 14 14 -1 -4
BITMAP
0000
0200
0200
0200
0500
0500
0900
0880
1080
39C0
0000
0000
0000
0000
ENDCHAR
STARTCHAR U+039C
ENCODING 924
SWIDTH 520 0 
DWIDTH 14 0
BBX 14 14 -1 -4
BITMAP
0000
6060
2040
30C0
28C0
2940
2540
2640
2240
70E0
0000
0000
0000
0000
ENDCHAR
STARTCHAR U+039D
ENCODING 925
SWIDTH 520 0 
DWIDTH 14 0
BBX 14 14 -1 -4
BITMAP
0000
31C0
1080
1880
1480
1280
1180
1080
1080
3880
0000
0000
0000
0000
ENDCHAR
STARTCHAR U+039E
ENCODING 926
SWIDTH 520 0 
DWIDTH 14 0
BBX 14 14 -1 -4
BITMAP
0000
1FC0
1040
0000
0880
0F80
0880
0000
1040
1FC0
0000
0000
0000
0000
ENDCHAR
STARTCHAR U+039F
ENCODING 927
SWIDTH 520 0 
DWIDTH 14 0
BBX 14 14 -1 -4
BITMAP
0000
0700
0880
1040
1040
1040
1040
1040
0880
0700
0000
0000
0000
0000
ENDCHAR
STARTCHAR U+03A0
ENCODING 928
SWIDTH 520 0 
DWIDTH 14 0
BBX 14 14 -1 -4
BITMAP
0000
3FC0
1080
1080
1080
1080
1080
1080
1080
39C0
0000
0000
0000
0000
ENDCHAR
STARTCHAR U+03A1
ENCODING 929
SWIDTH 520 0 
DWIDTH 14 0
BBX 14 14 -1 -4
BITMAP
0000
1F80
0840
0840
0840
0F80
0800
0800
0800
1C00
0000
0000
0000
0000
ENDCHAR
STARTCHAR U+03A3
ENCODING 931
SWIDTH 520 0 
DWIDTH 14 0
BBX 14 14 -1 -4
BITMAP
0000
3FC0
1040
0800
0400
0200
0400
0800
1040
3FC0
0000
0000
0000
0000
ENDCHAR
STARTCHAR U+03A4
ENCODING 932
SWIDTH 520 0 
DWIDTH 14 0
BBX 14 14 -1 -4
BITMAP
0000
1FC0
1240
0200
0200
0200
0200
0200
0200
0700
0000
0000
0000
0000
ENDCHAR
STARTCHAR U+03A5
ENCODING 933
SWIDTH 520 0 
DWIDTH 14 0
BBX 14 14 -1 -4
BITMAP
0000
0D80
1240
0200
0200
0200
0200
0200
0200
0700
0000
0000
0000
0000
ENDCHAR
STARTCHAR U+03A6
ENCODING 934
SWIDTH 520 0 
DWIDTH 14 0
BBX 14 14 -1 -4
BITMAP
0000
0700
0200
1FC0
2220
2220
2220
1FC0
0200
0700
0000
0000
0000
0000
ENDCHAR
STARTCHAR U+03A7
ENCODING 935
SWIDTH 520 0 
DWIDTH 14 0
BBX 14 14 -1 -4
BITMAP
0000
38C0
1080
0900
0500
0200
0600
0900
1080
31C0
0000
0000
0000
0000
ENDCHAR
STARTCHAR U+03A8
ENCODING 936
SWIDTH 520 0 
DWIDTH 14 0
BBX 14 14 -1 -4
BITMAP
0000
3760
1240
1240
1240
1240
1240
0F80
0200
0700
0000
0000
0000
0000
ENDCHAR
STARTCHAR U+03A9
ENCODING 937
SWIDTH 520 0 
DWIDTH 14 0
BBX 14 14 -1 -4
BITMAP
0000
0700
0880
1040
1040
1040
0880
0500
1540
1DC0
0000
0000
0000
0000
ENDCHAR
STARTCHAR U+03B1
ENCODING 945
SWIDTH 520 0 
DWIDTH 14 0
BBX 14 14 -1 -4
BITMAP
0000
0000
0000
0000
0D00
1300
1100
1100
1300
0D80
0000
0000
0000
0000
ENDCHAR
STARTCHAR U+03B2
ENCODING 946
SWIDTH 520 0 
DWIDTH 14 0
BBX 14 14 -1 -4
BITMAP
0000
0E00
1100
1100
1600
1100
1100
1100
1900
1600
1000
3800
0000
0000
ENDCHAR
STARTCHAR U+03B3
ENCODING 947
SWIDTH 520 0 
DWIDTH 14 0
BBX 14 14 -1 -4
BITMAP
0000
0000
0000
0000
1980
0900
0500
0200
0200
0500
0700
0000
0000
0000
ENDCHAR
STARTCHAR U+03B4
ENCODING 948
SWIDTH 520 0 
DWIDTH 14 0
BBX 14 14 -1 -4
BITMAP
0000
0700
0800
0400
0600
0900
1080
1080
0900
0600
0000
0000
0000
0000
ENDCHAR
STARTCHAR U+03B5
ENCODING 949
SWIDTH 520 0 
DWIDTH 14 0
BBX 14 14 -1 -4
BITMAP
0000
0000
0000
0600
0900
0800
0600
0800
0900
0600
0000
0000
0000
0000
ENDCHAR
STARTCHAR U+03B6
ENCODING 950
SWIDTH 520 0 
DWIDTH 14 0
BBX 14 14 -1 -4
BITMAP
0000
0F00
0200
0400
0800
1000
1000
1000
0F00
0080
0700
0000
0000
0000
ENDCHAR
STARTCHAR U+03B7
ENCODING 951
SWIDTH 520 0 
DWIDTH 14 0
BBX 14 14 -1 -4
BITMAP
0000
0000
0000
0300
0C80
0480
0480
0480
0480
0E80
0080
00C0
0000
0000
ENDCHAR
STARTCHAR U+03B8
ENCODING 952
SWIDTH 520 0 
DWIDTH 14 0
BBX 14 14 -1 -4
BITMAP
0000
0600
0900
0900
0900
0F00
0900
0900
0900
0600
0000
0000
0000
0000
ENDCHAR
STARTCHAR U+03B9
ENCODING 953
SWIDTH 520 0 
DWIDTH 14 0
BBX 14 14 -1 -4
BITMAP
0000
0000
0000
0000
0C00
0400
0400
0400
0400
0600
0000
0000
0000
0000
ENDCHAR
STARTCHAR U+03BA
ENCODING 954
SWIDTH 520 0 
DWIDTH 14 0
BBX 14 14 -1 -4
BITMAP
0000
0000
0000
0000
1300
1400
1C00
1400
1200
1300
0000
0000
0000
0000
ENDCHAR
STARTCHAR U+03BB
ENCODING 955
SWIDTH 520 0 
DWIDTH 14 0
BBX 14 14 -1 -4
BITMAP
0000
0800
0400
0400
0400
0600
0A00
0A00
1180
0000
0000
0000
0000
0000
ENDCHAR
STARTCHAR U+03BC
ENCODING 956
SWIDTH 520 0 
DWIDTH 14 0
BBX 14 14 -1 -4
BITMAP
0000
0000
0000
0000
1100
1100
1100
1100
1300
1D80
1000
3800
0000
0000
ENDCHAR
STARTCHAR U+03BD
ENCODING 957
SWIDTH 520 0 
DWIDTH 14 0
BBX 14 14 -1 -4
BITMAP
0000
0000
0000
0000
0880
0880
0500
0500
0200
0200
0000
0000
0000
0000
ENDCHAR
STARTCHAR U+03BE
ENCODING 958
SWIDTH 520 0 
DWIDTH 14 0
BBX 14 14 -1 -4
BITMAP
0000
0F00
0400
0800
0800
0600
0800
0800
0600
0100
0100
0600
0000
0000
ENDCHAR
STARTCHAR U+03BF
ENCODING 959
SWIDTH 520 0 
DWIDTH 14 0
BBX 14 14 -1 -4
BITMAP
0000
0000
0000
0000
0600
0900
0900
0900
0900
0600
0000
0000
0000
0000
ENDCHAR
STARTCHAR U+03C0
ENCODING 960
SWIDTH 520 0 
DWIDTH 14 0
BBX 14 14 -1 -4
BITMAP
0000
0000
0000
0000
1F80
0500
0500
0500
1500
0980
0000
0000
0000
0000
ENDCHAR
STARTCHAR U+03C1
ENCODING 961
SWIDTH 520 0 
DWIDTH 14 0
BBX 14 14 -1 -4
BITMAP
0000
0000
0000
0000
0E00
1100
1100
1100
1900
1600
1000
3800
0000
0000
ENDCHAR
STARTCHAR U+03C3
ENCODING 963
SWIDTH 520 0 
DWIDTH 14 0
BBX 14 14 -1 -4
BITMAP
0000
0000
0000
0000
0F00
1200
1100
1100
1200
0C00
0000
0000
0000
0000
ENDCHAR
STARTCHAR U+03C4
ENCODING 964
SWIDTH 520 0 
DWIDTH 14 0
BBX 14 14 -1 -4
BITMAP
0000
0000
0000
0000
0F80
0A00
0200
0200
0300
0200
0000
0000
0000
0000
ENDCHAR
STARTCHAR U+03C5
ENCODING 965
SWIDTH 520 0 
DWIDTH 14 0
BBX 14 14 -1 -4
BITMAP
0000
0000
0000
0000
1980
0880
0880
0880
0900
0600
0000
0000
0000
0000
ENDCHAR
STARTCHAR U+03C6
ENCODING 966
SWIDTH 520 0 
DWIDTH 14 0
BBX 14 14 -1 -4
BITMAP
0000
0600
0200
0200
0F80
1240
1240
1240
0F80
0200
0700
0000
0000
0000
ENDCHAR
STARTCHAR U+03C7
ENCODING 967
SWIDTH 520 0 
DWIDTH 14 0
BBX 14 14 -1 -4
BITMAP
0000
0000
0000
0000
1980
0500
0200
0600
0900
1080
0000
0000
0000
0000
ENDCHAR
STARTCHAR U+03C8
ENCODING 968
SWIDTH 520 0 
DWIDTH 14 0
BBX 14 14 -1 -4
BITMAP
0000
0000
0000
1240
0A80
0A80
0A80
0A80
0700
0200
0700
0000
0000
0000
ENDCHAR
STARTCHAR U+03C9
ENCODING 969
SWIDTH 520 0 
DWIDTH 14 0
BBX 14 14 -1 -4
BITMAP
0000
0000
0000
0000
0880
1040
1240
1240
1240
0D80
0000
0000
0000
0000
ENDCHAR
STARTCHAR U+0401
ENCODING 1025
SWIDTH 520 0 
DWIDTH 14 0
BBX 14 14 -1 -4
BITMAP
0900
1FC0
0840
0800
0900
0F00
0900
0800
0840
1FC0
0000
0000
0000
0000
ENDCHAR
STARTCHAR U+0410
ENCODING 1040
SWIDTH 520 0 
DWIDTH 14 0
BBX 14 14 -1 -4
BITMAP
0000
0000
0400
0400
0A00
0900
0F00
1080
1080
31C0
0000
0000
0000
0000
ENDCHAR
STARTCHAR U+0411
ENCODING 1041
SWIDTH 520 0 
DWIDTH 14 0
BBX 14 14 -1 -4
BITMAP
0000
3F80
1080
1000
1000
1F00
1080
1080
1080
3F00
0000
0000
0000
0000
ENDCHAR
STARTCHAR U+0412
ENCODING 1042
SWIDTH 520 0 
DWIDTH 14 0
BBX 14 14 -1 -4
BITMAP
0000
3F00
1080
1080
1080
1F00
1080
1080
1080
3F00
0000
0000
0000
0000
ENDCHAR
STARTCHAR U+0413
ENCODING 1043
SWIDTH 520 0 
DWIDTH 14 0
BBX 14 14 -1 -4
BITMAP
0000
3F80
1080
1000
1000
1000
1000
1000
1000
3800
0000
0000
0000
0000
ENDCHAR
STARTCHAR U+0414
ENCODING 1044
SWIDTH 520 0 
DWIDTH 14 0
BBX 14 14 -1 -4
BITMAP
0000
1FC0
0880
0880
0880
0880
0880
0880
1080
3FC0
2040
0000
0000
0000
ENDCHAR
STARTCHAR U+0415
ENCODING 1045
SWIDTH 520 0 
DWIDTH 14 0
BBX 14 14 -1 -4
BITMAP
0000
3FC0
1040
1000
1100
1F00
1100
1040
1040
3FC0
0000
0000
0000
0000
ENDCHAR
STARTCHAR U+0416
ENCODING 1046
SWIDTH 520 0 
DWIDTH 14 0
BBX 14 14 -1 -4
BITMAP
0000
2720
1240
1240
1240
0F80
1240
1240
1240
2720
0000
0000
0000
0000
ENDCHAR
STARTCHAR U+0417
ENCODING 1047
SWIDTH 520 0 
DWIDTH 14 0
BBX 14 14 -1 -4
BITMAP
0000
1700
1880
1080
0080
0700
0080
1080
1080
0F00
0000
0000
0000
0000
ENDCHAR
STARTCHAR U+0418
ENCODING 1048
SWIDTH 520 0 
DWIDTH 14 0
BBX 14 14 -1 -4
BITMAP
0000
39C0
1080
1080
1180
1280
1480
1880
1080
39C0
0000
0000
0000
0000
ENDCHAR
STARTCHAR U+0419
ENCODING 1049
SWIDTH 520 0 
DWIDTH 14 0
BBX 14 14 -1 -4
BITMAP
0900
0600
39C0
1080
1180
1280
1480
1880
1080
39C0
0000
0000
0000
0000
ENDCHAR
STARTCHAR U+041A
ENCODING 1050
SWIDTH 520 0 
DWIDTH 14 0
BBX 14 14 -1 -4
BITMAP
0000
3900
1280
1200
1200
1C00
1200
1200
1280
3900
0000
0000
0000
0000
ENDCHAR
STARTCHAR U+041B
ENCODING 1051
SWIDTH 520 0 
DWIDTH 14 0
BBX 14 14 -1 -4
BITMAP
0000
1FC0
0880
0880
0880
0880
0880
0880
2880
31C0
0000
0000
0000
0000
ENDCHAR
STARTCHAR U+041C
ENCODING 1052
SWIDTH 520 0 
DWIDTH 14 0
BBX 14 14 -1 -4
BITMAP
0000
60C0
2080
3180
3180
2A80
2A80
2480
2480
71C0
0000
0000
0000
0000
ENDCHAR
STARTCHAR U+041D
ENCODING 1053
SWIDTH 520 0 
DWIDTH 14 0
BBX 14 14 -1 -4
BITMAP
0000
39C0
1080
1080
1080
1F80
1080
1080
1080
39C0
0000
0000
0000
0000
ENDCHAR
STARTCHAR U+041E
ENCODING 1054
SWIDTH 520 0 
DWIDTH 14 0
BBX 14 14 -1 -4
BITMAP
0000
0700
0880
1040
1040
1040
1040
1040
0880
0700
0000
0000
0000
0000
ENDCHAR
STARTCHAR U+041F
ENCODING 1055
SWIDTH 520 0 
DWIDTH 14 0
BBX 14 14 -1 -4
BITMAP
0000
3FC0
1080
1080
1080
1080
1080
1080
1080
39C0
0000
0000
0000
0000
ENDCHAR
STARTCHAR U+0420
ENCODING 1056
SWIDTH 520 0 
DWIDTH 14 0
BBX 14 14 -1 -4
BITMAP
0000
1F80
0840
0840
0840
0F80
0800
0800
0800
1C00
0000
0000
0000
0000
ENDCHAR
STARTCHAR U+0421
ENCODING 1057
SWIDTH 520 0 
DWIDTH 14 0
BBX 14 14 -1 -4
BITMAP
0000
0740
08C0
1040
1040
1000
1000
1040
0880
0700
0000
0000
0000
0000
ENDCHAR
STARTCHAR U+0422
ENCODING 1058
SWIDTH 520 0 
DWIDTH 14 0
BBX 14 14 -1 -4
BITMAP
0000
1FC0
1240
0200
0200
0200
0200
0200
0200
0700
0000
0000
0000
0000
ENDCHAR
STARTCHAR U+0423
ENCODING 1059
SWIDTH 520 0 
DWIDTH 14 0
BBX 14 14 -1 -4
BITMAP
0000
39C0
1080
1100
0900
0A00
0600
0400
2400
1800
0000
0000
0000
0000
ENDCHAR
STARTCHAR U+0424
ENCODING 1060
SWIDTH 520 0 
DWIDTH 14 0
BBX 14 14 -1 -4
BITMAP
0000
0700
0200
1FC0
2220
2220
2220
1FC0
0200
0700
0000
0000
0000
0000
ENDCHAR
STARTCHAR U+0425
ENCODING 1061
SWIDTH 520 0 
DWIDTH 14 0
BBX 14 14 -1 -4
BITMAP
0000
39C0
1080
0900
0500
0200
0600
0900
1080
39C0
0000
0000
0000
0000
ENDCHAR
STARTCHAR U+0426
ENCODING 1062
SWIDTH 520 0 
DWIDTH 14 0
BBX 14 14 -1 -4
BITMAP
0000
39C0
1080
1080
1080
1080
1080
1080
1080
3FE0
0020
0000
0000
0000
ENDCHAR
STARTCHAR U+0427
ENCODING 1063
SWIDTH 520 0 
DWIDTH 14 0
BBX 14 14 -1 -4
BITMAP
0000
39C0
1080
1080
1080
1180
0E80
0080
0080
01C0
0000
0000
0000
0000
ENDCHAR
STARTCHAR U+0428
ENCODING 1064
SWIDTH 520 0 
DWIDTH 14 0
BBX 14 14 -1 -4
BITMAP
0000
E770
4220
4220
4220
4220
4220
4220
4220
FFF0
0000
0000
0000
0000
ENDCHAR
STARTCHAR U+0429
ENCODING 1065
SWIDTH 520 0 
DWIDTH 14 0
BBX 14 14 -1 -4
BITMAP
0000
7770
2220
2220
2220
2220
2220
2220
2220
7FF0
0010
0000
0000
0000
ENDCHAR
STARTCHAR U+042A
ENCODING 1066
SWIDTH 520 0 
DWIDTH 14 0
BBX 14 14 -1 -4
BITMAP
0000
7C00
4800
0800
0800
0F80
0840
0840
0840
1F80
0000
0000
0000
0000
ENDCHAR
STARTCHAR U+042B
ENCODING 1067
SWIDTH 520 0 
DWIDTH 14 0
BBX 14 14 -1 -4
BITMAP
0000
70E0
2040
2040
2040
3E40
2140
2140
2140
7EE0
0000
0000
0000
0000
ENDCHAR
STARTCHAR U+042C
ENCODING 1068
SWIDTH 520 0 
DWIDTH 14 0
BBX 14 14 -1 -4
BITMAP
0000
1C00
0800
0800
0800
0F80
0840
0840
0840
1F80
0000
0000
0000
0000
ENDCHAR
STARTCHAR U+042D
ENCODING 1069
SWIDTH 520 0 
DWIDTH 14 0
BBX 14 14 -1 -4
BITMAP
0000
1600
1900
1080
0080
0780
0080
1080
1100
0E00
0000
0000
0000
0000
ENDCHAR
STARTCHAR U+042E
ENCODING 1070
SWIDTH 520 0 
DWIDTH 14 0
BBX 14 14 -1 -4
BITMAP
0000
E380
4440
4820
4820
7820
4820
4820
4440
E380
0000
0000
0000
0000
ENDCHAR
STARTCHAR U+042F
ENCODING 1071
SWIDTH 520 0 
DWIDTH 14 0
BBX 14 14 -1 -4
BITMAP
0000
0FC0
1080
1080
1080
0880
0780
0880
2880
11C0
0000
0000
0000
0000
ENDCHAR
STARTCHAR U+0430
ENCODING 1072
SWIDTH 520 0 
DWIDTH 14 0
BBX 14 14 -1 -4
BITMAP
0000
0000
0000
0000
0E00
1200
0E00
1200
1200
0D00
0000
0000
0000
0000
ENDCHAR
STARTCHAR U+0431
ENCODING 1073
SWIDTH 520 0 
DWIDTH 14 0
BBX 14 14 -1 -4
BITMAP
0000
0000
0700
0800
1600
1900
1100
1100
1100
0E00
0000
0000
0000
0000
ENDCHAR
STARTCHAR U+0432
ENCODING 1074
SWIDTH 520 0 
DWIDTH 14 0
BBX 14 14 -1 -4
BITMAP
0000
0000
0000
1F00
0880
0880
0F00
0880
0880
1F00
0000
0000
0000
0000
ENDCHAR
STARTCHAR U+0433
ENCODING 1075
SWIDTH 520 0 
DWIDTH 14 0
BBX 14 14 -1 -4
BITMAP
0000
0000
0000
0000
1F80
0880
0800
0800
0800
1C00
0000
0000
0000
0000
ENDCHAR
STARTCHAR U+0434
ENCODING 1076
SWIDTH 520 0 
DWIDTH 14 0
BBX 14 14 -1 -4
BITMAP
0000
0000
0000
0000
0F80
0500
0500
0900
0900
1F80
1080
0000
0000
0000
ENDCHAR
STARTCHAR U+0435
ENCODING 1077
SWIDTH 520 0 
DWIDTH 14 0
BBX 14 14 -1 -4
BITMAP
0000
0000
0000
0000
0700
0880
0F80
0800
0880
0700
0000
0000
0000
0000
ENDCHAR
STARTCHAR U+0436
ENCODING 1078
SWIDTH 520 0 
DWIDTH 14 0
BBX 14 14 -1 -4
BITMAP
0000
0000
0000
0000
1740
0A80
0700
0A80
0A80
1740
0000
0000
0000
0000
ENDCHAR
STARTCHAR U+0437
ENCODING 1079
SWIDTH 520 0 
DWIDTH 14 0
BBX 14 14 -1 -4
BITMAP
0000
0000
0000
0A00
0D00
0900
0200
0100
0900
0600
0000
0000
0000
0000
ENDCHAR
STARTCHAR U+0438
ENCODING 1080
SWIDTH 520 0 
DWIDTH 14 0
BBX 14 14 -1 -4
BITMAP
0000
0000
0000
0000
1CC0
0980
0A80
0C80
0880
1DC0
0000
0000
0000
0000
ENDCHAR
STARTCHAR U+0439
ENCODING 1081
SWIDTH 520 0 
DWIDTH 14 0
BBX 14 14 -1 -4
BITMAP
0000
0000
0500
0200
19C0
0980
0A80
0C80
0880
1DC0
0000
0000
0000
0000
ENDCHAR
STARTCHAR U+043A
ENCODING 1082
SWIDTH 520 0 
DWIDTH 14 0
BBX 14 14 -1 -4
BITMAP
0000
0000
0000
0000
1D80
0A00
0C00
0A00
0A00
1D80
0000
0000
0000
0000
ENDCHAR
STARTCHAR U+043B
ENCODING 1083
SWIDTH 520 0 
DWIDTH 14 0
BBX 14 14 -1 -4
BITMAP
0000
0000
0000
0000
0F80
0500
0500
0500
1500
1B80
0000
0000
0000
0000
ENDCHAR
STARTCHAR U+043C
ENCODING 1084
SWIDTH 520 0 
DWIDTH 14 0
BBX 14 14 -1 -4
BITMAP
0000
0000
0000
0000
3100
1B00
1B00
1500
1500
3180
0000
0000
0000
0000
ENDCHAR
STARTCHAR U+043D
ENCODING 1085
SWIDTH 520 0 
DWIDTH 14 0
BBX 14 14 -1 -4
BITMAP
0000
0000
0000
0000
1DC0
0880
0880
0F80
0880
1DC0
0000
0000
0000
0000
ENDCHAR
STARTCHAR U+043E
ENCODING 1086
SWIDTH 520 0 
DWIDTH 14 0
BBX 14 14 -1 -4
BITMAP
0000
0000
0000
0000
0700
0880
0880
0880
0880
0700
0000
0000
0000
0000
ENDCHAR
STARTCHAR U+043F
ENCODING 1087
SWIDTH 520 0 
DWIDTH 14 0
BBX 14 14 -1 -4
BITMAP
0000
0000
0000
0000
3F80
1100
1100
1100
1100
3B80
0000
0000
0000
0000
ENDCHAR
STARTCHAR U+0440
ENCODING 1088
SWIDTH 520 0 
DWIDTH 14 0
BBX 14 14 -1 -4
BITMAP
0000
0000
0000
0000
1B00
0C80
0880
0880
0C80
0B00
0800
1C00
0000
0000
ENDCHAR
STARTCHAR U+0441
ENCODING 1089
SWIDTH 520 0 
DWIDTH 14 0
BBX 14 14 -1 -4
BITMAP
0000
0000
0000
0000
0700
0880
0800
0800
0880
0700
0000
0000
0000
0000
ENDCHAR
STARTCHAR U+0442
ENCODING 1090
SWIDTH 520 0 
DWIDTH 14 0
BBX 14 14 -1 -4
BITMAP
0000
0000
0000
0000
0F80
0A80
0200
0200
0200
0700
0000
0000
0000
0000
ENDCHAR
STARTCHAR U+0443
ENCODING 1091
SWIDTH 520 0 
DWIDTH 14 0
BBX 14 14 -1 -4
BITMAP
0000
0000
0000
39C0
1080
0900
0900
0600
0200
0400
0400
1800
0000
0000
ENDCHAR
STARTCHAR U+0444
ENCODING 1092
SWIDTH 520 0 
DWIDTH 14 0
BBX 14 14 -1 -4
BITMAP
0000
0600
0200
0200
0F80
1240
1240
1240
0F80
0200
0700
0000
0000
0000
ENDCHAR
STARTCHAR U+0445
ENCODING 1093
SWIDTH 520 0 
DWIDTH 14 0
BBX 14 14 -1 -4
BITMAP
0000
0000
0000
0000
18C0
0500
0200
0500
0880
19C0
0000
0000
0000
0000
ENDCHAR
STARTCHAR U+0446
ENCODING 1094
SWIDTH 520 0 
DWIDTH 14 0
BBX 14 14 -1 -4
BITMAP
0000
0000
0000
0000
1DC0
0880
0880
0880
0880
1FC0
0040
0000
0000
0000
ENDCHAR
STARTCHAR U+0447
ENCODING 1095
SWIDTH 520 0 
DWIDTH 14 0
BBX 14 14 -1 -4
BITMAP
0000
0000
0000
3B80
1100
1100
1100
0F00
0100
0380
0000
0000
0000
0000
ENDCHAR
STARTCHAR U+0448
ENCODING 1096
SWIDTH 520 0 
DWIDTH 14 0
BBX 14 14 -1 -4
BITMAP
0000
0000
0000
0000
7760
2240
2240
2240
2240
7FE0
0000
0000
0000
0000
ENDCHAR
STARTCHAR U+0449
ENCODING 1097
SWIDTH 520 0 
DWIDTH 14 0
BBX 14 14 -1 -4
BITMAP
0000
0000
0000
0000
7760
2240
2240
2240
2240
7FE0
0020
0000
0000
0000
ENDCHAR
STARTCHAR U+044A
ENCODING 1098
SWIDTH 520 0 
DWIDTH 14 0
BBX 14 14 -1 -4
BITMAP
0000
0000
0000
0000
3C00
2400
0780
0440
0440
0F80
0000
0000
0000
0000
ENDCHAR
STARTCHAR U+044B
ENCODING 1099
SWIDTH 520 0 
DWIDTH 14 0
BBX 14 14 -1 -4
BITMAP
0000
0000
0000
0000
39C0
1080
1C80
1280
1280
3DC0
0000
0000
0000
0000
ENDCHAR
STARTCHAR U+044C
ENCODING 1100
SWIDTH 520 0 
DWIDTH 14 0
BBX 14 14 -1 -4
BITMAP
0000
0000
0000
0000
1C00
0800
0F00
0880
0880
1F00
0000
0000
0000
0000
ENDCHAR
STARTCHAR U+044D
ENCODING 1101
SWIDTH 520 0 
DWIDTH 14 0
BBX 14 14 -1 -4
BITMAP
0000
0000
0000
0000
0600
0900
0300
0100
0900
0600
0000
0000
0000
0000
ENDCHAR
STARTCHAR U+044E
ENCODING 1102
SWIDTH 520 0 
DWIDTH 14 0
BBX 14 14 -1 -4
BITMAP
0000
0000
0000
0000
3B80
1440
1C40
1440
1440
3B80
0000
0000
0000
0000
ENDCHAR
STARTCHAR U+044F
ENCODING 1103
SWIDTH 520 0 
DWIDTH 14 0
BBX 14 14 -1 -4
BITMAP
0000
0000
0000
0000
0F80
0900
0F00
0500
0900
1B80
0000
0000
0000
0000
ENDCHAR
STARTCHAR U+0451
ENCODING 1105
SWIDTH 520 0 
DWIDTH 14 0
BBX 14 14 -1 -4
BITMAP
0000
0000
0500
0000
0700
0880
0F80
0800
0880
0700
0000
0000
0000
0000
ENDCHAR
STARTCHAR U+2014
ENCODING 8212
SWIDTH 520 0 
DWIDTH 14 0
BBX 14 14 -1 -4
BITMAP
0000
0000
0000
0000
0000
0000
FFF0
0000
0000
0000
0000
0000
0000
0000
ENDCHAR
STARTCHAR U+2016
ENCODING 8214
SWIDTH 520 0 
DWIDTH 14 0
BBX 14 14 -1 -4
BITMAP
0900
0900
0900
0900
0900
0900
0900
0900
0900
0900
0900
0900
0000
0000
ENDCHAR
STARTCHAR U+2018
ENCODING 8216
SWIDTH 520 0 
DWIDTH 14 0
BBX 14 14 -1 -4
BITMAP
0000
0020
0040
0060
0060
0000
0000
0000
0000
0000
0000
0000
0000
0000
ENDCHAR
STARTCHAR U+2019
ENCODING 8217
SWIDTH 520 0 
DWIDTH 14 0
BBX 14 14 -1 -4
BITMAP
0000
6000
6000
2000
4000
0000
0000
0000
0000
0000
0000
0000
0000
0000
ENDCHAR
STARTCHAR U+201C
ENCODING 8220
SWIDTH 520 0 
DWIDTH 14 0
BBX 14 14 -1 -4
BITMAP
0000
0120
0240
0360
0360
0000
0000
0000
0000
0000
0000
0000
0000
0000
ENDCHAR
STARTCHAR U+201D
ENCODING 8221
SWIDTH 520 0 
DWIDTH 14 0
BBX 14 14 -1 -4
BITMAP
0000
6C00
6C00
2400
4800
0000
0000
0000
0000
0000
0000
0000
0000
0000
ENDCHAR
STARTCHAR U+2026
ENCODING 8230
SWIDTH 520 0 
DWIDTH 14 0
BBX 14 14 -1 -4
BITMAP
0000
0000
0000
0000
0000
6660
6660
0000
0000
0000
0000
0000
0000
0000
ENDCHAR
STARTCHAR U+2030
ENCODING 8240
SWIDTH 520 0 
DWIDTH 14 0
BBX 14 14 -1 -4
BITMAP
0000
4080
A100
A200
A400
4800
1220
2550
4550
8550
0220
0000
0000
0000
ENDCHAR
STARTCHAR U+2032
ENCODING 8242
SWIDTH 520 0 
DWIDTH 14 0
BBX 14 14 -1 -4
BITMAP
0000
2000
2000
4000
4000
0000
0000
0000
0000
0000
0000
0000
0000
0000
ENDCHAR
STARTCHAR U+2033
ENCODING 8243
SWIDTH 520 0 
DWIDTH 14 0
BBX 14 14 -1 -4
BITMAP
0000
1400
1400
2800
2800
0000
0000
0000
0000
0000
0000
0000
0000
0000
ENDCHAR
STARTCHAR U+203B
ENCODING 8251
SWIDTH 520 0 
DWIDTH 14 0
BBX 14 14 -1 -4
BITMAP
0000
4620
2640
1080
0900
6660
6660
0900
1080
2640
4620
0000
0000
0000
ENDCHAR
STARTCHAR U+2103
ENCODING 8451
SWIDTH 520 0 
DWIDTH 14 0
BBX 14 14 -1 -4
BITMAP
0000
63A0
6460
0820
0820
0800
0800
0800
0820
0440
0380
0000
0000
0000
ENDCHAR
STARTCHAR U+2116
ENCODING 8470
SWIDTH 520 0 
DWIDTH 14 0
BBX 14 14 -1 -4
BITMAP
0000
C700
4200
6200
52E0
52A0
4AA0
4AE0
4600
E2E0
0000
0000
0000
0000
ENDCHAR
STARTCHAR U+2160
ENCODING 8544
SWIDTH 520 0 
DWIDTH 14 0
BBX 14 14 -1 -4
BITMAP
0000
0700
0200
0200
0200
0200
0200
0200
0200
0200
0700
0000
0000
0000
ENDCHAR
STARTCHAR U+2161
ENCODING 8545
SWIDTH 520 0 
DWIDTH 14 0
BBX 14 14 -1 -4
BITMAP
0000
1DC0
0880
0880
0880
0880
0880
0880
0880
0880
1DC0
0000
0000
0000
ENDCHAR
STARTCHAR U+2162
ENCODING 8546
SWIDTH 520 0 
DWIDTH 14 0
BBX 14 14 -1 -4
BITMAP
0000
7770
2220
2220
2220
2220
2220
2220
2220
2220
7770
0000
0000
0000
ENDCHAR
STARTCHAR U+2163
ENCODING 8547
SWIDTH 520 0 
DWIDTH 14 0
BBX 14 14 -1 -4
BITMAP
0000
7770
2220
2220
2220
2140
2140
2140
2080
2080
7080
0000
0000
0000
ENDCHAR
STARTCHAR U+2164
ENCODING 8548
SWIDTH 520 0 
DWIDTH 14 0
BBX 14 14 -1 -4
BITMAP
0000
31C0
1080
1080
0880
0900
0900
0500
0600
0200
0200
0000
0000
0000
ENDCHAR
STARTCHAR U+2165
ENCODING 8549
SWIDTH 520 0 
DWIDTH 14 0
BBX 14 14 -1 -4
BITMAP
0000
E7E0
4240
2240
2240
2440
1440
1440
0840
0840
08E0
0000
0000
0000
ENDCHAR
STARTCHAR U+2166
ENCODING 8550
SWIDTH 520 0 
DWIDTH 14 0
BBX 14 14 -1 -4
BITMAP
0000
CFF0
44A0
44A0
44A0
28A0
28A0
28A0
10A0
10A0
11F0
0000
0000
0000
ENDCHAR
STARTCHAR U+2167
ENCODING 8551
SWIDTH 520 0 
DWIDTH 14 0
BBX 14 14 -1 -4
BITMAP
0000
CFF0
4AA0
4AA0
4AA0
5AA0
52A0
52A0
32A0
22A0
27F0
0000
0000
0000
ENDCHAR
STARTCHAR U+2168
ENCODING 8552
SWIDTH 520 0 
DWIDTH 14 0
BBX 14 14 -1 -4
BITMAP
0000
7EE0
2440
2280
2280
2100
2100
2280
2280
2440
7EE0
0000
0000
0000
ENDCHAR
STARTCHAR U+2169
ENCODING 8553
SWIDTH 520 0 
DWIDTH 14 0
BBX 14 14 -1 -4
BITMAP
0000
38E0
1040
0880
0500
0200
0200
0500
0880
1040
38E0
0000
0000
0000
ENDCHAR
STARTCHAR U+216A
ENCODING 8554
SWIDTH 520 0 
DWIDTH 14 0
BBX 14 14 -1 -4
BITMAP
0000
77E0
2240
1440
1440
0840
0840
1440
1440
2240
77E0
0000
0000
0000
ENDCHAR
STARTCHAR U+216B
ENCODING 8555
SWIDTH 520 0 
DWIDTH 14 0
BBX 14 14 -1 -4
BITMAP
0000
EFF0
44A0
28A0
28A0
10A0
10A0
28A0
28A0
44A0
EFF0
0000
0000
0000
ENDCHAR
STARTCHAR U+2170
ENCODING 8560
SWIDTH 520 0 
DWIDTH 14 0
BBX 14 14 -1 -4
BITMAP
0000
0200
0200
0000
0600
0200
0200
0200
0200
0700
0000
0000
0000
0000
ENDCHAR
STARTCHAR U+2171
ENCODING 8561
SWIDTH 520 0 
DWIDTH 14 0
BBX 14 14 -1 -4
BITMAP
0000
0880
0880
0000
1980
0880
0880
0880
0880
1DC0
0000
0000
0000
0000
ENDCHAR
STARTCHAR U+2172
ENCODING 8562
SWIDTH 520 0 
DWIDTH 14 0
BBX 14 14 -1 -4
BITMAP
0000
4220
4220
0000
C660
4220
4220
4220
4220
E770
0000
0000
0000
0000
ENDCHAR
STARTCHAR U+2173
ENCODING 8563
SWIDTH 520 0 
DWIDTH 14 0
BBX 14 14 -1 -4
BITMAP
0000
2000
2000
0000
6EE0
2440
2280
2280
2100
7100
0000
0000
0000
0000
ENDCHAR
STARTCHAR U+2174
ENCODING 8564
SWIDTH 520 0 
DWIDTH 14 0
BBX 14 14 -1 -4
BITMAP
0000
0000
0000
0000
3180
1100
0A00
0A00
0400
0400
0000
0000
0000
0000
ENDCHAR
STARTCHAR U+2175
ENCODING 8565
SWIDTH 520 0 
DWIDTH 14 0
BBX 14 14 -1 -4
BITMAP
0000
0040
0040
0000
7740
2240
1440
1440
0840
08E0
0000
0000
0000
0000
ENDCHAR
STARTCHAR U+2176
ENCODING 8566
SWIDTH 520 0 
DWIDTH 14 0
BBX 14 14 -1 -4
BITMAP
0000
00A0
00A0
0000
EEA0
44A0
28A0
28A0
10A0
11F0
0000
0000
0000
0000
ENDCHAR
STARTCHAR U+2177
ENCODING 8567
SWIDTH 520 0 
DWIDTH 14 0
BBX 14 14 -1 -4
BITMAP
0000
02A0
02A0
0000
CAA0
4AA0
52A0
52A0
22A0
27F0
0000
0000
0000
0000
ENDCHAR
STARTCHAR U+2178
ENCODING 8568
SWIDTH 520 0 
DWIDTH 14 0
BBX 14 14 -1 -4
BITMAP
0000
2000
2000
0000
6360
2140
2080
2080
2140
7360
0000
0000
0000
0000
ENDCHAR
STARTCHAR U+2179
ENCODING 8569
SWIDTH 520 0 
DWIDTH 14 0
BBX 14 14 -1 -4
BITMAP
0000
0000
0000
0000
1DC0
0500
0200
0200
0500
1DC0
0000
0000
0000
0000
ENDCHAR
STARTCHAR U+2190
ENCODING 8592
SWIDTH 520 0 
DWIDTH 14 0
BBX 14 14 -1 -4
BITMAP
0000
0000
0000
0000
0800
3000
FFF0
3000
0800
0000
0000
0000
0000
0000
ENDCHAR
STARTCHAR U+2191
ENCODING 8593
SWIDTH 520 0 
DWIDTH 14 0
BBX 14 14 -1 -4
BITMAP
0200
0200
0700
0700
0A80
0200
0200
0200
0200
0200
0200
0200
0000
0000
ENDCHAR
STARTCHAR U+2192
ENCODING 8594
SWIDTH 520 0 
DWIDTH 14 0
BBX 14 14 -1 -4
BITMAP
0000
0000
0000
0000
0100
00C0
FFF0
00C0
0100
0000
0000
0000
0000
0000
ENDCHAR
STARTCHAR U+2193
ENCODING 8595
SWIDTH 520 0 
DWIDTH 14 0
BBX 14 14 -1 -4
BITMAP
0200
0200
0200
0200
0200
0200
0200
0A80
0700
0700
0200
0200
0000
0000
ENDCHAR
STARTCHAR U+2208
ENCODING 8712
SWIDTH 520 0 
DWIDTH 14 0
BBX 14 14 -1 -4
BITMAP
0000
0000
0FC0
1000
2000
2000
3FC0
2000
2000
1000
0FC0
0000
0000
0000
ENDCHAR
STARTCHAR U+220F
ENCODING 8719
SWIDTH 520 0 
DWIDTH 14 0
BBX 14 14 -1 -4
BITMAP
0000
7FE0
2040
2040
2040
2040
2040
2040
2040
2040
70E0
0000
0000
0000
ENDCHAR
STARTCHAR U+2211
ENCODING 8721
SWIDTH 520 0 
DWIDTH 14 0
BBX 14 14 -1 -4
BITMAP
0000
3FC0
2040
1000
0800
0400
0400
0800
1000
2040
3FC0
0000
0000
0000
ENDCHAR
STARTCHAR U+221A
ENCODING 8730
SWIDTH 520 0 
DWIDTH 14 0
BBX 14 14 -1 -4
BITMAP
0000
0040
0040
0080
0080
0080
0100
0900
1500
0200
0200
0000
0000
0000
ENDCHAR
STARTCHAR U+221D
ENCODING 8733
SWIDTH 520 0 
DWIDTH 14 0
BBX 14 14 -1 -4
BITMAP
0000
0000
0000
0000
3DE0
4200
4200
3DE0
0000
0000
0000
0000
0000
0000
ENDCHAR
STARTCHAR U+221E
ENCODING 8734
SWIDTH 520 0 
DWIDTH 14 0
BBX 14 14 -1 -4
BITMAP
0000
0000
0000
0000
39C0
4620
4620
39C0
0000
0000
0000
0000
0000
0000
ENDCHAR
STARTCHAR U+2220
ENCODING 8736
SWIDTH 520 0 
DWIDTH 14 0
BBX 14 14 -1 -4
BITMAP
0000
0020
0040
0080
0100
0200
0400
0800
1000
2000
7FE0
0000
0000
0000
ENDCHAR
STARTCHAR U+2225
ENCODING 8741
SWIDTH 520 0 
DWIDTH 14 0
BBX 14 14 -1 -4
BITMAP
0000
0220
0220
0440
0440
0880
0880
1100
1100
2200
2200
0000
0000
0000
ENDCHAR
STARTCHAR U+2227
ENCODING 8743
SWIDTH 520 0 
DWIDTH 14 0
BBX 14 14 -1 -4
BITMAP
0000
0200
0200
0500
0500
0880
0880
1040
1040
2020
2020
0000
0000
0000
ENDCHAR
STARTCHAR U+2228
ENCODING 8744
SWIDTH 520 0 
DWIDTH 14 0
BBX 14 14 -1 -4
BITMAP
0000
2020
2020
1040
1040
0880
0880
0500
0500
0200
0200
0000
0000
0000
ENDCHAR
STARTCHAR U+2229
ENCODING 8745
SWIDTH 520 0 
DWIDTH 14 0
BBX 14 14 -1 -4
BITMAP
0000
0000
0F00
1080
2040
2040
2040
2040
2040
2040
0000
0000
0000
0000
ENDCHAR
STARTCHAR U+222A
ENCODING 8746
SWIDTH 520 0 
DWIDTH 14 0
BBX 14 14 -1 -4
BITMAP
0000
0000
2040
2040
2040
2040
2040
2040
1080
0F00
0000
0000
0000
0000
ENDCHAR
STARTCHAR U+222B
ENCODING 8747
SWIDTH 520 0 
DWIDTH 14 0
BBX 14 14 -1 -4
BITMAP
0100
0280
0200
0200
0200
0200
0400
0400
0400
0400
1400
0800
0000
0000
ENDCHAR
STARTCHAR U+222E
ENCODING 8750
SWIDTH 520 0 
DWIDTH 14 0
BBX 14 14 -1 -4
BITMAP
0100
0280
0200
0200
0700
0A80
0A80
0700
0200
0200
0A00
0400
0000
0000
ENDCHAR
STARTCHAR U+2234
ENCODING 8756
SWIDTH 520 0 
DWIDTH 14 0
BBX 14 14 -1 -4
BITMAP
0000
0000
0600
0600
0000
0000
0000
0000
30C0
30C0
0000
0000
0000
0000
ENDCHAR
STARTCHAR U+2235
ENCODING 8757
SWIDTH 520 0 
DWIDTH 14 0
BBX 14 14 -1 -4
BITMAP
0000
0000
30C0
30C0
0000
0000
0000
0000
0600
0600
0000
0000
0000
0000
ENDCHAR
STARTCHAR U+2236
ENCODING 8758
SWIDTH 520 0 
DWIDTH 14 0
BBX 14 14 -1 -4
BITMAP
0000
0000
0600
0600
0000
0000
0000
0000
0600
0600
0000
0000
0000
0000
ENDCHAR
STARTCHAR U+2237
ENCODING 8759
SWIDTH 520 0 
DWIDTH 14 0
BBX 14 14 -1 -4
BITMAP
0000
0000
30C0
30C0
0000
0000
0000
0000
30C0
30C0
0000
0000
0000
0000
ENDCHAR
STARTCHAR U+223D
ENCODING 8765
SWIDTH 520 0 
DWIDTH 14 0
BBX 14 14 -1 -4
BITMAP
0000
0000
0000
0000
21C0
4220
4420
3840
0000
0000
0000
0000
0000
0000
ENDCHAR
STARTCHAR U+2248
ENCODING 8776
SWIDTH 520 0 
DWIDTH 14 0
BBX 14 14 -1 -4
BITMAP
0000
0000
0000
3800
4420
03C0
3800
4620
01C0
0000
0000
0000
0000
0000
ENDCHAR
STARTCHAR U+224C
ENCODING 8780
SWIDTH 520 0 
DWIDTH 14 0
BBX 14 14 -1 -4
BITMAP
0000
0000
31C0
4220
4420
4820
3040
0000
7FE0
0000
7FE0
0000
0000
0000
ENDCHAR
STARTCHAR U+2260
ENCODING 8800
SWIDTH 520 0 
DWIDTH 14 0
BBX 14 14 -1 -4
BITMAP
0000
0000
0080
0100
7FE0
0200
0400
7FE0
0800
1000
0000
0000
0000
0000
ENDCHAR
STARTCHAR U+2261
ENCODING 8801
SWIDTH 520 0 
DWIDTH 14 0
BBX 14 14 -1 -4
BITMAP
0000
0000
0000
0000
7FE0
0000
7FE0
0000
7FE0
0000
0000
0000
0000
0000
ENDCHAR
STARTCHAR U+2264
ENCODING 8804
SWIDTH 520 0 
DWIDTH 14 0
BBX 14 14 -1 -4
BITMAP
0000
0060
0380
1C00
6000
1C00
0380
6060
1C00
0380
0060
0000
0000
0000
ENDCHAR
STARTCHAR U+2265
ENCODING 8805
SWIDTH 520 0 
DWIDTH 14 0
BBX 14 14 -1 -4
BITMAP
0000
6000
1C00
0380
0060
0380
1C00
6060
0380
1C00
6000
0000
0000
0000
ENDCHAR
STARTCHAR U+226E
ENCODING 8814
SWIDTH 520 0 
DWIDTH 14 0
BBX 14 14 -1 -4
BITMAP
0000
0400
0420
04C0
0700
1C00
6400
1C00
0700
04C0
0420
0000
0000
0000
ENDCHAR
STARTCHAR U+226F
ENCODING 8815
SWIDTH 520 0 
DWIDTH 14 0
BBX 14 14 -1 -4
BITMAP
0000
0200
4200
3200
0E00
0380
0260
0380
0E00
3200
4200
0000
0000
0000
ENDCHAR
STARTCHAR U+2299
ENCODING 8857
SWIDTH 520 0 
DWIDTH 14 0
BBX 14 14 -1 -4
BITMAP
0000
1F80
2040
4020
4020
4620
4620
4020
4020
2040
1F80
0000
0000
0000
ENDCHAR
STARTCHAR U+22A5
ENCODING 8869
SWIDTH 520 0 
DWIDTH 14 0
BBX 14 14 -1 -4
BITMAP
0000
0200
0200
0200
0200
0200
0200
0200
0200
0200
3FE0
0000
0000
0000
ENDCHAR
STARTCHAR U+2312
ENCODING 8978
SWIDTH 520 0 
DWIDTH 14 0
BBX 14 14 -1 -4
BITMAP
0000
0000
0000
1F80
2040
4020
4020
0000
0000
0000
0000
0000
0000
0000
ENDCHAR
STARTCHAR U+2460
ENCODING 9312
SWIDTH 520 0 
DWIDTH 14 0
BBX 14 14 -1 -4
BITMAP
1F80
2040
4220
8610
8210
8210
8210
8210
8210
4720
2040
1F80
0000
0000
ENDCHAR
STARTCHAR U+2461
ENCODING 9313
SWIDTH 520 0 
DWIDTH 14 0
BBX 14 14 -1 -4
BITMAP
1F80
2040
4E20
9110
9110
8110
8210
8410
8910
5F20
2040
1F80
0000
0000
ENDCHAR
STARTCHAR U+2462
ENCODING 9314
SWIDTH 520 0 
DWIDTH 14 0
BBX 14 14 -1 -4
BITMAP
1F80
2040
4E20
9110
9110
8610
8110
9110
9110
4E20
2040
1F80
0000
0000
ENDCHAR
STARTCHAR U+2463
ENCODING 9315
SWIDTH 520 0 
DWIDTH 14 0
BBX 14 14 -1 -4
BITMAP
1F80
2040
4220
8210
8610
8A10
9210
9F10
8210
4720
2040
1F80
0000
0000
ENDCHAR
STARTCHAR U+2464
ENCODING 9316
SWIDTH 520 0 
DWIDTH 14 0
BBX 14 14 -1 -4
BITMAP
1F80
2040
5F20
9010
9010
9E10
8110
8110
9110
4E20
2040
1F80
0000
0000
ENDCHAR
STARTCHAR U+2465
ENCODING 9317
SWIDTH 520 0 
DWIDTH 14 0
BBX 14 14 -1 -4
BITMAP
1F80
2040
4E20
9110
9010
9E10
9110
9110
9110
4E20
2040
1F80
0000
0000
ENDCHAR
STARTCHAR U+2466
ENCODING 9318
SWIDTH 520 0 
DWIDTH 14 0
BBX 14 14 -1 -4
BITMAP
1F80
2040
5F20
9110
8210
8210
8410
8410
8410
4420
2040
1F80
0000
0000
ENDCHAR
STARTCHAR U+2467
ENCODING 9319
SWIDTH 520 0 
DWIDTH 14 0
BBX 14 14 -1 -4
BITMAP
1F80
2040
4E20
9110
9110
8E10
9110
9110
9110
4E20
2040
1F80
0000
0000
ENDCHAR
STARTCHAR U+2468
ENCODING 9320
SWIDTH 520 0 
DWIDTH 14 0
BBX 14 14 -1 -4
BITMAP
1F80
2040
4E20
9110
9110
9110
8F10
8110
9110
4E20
2040
1F80
0000
0000
ENDCHAR
STARTCHAR U+2469
ENCODING 9321
SWIDTH 520 0 
DWIDTH 14 0
BBX 14 14 -1 -4
BITMAP
1F80
2040
49A0
9A50
8A50
8A50
8A50
8A50
8A50
5DA0
2040
1F80
0000
0000
ENDCHAR
STARTCHAR U+2474
ENCODING 9332
SWIDTH 520 0 
DWIDTH 14 0
BBX 14 14 -1 -4
BITMAP
0000
2240
4620
8210
8210
8210
8210
8210
8210
4720
2040
0000
0000
0000
ENDCHAR
STARTCHAR U+2475
ENCODING 9333
SWIDTH 520 0 
DWIDTH 14 0
BBX 14 14 -1 -4
BITMAP
0000
2640
4920
8910
8110
8210
8210
8410
8910
4F20
2040
0000
0000
0000
ENDCHAR
STARTCHAR U+2476
ENCODING 9334
SWIDTH 520 0 
DWIDTH 14 0
BBX 14 14 -1 -4
BITMAP
0000
2640
4920
8910
8110
8610
8110
8910
8910
4620
2040
0000
0000
0000
ENDCHAR
STARTCHAR U+2477
ENCODING 9335
SWIDTH 520 0 
DWIDTH 14 0
BBX 14 14 -1 -4
BITMAP
0000
2240
4220
8610
8610
8A10
8A10
9F10
8210
4720
2040
0000
0000
0000
ENDCHAR
STARTCHAR U+2478
ENCODING 9336
SWIDTH 520 0 
DWIDTH 14 0
BBX 14 14 -1 -4
BITMAP
0000
2F40
4820
8810
8E10
8910
8110
8110
8910
4620
2040
0000
0000
0000
ENDCHAR
STARTCHAR U+2479
ENCODING 9337
SWIDTH 520 0 
DWIDTH 14 0
BBX 14 14 -1 -4
BITMAP
0000
2640
4920
8910
8810
8E10
8910
8910
8910
4620
2040
0000
0000
0000
ENDCHAR
STARTCHAR U+247A
ENCODING 9338
SWIDTH 520 0 
DWIDTH 14 0
BBX 14 14 -1 -4
BITMAP
0000
2F40
4920
8110
8210
8210
8410
8410
8410
4420
2040
0000
0000
0000
ENDCHAR
STARTCHAR U+247B
ENCODING 9339
SWIDTH 520 0 
DWIDTH 14 0
BBX 14 14 -1 -4
BITMAP
0000
2640
4920
8910
8910
8610
8910
8910
8910
4620
2040
0000
0000
0000
ENDCHAR
STARTCHAR U+247C
ENCODING 9340
SWIDTH 520 0 
DWIDTH 14 0
BBX 14 14 -1 -4
BITMAP
0000
2640
4920
8910
8910
8910
8710
8110
8910
4620
2040
0000
0000
0000
ENDCHAR
STARTCHAR U+247D
ENCODING 9341
SWIDTH 520 0 
DWIDTH 14 0
BBX 14 14 -1 -4
BITMAP
0000
2940
5AA0
8A90
8A90
8A90
8A90
8A90
8A90
4920
2040
0000
0000
0000
ENDCHAR
STARTCHAR U+247E
ENCODING 9342
SWIDTH 520 0 
DWIDTH 14 0
BBX 14 14 -1 -4
BITMAP
0000
2940
4920
8910
8910
8910
8910
8910
8910
4920
2040
0000
0000
0000
ENDCHAR
STARTCHAR U+247F
ENCODING 9343
SWIDTH 520 0 
DWIDTH 14 0
BBX 14 14 -1 -4
BITMAP
0000
3340
54A0
9490
9090
9110
9110
9210
9490
57A0
2040
0000
0000
0000
ENDCHAR
STARTCHAR U+2480
ENCODING 9344
SWIDTH 520 0 
DWIDTH 14 0
BBX 14 14 -1 -4
BITMAP
0000
3340
54A0
9090
9090
9310
9090
9090
9490
5320
2040
0000
0000
0000
ENDCHAR
STARTCHAR U+2481
ENCODING 9345
SWIDTH 520 0 
DWIDTH 14 0
BBX 14 14 -1 -4
BITMAP
0000
28C0
48A0
8990
8990
8A90
8A90
8BD0
8890
48A0
2040
0000
0000
0000
ENDCHAR
STARTCHAR U+2482
ENCODING 9346
SWIDTH 520 0 
DWIDTH 14 0
BBX 14 14 -1 -4
BITMAP
0000
2BC0
4A20
8A10
8B90
8A50
8850
8850
8A50
49A0
2040
0000
0000
0000
ENDCHAR
STARTCHAR U+2483
ENCODING 9347
SWIDTH 520 0 
DWIDTH 14 0
BBX 14 14 -1 -4
BITMAP
0000
3340
54A0
9410
9710
9490
9490
9490
9490
5320
2040
0000
0000
0000
ENDCHAR
STARTCHAR U+2484
ENCODING 9348
SWIDTH 520 0 
DWIDTH 14 0
BBX 14 14 -1 -4
BITMAP
0000
37C0
54A0
9090
9110
9110
9110
9210
9210
5220
2040
0000
0000
0000
ENDCHAR
STARTCHAR U+2485
ENCODING 9349
SWIDTH 520 0 
DWIDTH 14 0
BBX 14 14 -1 -4
BITMAP
0000
3340
54A0
9490
9490
9310
9490
9490
9490
5320
2040
0000
0000
0000
ENDCHAR
STARTCHAR U+2486
ENCODING 9350
SWIDTH 520 0 
DWIDTH 14 0
BBX 14 14 -1 -4
BITMAP
0000
3340
54A0
9490
9490
9490
9390
9090
9490
5320
2040
0000
0000
0000
ENDCHAR
STARTCHAR U+2487
ENCODING 9351
SWIDTH 520 0 
DWIDTH 14 0
BBX 14 14 -1 -4
BITMAP
0000
29C0
5560
9550
8550
8550
8950
9150
9550
5DE0
2040
0000
0000
0000
ENDCHAR
STARTCHAR U+2488
ENCODING 9352
SWIDTH 520 0 
DWIDTH 14 0
BBX 14 14 -1 -4
BITMAP
0000
0200
0600
0200
0200
0200
0200
0200
0210
0710
0000
0000
0000
0000
ENDCHAR
STARTCHAR U+2489
ENCODING 9353
SWIDTH 520 0 
DWIDTH 14 0
BBX 14 14 -1 -4
BITMAP
0000
0700
0880
0880
0080
0100
0200
0400
0890
0F90
0000
0000
0000
0000
ENDCHAR
STARTCHAR U+248A
ENCODING 9354
SWIDTH 520 0 
DWIDTH 14 0
BBX 14 14 -1 -4
BITMAP
0000
0700
0880
0880
0080
0300
0080
0880
0890
0710
0000
0000
0000
0000
ENDCHAR
STARTCHAR U+248B
ENCODING 9355
SWIDTH 520 0 
DWIDTH 14 0
BBX 14 14 -1 -4
BITMAP
0000
0100
0100
0300
0500
0900
1100
1F80
0110
0390
0000
0000
0000
0000
ENDCHAR
STARTCHAR U+248C
ENCODING 9356
SWIDTH 520 0 
DWIDTH 14 0
BBX 14 14 -1 -4
BITMAP
0000
0F80
0800
0800
0F00
0880
0080
0080
0890
0710
0000
0000
0000
0000
ENDCHAR
STARTCHAR U+248D
ENCODING 9357
SWIDTH 520 0 
DWIDTH 14 0
BBX 14 14 -1 -4
BITMAP
0000
0700
0880
0800
0B00
0C80
0880
0880
0890
0710
0000
0000
0000
0000
ENDCHAR
STARTCHAR U+248E
ENCODING 9358
SWIDTH 520 0 
DWIDTH 14 0
BBX 14 14 -1 -4
BITMAP
0000
0F80
0880
0100
0100
0200
0200
0200
0210
0210
0000
0000
0000
0000
ENDCHAR
STARTCHAR U+248F
ENCODING 9359
SWIDTH 520 0 
DWIDTH 14 0
BBX 14 14 -1 -4
BITMAP
0000
0700
0880
0880
0880
0700
0880
0880
0890
0710
0000
0000
0000
0000
ENDCHAR
STARTCHAR U+2490
ENCODING 9360
SWIDTH 520 0 
DWIDTH 14 0
BBX 14 14 -1 -4
BITMAP
0000
0700
0880
0880
0880
0980
0680
0080
0910
0610
0000
0000
0000
0000
ENDCHAR
STARTCHAR U+2491
ENCODING 9361
SWIDTH 520 0 
DWIDTH 14 0
BBX 14 14 -1 -4
BITMAP
0000
2380
6440
2440
2440
2440
2440
2440
2450
7390
0000
0000
0000
0000
ENDCHAR
STARTCHAR U+2492
ENCODING 9362
SWIDTH 520 0 
DWIDTH 14 0
BBX 14 14 -1 -4
BITMAP
0000
2100
6300
2100
2100
2100
2100
2100
2110
7390
0000
0000
0000
0000
ENDCHAR
STARTCHAR U+2493
ENCODING 9363
SWIDTH 520 0 
DWIDTH 14 0
BBX 14 14 -1 -4
BITMAP
0000
2300
6480
2480
2080
2100
2100
2200
2490
7790
0000
0000
0000
0000
ENDCHAR
STARTCHAR U+2494
ENCODING 9364
SWIDTH 520 0 
DWIDTH 14 0
BBX 14 14 -1 -4
BITMAP
0000
2300
2480
2080
2080
2300
2080
2080
2490
3310
0000
0000
0000
0000
ENDCHAR
STARTCHAR U+2495
ENCODING 9365
SWIDTH 520 0 
DWIDTH 14 0
BBX 14 14 -1 -4
BITMAP
0000
2080
6080
2180
2280
2280
2480
27C0
2090
71D0
0000
0000
0000
0000
ENDCHAR
STARTCHAR U+2496
ENCODING 9366
SWIDTH 520 0 
DWIDTH 14 0
BBX 14 14 -1 -4
BITMAP
0000
2780
6400
2400
2700
2480
2080
2080
2490
7310
0000
0000
0000
0000
ENDCHAR
STARTCHAR U+2497
ENCODING 9367
SWIDTH 520 0 
DWIDTH 14 0
BBX 14 14 -1 -4
BITMAP
0000
2300
6480
2400
2700
2480
2480
2480
2490
7310
0000
0000
0000
0000
ENDCHAR
STARTCHAR U+2498
ENCODING 9368
SWIDTH 520 0 
DWIDTH 14 0
BBX 14 14 -1 -4
BITMAP
0000
2780
6480
2080
2100
2100
2200
2200
2210
7210
0000
0000
0000
0000
ENDCHAR
STARTCHAR U+2499
ENCODING 9369
SWIDTH 520 0 
DWIDTH 14 0
BBX 14 14 -1 -4
BITMAP
0000
2300
6480
2480
2480
2300
2480
2480
2490
7310
0000
0000
0000
0000
ENDCHAR
STARTCHAR U+249A
ENCODING 9370
SWIDTH 520 0 
DWIDTH 14 0
BBX 14 14 -1 -4
BITMAP
0000
2300
6480
2480
2480
2480
2380
2080
2490
7310
0000
0000
0000
0000
ENDCHAR
STARTCHAR U+249B
ENCODING 9371
SWIDTH 520 0 
DWIDTH 14 0
BBX 14 14 -1 -4
BITMAP
0000
3180
4A40
4A40
0A40
0A40
1240
2240
4A50
7990
0000
0000
0000
0000
ENDCHAR
STARTCHAR U+2500
ENCODING 9472
SWIDTH 520 0 
DWIDTH 14 0
BBX 14 14 -1 -4
BITMAP
0000
0000
0000
0000
0000
0000
FFF8
0000
0000
0000
0000
0000
0000
0000
ENDCHAR
STARTCHAR U+2501
ENCODING 9473
SWIDTH 520 0 
DWIDTH 14 0
BBX 14 14 -1 -4
BITMAP
0000
0000
0000
0000
0000
FFF8
FFF8
0000
0000
0000
0000
0000
0000
0000
ENDCHAR
STARTCHAR U+2502
ENCODING 9474
SWIDTH 520 0 
DWIDTH 14 0
BBX 14 14 -1 -4
BITMAP
0200
0200
0200
0200
0200
0200
0200
0200
0200
0200
0200
0200
0200
0000
ENDCHAR
STARTCHAR U+2503
ENCODING 9475
SWIDTH 520 0 
DWIDTH 14 0
BBX 14 14 -1 -4
BITMAP
0600
0600
0600
0600
0600
0600
0600
0600
0600
0600
0600
0600
0600
0000
ENDCHAR
STARTCHAR U+2504
ENCODING 9476
SWIDTH 520 0 
DWIDTH 14 0
BBX 14 14 -1 -4
BITMAP
0000
0000
0000
0000
0000
0000
EF70
0000
0000
0000
0000
0000
0000
0000
ENDCHAR
STARTCHAR U+2505
ENCODING 9477
SWIDTH 520 0 
DWIDTH 14 0
BBX 14 14 -1 -4
BITMAP
0000
0000
0000
0000
0000
EF70
EF70
0000
0000
0000
0000
0000
0000
0000
ENDCHAR
STARTCHAR U+2506
ENCODING 9478
SWIDTH 520 0 
DWIDTH 14 0
BBX 14 14 -1 -4
BITMAP
0200
0200
0200
0000
0200
0200
0200
0200
0000
0200
0200
0200
0000
0000
ENDCHAR
STARTCHAR U+2507
ENCODING 9479
SWIDTH 520 0 
DWIDTH 14 0
BBX 14 14 -1 -4
BITMAP
0600
0600
0600
0000
0600
0600
0600
0600
0000
0600
0600
0600
0000
0000
ENDCHAR
STARTCHAR U+2508
ENCODING 9480
SWIDTH 520 0 
DWIDTH 14 0
BBX 14 14 -1 -4
BITMAP
0000
0000
0000
0000
0000
0000
DDB0
0000
0000
0000
0000
0000
0000
0000
ENDCHAR
STARTCHAR U+2509
ENCODING 9481
SWIDTH 520 0 
DWIDTH 14 0
BBX 14 14 -1 -4
BITMAP
0000
0000
0000
0000
0000
DDB0
DDB0
0000
0000
0000
0000
0000
0000
0000
ENDCHAR
STARTCHAR U+250A
ENCODING 9482
SWIDTH 520 0 
DWIDTH 14 0
BBX 14 14 -1 -4
BITMAP
0200
0200
0000
0200
0200
0000
0200
0200
0200
0000
0200
0200
0000
0000
ENDCHAR
STARTCHAR U+250B
ENCODING 9483
SWIDTH 520 0 
DWIDTH 14 0
BBX 14 14 -1 -4
BITMAP
0600
0600
0000
0600
0600
0600
0000
0600
0600
0000
0600
0600
0000
0000
ENDCHAR
STARTCHAR U+250C
ENCODING 9484
SWIDTH 520 0 
DWIDTH 14 0
BBX 14 14 -1 -4
BITMAP
0000
0000
0000
0000
0000
0000
03F8
0200
0200
0200
0200
0200
0200
0000
ENDCHAR
STARTCHAR U+250D
ENCODING 9485
SWIDTH 520 0 
DWIDTH 14 0
BBX 14 14 -1 -4
BITMAP
0000
0000
0000
0000
0000
03F8
03F8
0200
0200
0200
0200
0200
0200
0000
ENDCHAR
STARTCHAR U+250E
ENCODING 9486
SWIDTH 520 0 
DWIDTH 14 0
BBX 14 14 -1 -4
BITMAP
0000
0000
0000
0000
0000
0000
07F8
0600
0600
0600
0600
0600
0600
0000
ENDCHAR
STARTCHAR U+250F
ENCODING 9487
SWIDTH 520 0 
DWIDTH 14 0
BBX 14 14 -1 -4
BITMAP
0000
0000
0000
0000
0000
07F8
07F8
0600
0600
0600
0600
0600
0600
0000
ENDCHAR
STARTCHAR U+2510
ENCODING 9488
SWIDTH 520 0 
DWIDTH 14 0
BBX 14 14 -1 -4
BITMAP
0000
0000
0000
0000
0000
0000
FE00
0200
0200
0200
0200
0200
0200
0000
ENDCHAR
STARTCHAR U+2511
ENCODING 9489
SWIDTH 520 0 
DWIDTH 14 0
BBX 14 14 -1 -4
BITMAP
0000
0000
0000
0000
0000
FE00
FE00
0200
0200
0200
0200
0200
0200
0000
ENDCHAR
STARTCHAR U+2512
ENCODING 9490
SWIDTH 520 0 
DWIDTH 14 0
BBX 14 14 -1 -4
BITMAP
0000
0000
0000
0000
0000
0000
FE00
0600
0600
0600
0600
0600
0600
0000
ENDCHAR
STARTCHAR U+2513
ENCODING 9491
SWIDTH 520 0 
DWIDTH 14 0
BBX 14 14 -1 -4
BITMAP
0000
0000
0000
0000
0000
FE00
FE00
0600
0600
0600
0600
0600
0600
0000
ENDCHAR
STARTCHAR U+2514
ENCODING 9492
SWIDTH 520 0 
DWIDTH 14 0
BBX 14 14 -1 -4
BITMAP
0200
0200
0200
0200
0200
0200
03F8
0000
0000
0000
0000
0000
0000
0000
ENDCHAR
STARTCHAR U+2515
ENCODING 9493
SWIDTH 520 0 
DWIDTH 14 0
BBX 14 14 -1 -4
BITMAP
0200
0200
0200
0200
0200
03F8
03F8
0000
0000
0000
0000
0000
0000
0000
ENDCHAR
STARTCHAR U+2516
ENCODING 9494
SWIDTH 520 0 
DWIDTH 14 0
BBX 14 14 -1 -4
BITMAP
0600
0600
0600
0600
0600
0600
07F8
0000
0000
0000
0000
0000
0000
0000
ENDCHAR
STARTCHAR U+2517
ENCODING 9495
SWIDTH 520 0 
DWIDTH 14 0
BBX 14 14 -1 -4
BITMAP
0600
0600
0600
0600
0600
07F8
07F8
0000
0000
0000
0000
0000
0000
0000
ENDCHAR
STARTCHAR U+2518
ENCODING 9496
SWIDTH 520 0 
DWIDTH 14 0
BBX 14 14 -1 -4
BITMAP
0200
0200
0200
0200
0200
0200
FE00
0000
0000
0000
0000
0000
0000
0000
ENDCHAR
STARTCHAR U+2519
ENCODING 9497
SWIDTH 520 0 
DWIDTH 14 0
BBX 14 14 -1 -4
BITMAP
0200
0200
0200
0200
0200
FE00
FE00
0000
0000
0000
0000
0000
0000
0000
ENDCHAR
STARTCHAR U+251A
ENCODING 9498
SWIDTH 520 0 
DWIDTH 14 0
BBX 14 14 -1 -4
BITMAP
0600
0600
0600
0600
0600
0600
FE00
0000
0000
0000
0000
0000
0000
0000
ENDCHAR
STARTCHAR U+251B
ENCODING 9499
SWIDTH 520 0 
DWIDTH 14 0
BBX 14 14 -1 -4
BITMAP
0600
0600
0600
0600
0600
FE00
FE00
0000
0000
0000
0000
0000
0000
0000
ENDCHAR
STARTCHAR U+251C
ENCODING 9500
SWIDTH 520 0 
DWIDTH 14 0
BBX 14 14 -1 -4
BITMAP
0200
0200
0200
0200
0200
0200
03F8
0200
0200
0200
0200
0200
0200
0000
ENDCHAR
STARTCHAR U+251D
ENCODING 9501
SWIDTH 520 0 
DWIDTH 14 0
BBX 14 14 -1 -4
BITMAP
0200
0200
0200
0200
0200
03F8
03F8
0200
0200
0200
0200
0200
0200
0000
ENDCHAR
STARTCHAR U+251E
ENCODING 9502
SWIDTH 520 0 
DWIDTH 14 0
BBX 14 14 -1 -4
BITMAP
0600
0600
0600
0600
0600
0600
07F8
0200
0200
0200
0200
0200
0200
0000
ENDCHAR
STARTCHAR U+251F
ENCODING 9503
SWIDTH 520 0 
DWIDTH 14 0
BBX 14 14 -1 -4
BITMAP
0200
0200
0200
0200
0200
0200
07F8
0600
0600
0600
0600
0600
0600
0000
ENDCHAR
STARTCHAR U+2520
ENCODING 9504
SWIDTH 520 0 
DWIDTH 14 0
BBX 14 14 -1 -4
BITMAP
0600
0600
0600
0600
0600
0600
07F8
0600
0600
0600
0600
0600
0600
0000
ENDCHAR
STARTCHAR U+2521
ENCODING 9505
SWIDTH 520 0 
DWIDTH 14 0
BBX 14 14 -1 -4
BITMAP
0600
0600
0600
0600
0600
07F8
07F8
0200
0200
0200
0200
0200
0200
0000
ENDCHAR
STARTCHAR U+2522
ENCODING 9506
SWIDTH 520 0 
DWIDTH 14 0
BBX 14 14 -1 -4
BITMAP
0200
0200
0200
0200
0200
07F8
07F8
0600
0600
0600
0600
0600
0600
0000
ENDCHAR
STARTCHAR U+2523
ENCODING 9507
SWIDTH 520 0 
DWIDTH 14 0
BBX 14 14 -1 -4
BITMAP
0600
0600
0600
0600
0600
07F8
07F8
0600
0600
0600
0600
0600
0600
0000
ENDCHAR
STARTCHAR U+2524
ENCODING 9508
SWIDTH 520 0 
DWIDTH 14 0
BBX 14 14 -1 -4
BITMAP
0200
0200
0200
0200
0200
0200
FE00
0200
0200
0200
0200
0200
0200
0000
ENDCHAR
STARTCHAR U+2525
ENCODING 9509
SWIDTH 520 0 
DWIDTH 14 0
BBX 14 14 -1 -4
BITMAP
0200
0200
0200
0200
0200
FE00
FE00
0200
0200
0200
0200
0200
0200
0000
ENDCHAR
STARTCHAR U+2526
ENCODING 9510
SWIDTH 520 0 
DWIDTH 14 0
BBX 14 14 -1 -4
BITMAP
0600
0600
0600
0600
0600
0600
FE00
0200
0200
0200
0200
0200
0200
0000
ENDCHAR
STARTCHAR U+2527
ENCODING 9511
SWIDTH 520 0 
DWIDTH 14 0
BBX 14 14 -1 -4
BITMAP
0200
0200
0200
0200
0200
0200
FE00
0600
0600
0600
0600
0600
0600
0000
ENDCHAR
STARTCHAR U+2528
ENCODING 9512
SWIDTH 520 0 
DWIDTH 14 0
BBX 14 14 -1 -4
BITMAP
0600
0600
0600
0600
0600
0600
FE00
0600
0600
0600
0600
0600
0600
0000
ENDCHAR
STARTCHAR U+2529
ENCODING 9513
SWIDTH 520 0 
DWIDTH 14 0
BBX 14 14 -1 -4
BITMAP
0600
0600
0600
0600
0600
FE00
FE00
0200
0200
0200
0200
0200
0200
0000
ENDCHAR
STARTCHAR U+252A
ENCODING 9514
SWIDTH 520 0 
DWIDTH 14 0
BBX 14 14 -1 -4
BITMAP
0200
0200
0200
0200
0200
FE00
FE00
0600
0600
0600
0600
0600
0600
0000
ENDCHAR
STARTCHAR U+252B
ENCODING 9515
SWIDTH 520 0 
DWIDTH 14 0
BBX 14 14 -1 -4
BITMAP
0600
0600
0600
0600
0600
FE00
FE00
0600
0600
0600
0600
0600
0600
0000
ENDCHAR
STARTCHAR U+252C
ENCODING 9516
SWIDTH 520 0 
DWIDTH 14 0
BBX 14 14 -1 -4
BITMAP
0000
0000
0000
0000
0000
0000
FFF8
0200
0200
0200
0200
0200
0200
0000
ENDCHAR
STARTCHAR U+252D
ENCODING 9517
SWIDTH 520 0 
DWIDTH 14 0
BBX 14 14 -1 -4
BITMAP
0000
0000
0000
0000
0000
FE00
FFF8
0200
0200
0200
0200
0200
0200
0000
ENDCHAR
STARTCHAR U+252E
ENCODING 9518
SWIDTH 520 0 
DWIDTH 14 0
BBX 14 14 -1 -4
BITMAP
0000
0000
0000
0000
0000
03F8
FFF8
0200
0200
0200
0200
0200
0200
0000
ENDCHAR
STARTCHAR U+252F
ENCODING 9519
SWIDTH 520 0 
DWIDTH 14 0
BBX 14 14 -1 -4
BITMAP
0000
0000
0000
0000
0000
FFF8
FFF8
0200
0200
0200
0200
0200
0200
0000
ENDCHAR
STARTCHAR U+2530
ENCODING 9520
SWIDTH 520 0 
DWIDTH 14 0
BBX 14 14 -1 -4
BITMAP
0000
0000
0000
0000
0000
0000
FFF8
0600
0600
0600
0600
0600
0600
0000
ENDCHAR
STARTCHAR U+2531
ENCODING 9521
SWIDTH 520 0 
DWIDTH 14 0
BBX 14 14 -1 -4
BITMAP
0000
0000
0000
0000
0000
FE00
FFF8
0600
0600
0600
0600
0600
0600
0000
ENDCHAR
STARTCHAR U+2532
ENCODING 9522
SWIDTH 520 0 
DWIDTH 14 0
BBX 14 14 -1 -4
BITMAP
0000
0000
0000
0000
0000
07F8
FFF8
0600
0600
0600
0600
0600
0600
0000
ENDCHAR
STARTCHAR U+2533
ENCODING 9523
SWIDTH 520 0 
DWIDTH 14 0
BBX 14 14 -1 -4
BITMAP
0000
0000
0000
0000
0000
FFF8
FFF8
0600
0600
0600
0600
0600
0600
0000
ENDCHAR
STARTCHAR U+2534
ENCODING 9524
SWIDTH 520 0 
DWIDTH 14 0
BBX 14 14 -1 -4
BITMAP
0200
0200
0200
0200
0200
0200
FFF8
0000
0000
0000
0000
0000
0000
0000
ENDCHAR
STARTCHAR U+2535
ENCODING 9525
SWIDTH 520 0 
DWIDTH 14 0
BBX 14 14 -1 -4
BITMAP
0200
0200
0200
0200
0200
FE00
FFF8
0000
0000
0000
0000
0000
0000
0000
ENDCHAR
STARTCHAR U+2536
ENCODING 9526
SWIDTH 520 0 
DWIDTH 14 0
BBX 14 14 -1 -4
BITMAP
0200
0200
0200
0200
0200
03F8
FFF8
0000
0000
0000
0000
0000
0000
0000
ENDCHAR
STARTCHAR U+2537
ENCODING 9527
SWIDTH 520 0 
DWIDTH 14 0
BBX 14 14 -1 -4
BITMAP
0200
0200
0200
0200
0200
FFF8
FFF8
0000
0000
0000
0000
0000
0000
0000
ENDCHAR
STARTCHAR U+2538
ENCODING 9528
SWIDTH 520 0 
DWIDTH 14 0
BBX 14 14 -1 -4
BITMAP
0600
0600
0600
0600
0600
0600
FFF8
0000
0000
0000
0000
0000
0000
0000
ENDCHAR
STARTCHAR U+2539
ENCODING 9529
SWIDTH 520 0 
DWIDTH 14 0
BBX 14 14 -1 -4
BITMAP
0600
0600
0600
0600
0600
FE00
FFF8
0000
0000
0000
0000
0000
0000
0000
ENDCHAR
STARTCHAR U+253A
ENCODING 9530
SWIDTH 520 0 
DWIDTH 14 0
BBX 14 14 -1 -4
BITMAP
0600
0600
0600
0600
0600
07F8
FFF8
0000
0000
0000
0000
0000
0000
0000
ENDCHAR
STARTCHAR U+253B
ENCODING 9531
SWIDTH 520 0 
DWIDTH 14 0
BBX 14 14 -1 -4
BITMAP
0600
0600
0600
0600
0600
FFF8
FFF8
0000
0000
0000
0000
0000
0000
0000
ENDCHAR
STARTCHAR U+253C
ENCODING 9532
SWIDTH 520 0 
DWIDTH 14 0
BBX 14 14 -1 -4
BITMAP
0200
0200
0200
0200
0200
0200
FFF8
0200
0200
0200
0200
0200
0200
0000
ENDCHAR
STARTCHAR U+253D
ENCODING 9533
SWIDTH 520 0 
DWIDTH 14 0
BBX 14 14 -1 -4
BITMAP
0200
0200
0200
0200
0200
FE00
FFF8
0200
0200
0200
0200
0200
0200
0000
ENDCHAR
STARTCHAR U+253E
ENCODING 9534
SWIDTH 520 0 
DWIDTH 14 0
BBX 14 14 -1 -4
BITMAP
0200
0200
0200
0200
0200
03F8
FFF8
0200
0200
0200
0200
0200
0200
0000
ENDCHAR
STARTCHAR U+253F
ENCODING 9535
SWIDTH 520 0 
DWIDTH 14 0
BBX 14 14 -1 -4
BITMAP
0200
0200
0200
0200
0200
FFF8
FFF8
0200
0200
0200
0200
0200
0200
0000
ENDCHAR
STARTCHAR U+2540
ENCODING 9536
SWIDTH 520 0 
DWIDTH 14 0
BBX 14 14 -1 -4
BITMAP
0600
0600
0600
0600
0600
0600
FFF8
0200
0200
0200
0200
0200
0200
0000
ENDCHAR
STARTCHAR U+2541
ENCODING 9537
SWIDTH 520 0 
DWIDTH 14 0
BBX 14 14 -1 -4
BITMAP
0200
0200
0200
0200
0200
0200
FFF8
0600
0600
0600
0600
0600
0600
0000
ENDCHAR
STARTCHAR U+2542
ENCODING 9538
SWIDTH 520 0 
DWIDTH 14 0
BBX 14 14 -1 -4
BITMAP
0600
0600
0600
0600
0600
0600
FFF8
0600
0600
0600
0600
0600
0600
0000
ENDCHAR
STARTCHAR U+2543
ENCODING 9539
SWIDTH 520 0 
DWIDTH 14 0
BBX 14 14 -1 -4
BITMAP
0600
0600
0600
0600
0600
FE00
FFF8
0200
0200
0200
0200
0200
0200
0000
ENDCHAR
STARTCHAR U+2544
ENCODING 9540
SWIDTH 520 0 
DWIDTH 14 0
BBX 14 14 -1 -4
BITMAP
0600
0600
0600
0600
0600
07F8
FFF8
0200
0200
0200
0200
0200
0200
0000
ENDCHAR
STARTCHAR U+2545
ENCODING 9541
SWIDTH 520 0 
DWIDTH 14 0
BBX 14 14 -1 -4
BITMAP
0200
0200
0200
0200
0200
FE00
FFF8
0600
0600
0600
0600
0600
0600
0000
ENDCHAR
STARTCHAR U+2546
ENCODING 9542
SWIDTH 520 0 
DWIDTH 14 0
BBX 14 14 -1 -4
BITMAP
0200
0200
0200
0200
0200
03F8
FFF8
0600
0600
0600
0600
0600
0600
0000
ENDCHAR
STARTCHAR U+2547
ENCODING 9543
SWIDTH 520 0 
DWIDTH 14 0
BBX 14 14 -1 -4
BITMAP
0600
0600
0600
0600
0600
FFF8
FFF8
0200
0200
0200
0200
0200
0200
0000
ENDCHAR
STARTCHAR U+2548
ENCODING 9544
SWIDTH 520 0 
DWIDTH 14 0
BBX 14 14 -1 -4
BITMAP
0200
0200
0200
0200
0200
FFF8
FFF8
0600
0600
0600
0600
0600
0600
0000
ENDCHAR
STARTCHAR U+2549
ENCODING 9545
SWIDTH 520 0 
DWIDTH 14 0
BBX 14 14 -1 -4
BITMAP
0600
0600
0600
0600
0600
FE00
FFF8
0600
0600
0600
0600
0600
0600
0000
ENDCHAR
STARTCHAR U+254A
ENCODING 9546
SWIDTH 520 0 
DWIDTH 14 0
BBX 14 14 -1 -4
BITMAP
0600
0600
0600
0600
0600
07F8
FFF8
0600
0600
0600
0600
0600
0600
0000
ENDCHAR
STARTCHAR U+254B
ENCODING 9547
SWIDTH 520 0 
DWIDTH 14 0
BBX 14 14 -1 -4
BITMAP
0600
0600
0600
0600
0600
FFF8
FFF8
0600
0600
0600
0600
0600
0600
0000
ENDCHAR
STARTCHAR U+25A0
ENCODING 9632
SWIDTH 520 0 
DWIDTH 14 0
BBX 14 14 -1 -4
BITMAP
0000
7FE0
7FE0
7FE0
7FE0
7FE0
7FE0
7FE0
7FE0
7FE0
7FE0
0000
0000
0000
ENDCHAR
STARTCHAR U+25A1
ENCODING 9633
SWIDTH 520 0 
DWIDTH 14 0
BBX 14 14 -1 -4
BITMAP
0000
7FE0
4020
4020
4020
4020
4020
4020
4020
4020
7FE0
0000
0000
0000
ENDCHAR
STARTCHAR U+25B2
ENCODING 9650
SWIDTH 520 0 
DWIDTH 14 0
BBX 14 14 -1 -4
BITMAP
0000
0200
0200
0700
0700
0F80
0F80
1FC0
1FC0
3FE0
3FE0
0000
0000
0000
ENDCHAR
STARTCHAR U+25B3
ENCODING 9651
SWIDTH 520 0 
DWIDTH 14 0
BBX 14 14 -1 -4
BITMAP
0000
0200
0200
0500
0500
0880
0880
1040
1040
2020
3FE0
0000
0000
0000
ENDCHAR
STARTCHAR U+25C6
ENCODING 9670
SWIDTH 520 0 
DWIDTH 14 0
BBX 14 14 -1 -4
BITMAP
0000
0200
0700
0F80
1FC0
3FE0
7FF0
3FE0
1FC0
0F80
0700
0200
0000
0000
ENDCHAR
STARTCHAR U+25C7
ENCODING 9671
SWIDTH 520 0 
DWIDTH 14 0
BBX 14 14 -1 -4
BITMAP
0000
0200
0500
0880
1040
2020
4010
2020
1040
0880
0500
0200
0000
0000
ENDCHAR
STARTCHAR U+25CB
ENCODING 9675
SWIDTH 520 0 
DWIDTH 14 0
BBX 14 14 -1 -4
BITMAP
0000
1F80
2040
4020
4020
4020
4020
4020
4020
2040
1F80
0000
0000
0000
ENDCHAR
STARTCHAR U+25CE
ENCODING 9678
SWIDTH 520 0 
DWIDTH 14 0
BBX 14 14 -1 -4
BITMAP
0000
1F80
2040
4F20
50A0
50A0
50A0
50A0
4F20
2040
1F80
0000
0000
0000
ENDCHAR
STARTCHAR U+25CF
ENCODING 9679
SWIDTH 520 0 
DWIDTH 14 0
BBX 14 14 -1 -4
BITMAP
0000
1F80
3FC0
7FE0
7FE0
7FE0
7FE0
7FE0
7FE0
3FC0
1F80
0000
0000
0000
ENDCHAR
STARTCHAR U+2605
ENCODING 9733
SWIDTH 520 0 
DWIDTH 14 0
BBX 14 14 -1 -4
BITMAP
0200
0200
0700
0700
7FF0
3FE0
1FC0
0F80
0F80
1DC0
18C0
2020
0000
0000
ENDCHAR
STARTCHAR U+2606
ENCODING 9734
SWIDTH 520 0 
DWIDTH 14 0
BBX 14 14 -1 -4
BITMAP
0200
0200
0500
0500
78F0
2020
1040
0880
0A80
1540
18C0
1040
0000
0000
ENDCHAR
STARTCHAR U+2640
ENCODING 9792
SWIDTH 520 0 
DWIDTH 14 0
BBX 14 14 -1 -4
BITMAP
0000
0700
0880
0880
0880
0700
0200
1FC0
0200
0200
0200
0000
0000
0000
ENDCHAR
STARTCHAR U+2642
ENCODING 9794
SWIDTH 520 0 
DWIDTH 14 0
BBX 14 14 -1 -4
BITMAP
0200
0200
0700
0A80
0200
0200
0700
0880
0880
0880
0700
0000
0000
0000
ENDCHAR
STARTCHAR U+3000
ENCODING 12288
SWIDTH 520 0 
DWIDTH 14 0
BBX 14 14 -1 -4
BITMAP
0000
0000
0000
0000
0000
0000
0000
0000
0000
0000
0000
0000
0000
0000
ENDCHAR
STARTCHAR U+3001
ENCODING 12289
SWIDTH 520 0 
DWIDTH 14 0
BBX 14 14 -1 -4
BITMAP
0000
0000
0000
0000
0000
0000
0000
0000
4000
3000
1000
0000
0000
0000
ENDCHAR
STARTCHAR U+3002
ENCODING 12290
SWIDTH 520 0 
DWIDTH 14 0
BBX 14 14 -1 -4
BITMAP
0000
0000
0000
0000
0000
0000
0000
3000
4800
4800
3000
0000
0000
0000
ENDCHAR
STARTCHAR U+3003
ENCODING 12291
SWIDTH 520 0 
DWIDTH 14 0
BBX 14 14 -1 -4
BITMAP
0000
0000
0000
0000
0500
0500
0A00
0A00
0000
0000
0000
0000
0000
0000
ENDCHAR
STARTCHAR U+3005
ENCODING 12293
SWIDTH 520 0 
DWIDTH 14 0
BBX 14 14 -1 -4
BITMAP
0000
0400
0400
0980
0E80
1080
0100
0500
0200
0100
0000
0000
0000
0000
ENDCHAR
STARTCHAR U+3008
ENCODING 12296
SWIDTH 520 0 
DWIDTH 14 0
BBX 14 14 -1 -4
BITMAP
0000
0020
0020
0040
0040
0080
0080
0040
0040
0020
0020
0000
0000
0000
ENDCHAR
STARTCHAR U+3009
ENCODING 12297
SWIDTH 520 0 
DWIDTH 14 0
BBX 14 14 -1 -4
BITMAP
0000
4000
4000
2000
2000
1000
1000
2000
2000
4000
4000
0000
0000
0000
ENDCHAR
STARTCHAR U+300A
ENCODING 12298
SWIDTH 520 0 
DWIDTH 14 0
BBX 14 14 -1 -4
BITMAP
0000
00A0
00A0
0140
0140
0280
0280
0140
0140
00A0
00A0
0000
0000
0000
ENDCHAR
STARTCHAR U+300B
ENCODING 12299
SWIDTH 520 0 
DWIDTH 14 0
BBX 14 14 -1 -4
BITMAP
0000
5000
5000
2800
2800
1400
1400
2800
2800
5000
5000
0000
0000
0000
ENDCHAR
STARTCHAR U+300C
ENCODING 12300
SWIDTH 520 0 
DWIDTH 14 0
BBX 14 14 -1 -4
BITMAP
01E0
0100
0100
0100
0100
0100
0100
0100
0100
0100
0100
0100
0000
0000
ENDCHAR
STARTCHAR U+300D
ENCODING 12301
SWIDTH 520 0 
DWIDTH 14 0
BBX 14 14 -1 -4
BITMAP
0800
0800
0800
0800
0800
0800
0800
0800
0800
0800
0800
7800
0000
0000
ENDCHAR
STARTCHAR U+300E
ENCODING 12302
SWIDTH 520 0 
DWIDTH 14 0
BBX 14 14 -1 -4
BITMAP
01E0
0120
0160
0140
0140
0140
0140
0140
0140
0140
0140
01C0
0000
0000
ENDCHAR
STARTCHAR U+300F
ENCODING 12303
SWIDTH 520 0 
DWIDTH 14 0
BBX 14 14 -1 -4
BITMAP
3800
2800
2800
2800
2800
2800
2800
2800
2800
6800
4800
7800
0000
0000
ENDCHAR
STARTCHAR U+3010
ENCODING 12304
SWIDTH 520 0 
DWIDTH 14 0
BBX 14 14 -1 -4
BITMAP
03E0
03C0
0380
0380
0300
0300
0300
0300
0380
0380
03C0
03E0
0000
0000
ENDCHAR
STARTCHAR U+3011
ENCODING 12305
SWIDTH 520 0 
DWIDTH 14 0
BBX 14 14 -1 -4
BITMAP
7C00
3C00
1C00
1C00
0C00
0C00
0C00
0C00
1C00
1C00
3C00
7C00
0000
0000
ENDCHAR
STARTCHAR U+3013
ENCODING 12307
SWIDTH 520 0 
DWIDTH 14 0
BBX 14 14 -1 -4
BITMAP
0000
FFF0
FFF0
FFF0
0000
0000
0000
0000
FFF0
FFF0
FFF0
0000
0000
0000
ENDCHAR
STARTCHAR U+3014
ENCODING 12308
SWIDTH 520 0 
DWIDTH 14 0
BBX 14 14 -1 -4
BITMAP
0020
0040
0080
0080
0080
0080
0080
0080
0080
0080
0040
0020
0000
0000
ENDCHAR
STARTCHAR U+3015
ENCODING 12309
SWIDTH 520 0 
DWIDTH 14 0
BBX 14 14 -1 -4
BITMAP
4000
2000
1000
1000
1000
1000
1000
1000
1000
1000
2000
4000
0000
0000
ENDCHAR
STARTCHAR U+3016
ENCODING 12310
SWIDTH 520 0 
DWIDTH 14 0
BBX 14 14 -1 -4
BITMAP
07E0
0440
0480
0480
0500
0500
0500
0500
0480
0480
0440
07E0
0000
0000
ENDCHAR
STARTCHAR U+3017
ENCODING 12311
SWIDTH 520 0 
DWIDTH 14 0
BBX 14 14 -1 -4
BITMAP
7E00
2200
1200
1200
0A00
0A00
0A00
0A00
1200
1200
2200
7E00
0000
0000
ENDCHAR
STARTCHAR U+3041
ENCODING 12353
SWIDTH 520 0 
DWIDTH 14 0
BBX 14 14 -1 -4
BITMAP
0000
0400
0E00
0400
0F00
1A80
1480
1B00
0000
0000
0000
0000
0000
0000
ENDCHAR
STARTCHAR U+3042
ENCODING 12354
SWIDTH 520 0 
DWIDTH 14 0
BBX 14 14 -1 -4
BITMAP
0000
0400
0600
1800
0A00
0F80
1A40
2440
2C80
1100
0000
0000
0000
0000
ENDCHAR
STARTCHAR U+3043
ENCODING 12355
SWIDTH 520 0 
DWIDTH 14 0
BBX 14 14 -1 -4
BITMAP
0000
0000
0000
1100
1080
1180
1400
1800
0800
0000
0000
0000
0000
0000
ENDCHAR
STARTCHAR U+3044
ENCODING 12356
SWIDTH 520 0 
DWIDTH 14 0
BBX 14 14 -1 -4
BITMAP
0000
0000
2000
1180
1040
10C0
1400
1800
0800
0000
0000
0000
0000
0000
ENDCHAR
STARTCHAR U+3045
ENCODING 12357
SWIDTH 520 0 
DWIDTH 14 0
BBX 14 14 -1 -4
BITMAP
0000
0400
0200
0400
0300
0D00
0100
0100
0200
0400
0000
0000
0000
0000
ENDCHAR
STARTCHAR U+3046
ENCODING 12358
SWIDTH 520 0 
DWIDTH 14 0
BBX 14 14 -1 -4
BITMAP
0000
0400
0200
0200
0500
1900
0100
0100
0100
0200
0400
0000
0000
0000
ENDCHAR
STARTCHAR U+3047
ENCODING 12359
SWIDTH 520 0 
DWIDTH 14 0
BBX 14 14 -1 -4
BITMAP
0000
0400
0200
0400
0E00
0200
0400
0A00
1380
0000
0000
0000
0000
0000
ENDCHAR
STARTCHAR U+3048
ENCODING 12360
SWIDTH 520 0 
DWIDTH 14 0
BBX 14 14 -1 -4
BITMAP
0000
0800
0600
0000
0E00
0200
0400
0A00
1200
1380
0000
0000
0000
0000
ENDCHAR
STARTCHAR U+3049
ENCODING 12361
SWIDTH 520 0 
DWIDTH 14 0
BBX 14 14 -1 -4
BITMAP
0000
0000
0800
0D80
1840
0F00
0880
1880
0B00
0000
0000
0000
0000
0000
ENDCHAR
STARTCHAR U+304A
ENCODING 12362
SWIDTH 520 0 
DWIDTH 14 0
BBX 14 14 -1 -4
BITMAP
0000
0000
0800
0CC0
3860
0F80
1840
2840
1B80
0000
0000
0000
0000
0000
ENDCHAR
STARTCHAR U+304B
ENCODING 12363
SWIDTH 520 0 
DWIDTH 14 0
BBX 14 14 -1 -4
BITMAP
0000
0000
0400
0400
0640
3920
0960
1200
2600
0000
0000
0000
0000
0000
ENDCHAR
STARTCHAR U+304C
ENCODING 12364
SWIDTH 520 0 
DWIDTH 14 0
BBX 14 14 -1 -4
BITMAP
0000
0480
0440
0680
3A40
0AC0
1200
1200
2C00
0000
0000
0000
0000
0000
ENDCHAR
STARTCHAR U+304D
ENCODING 12365
SWIDTH 520 0 
DWIDTH 14 0
BBX 14 14 -1 -4
BITMAP
0000
0800
0600
1C00
0380
1D00
0F80
1000
1000
0F00
0000
0000
0000
0000
ENDCHAR
STARTCHAR U+304E
ENCODING 12366
SWIDTH 520 0 
DWIDTH 14 0
BBX 14 14 -1 -4
BITMAP
0000
0000
0AA0
3C50
0700
3A00
0F00
1000
1000
0F00
0000
0000
0000
0000
ENDCHAR
STARTCHAR U+304F
ENCODING 12367
SWIDTH 520 0 
DWIDTH 14 0
BBX 14 14 -1 -4
BITMAP
0000
0200
0200
0400
0400
0800
0800
0400
0200
0200
0000
0000
0000
0000
ENDCHAR
STARTCHAR U+3050
ENCODING 12368
SWIDTH 520 0 
DWIDTH 14 0
BBX 14 14 -1 -4
BITMAP
0000
0400
0540
08A0
0800
1000
1000
0800
0400
0200
0000
0000
0000
0000
ENDCHAR
STARTCHAR U+3051
ENCODING 12369
SWIDTH 520 0 
DWIDTH 14 0
BBX 14 14 -1 -4
BITMAP
0000
1100
1100
11C0
2700
2100
2900
1100
1100
0200
0000
0000
0000
0000
ENDCHAR
STARTCHAR U+3052
ENCODING 12370
SWIDTH 520 0 
DWIDTH 14 0
BBX 14 14 -1 -4
BITMAP
0000
0250
2220
23C0
4E00
4200
5200
3200
2200
0400
0800
0000
0000
0000
ENDCHAR
STARTCHAR U+3053
ENCODING 12371
SWIDTH 520 0 
DWIDTH 14 0
BBX 14 14 -1 -4
BITMAP
0000
0800
0780
0200
0000
0000
0000
2000
1080
0F00
0000
0000
0000
0000
ENDCHAR
STARTCHAR U+3054
ENCODING 12372
SWIDTH 520 0 
DWIDTH 14 0
BBX 14 14 -1 -4
BITMAP
0000
0140
10A0
0E00
0400
0000
0000
2000
2080
1F00
0000
0000
0000
0000
ENDCHAR
STARTCHAR U+3055
ENCODING 12373
SWIDTH 520 0 
DWIDTH 14 0
BBX 14 14 -1 -4
BITMAP
0000
0800
0900
0600
3A00
0F00
1080
1000
1000
0F00
0000
0000
0000
0000
ENDCHAR
STARTCHAR U+3056
ENCODING 12374
SWIDTH 520 0 
DWIDTH 14 0
BBX 14 14 -1 -4
BITMAP
0000
1800
12A0
0C40
3200
0100
1F00
1000
1000
0E00
0000
0000
0000
0000
ENDCHAR
STARTCHAR U+3057
ENCODING 12375
SWIDTH 520 0 
DWIDTH 14 0
BBX 14 14 -1 -4
BITMAP
0000
1800
0800
0800
0800
0800
0840
0880
0900
0600
0000
0000
0000
0000
ENDCHAR
STARTCHAR U+3058
ENCODING 12376
SWIDTH 520 0 
DWIDTH 14 0
BBX 14 14 -1 -4
BITMAP
0000
1000
1280
1140
1000
1000
1080
1100
1200
0C00
0000
0000
0000
0000
ENDCHAR
STARTCHAR U+3059
ENCODING 12377
SWIDTH 520 0 
DWIDTH 14 0
BBX 14 14 -1 -4
BITMAP
0000
0200
0200
03C0
3E00
0A00
0A00
0600
0200
0400
0800
0000
0000
0000
ENDCHAR
STARTCHAR U+305A
ENCODING 12378
SWIDTH 520 0 
DWIDTH 14 0
BBX 14 14 -1 -4
BITMAP
0000
0450
0420
07C0
7C00
0600
0A00
0A00
0600
0400
0800
0000
0000
0000
ENDCHAR
STARTCHAR U+305B
ENCODING 12379
SWIDTH 520 0 
DWIDTH 14 0
BBX 14 14 -1 -4
BITMAP
0000
0100
0100
0900
0FC0
3900
0B00
0800
0780
0000
0000
0000
0000
0000
ENDCHAR
STARTCHAR U+305C
ENCODING 12380
SWIDTH 520 0 
DWIDTH 14 0
BBX 14 14 -1 -4
BITMAP
0000
0100
0150
0920
0FC0
3900
0B00
0800
0780
0000
0000
0000
0000
0000
ENDCHAR
STARTCHAR U+305D
ENCODING 12381
SWIDTH 520 0 
DWIDTH 14 0
BBX 14 14 -1 -4
BITMAP
0000
0700
1A00
0400
09C0
1E00
3400
0400
0400
0700
0000
0000
0000
0000
ENDCHAR
STARTCHAR U+305E
ENCODING 12382
SWIDTH 520 0 
DWIDTH 14 0
BBX 14 14 -1 -4
BITMAP
0000
0700
1A20
0440
0B80
3C00
0400
0800
0800
0700
0000
0000
0000
0000
ENDCHAR
STARTCHAR U+305F
ENCODING 12383
SWIDTH 520 0 
DWIDTH 14 0
BBX 14 14 -1 -4
BITMAP
0000
0400
0400
0600
1980
08C0
1000
1000
2400
0380
0000
0000
0000
0000
ENDCHAR
STARTCHAR U+3060
ENCODING 12384
SWIDTH 520 0 
DWIDTH 14 0
BBX 14 14 -1 -4
BITMAP
0000
0800
0850
0C20
31C0
1080
1000
2400
2400
0380
0000
0000
0000
0000
ENDCHAR
STARTCHAR U+3061
ENCODING 12385
SWIDTH 520 0 
DWIDTH 14 0
BBX 14 14 -1 -4
BITMAP
0000
0400
0400
0600
1800
0B80
0C40
1040
0080
0300
0000
0000
0000
0000
ENDCHAR
STARTCHAR U+3062
ENCODING 12386
SWIDTH 520 0 
DWIDTH 14 0
BBX 14 14 -1 -4
BITMAP
0000
0800
0940
1EA0
0800
1700
1880
1080
0080
0700
0000
0000
0000
0000
ENDCHAR
STARTCHAR U+3063
ENCODING 12387
SWIDTH 520 0 
DWIDTH 14 0
BBX 14 14 -1 -4
BITMAP
0000
0000
0000
0700
3880
0080
0100
0600
0000
0000
0000
0000
0000
0000
ENDCHAR
STARTCHAR U+3064
ENCODING 12388
SWIDTH 520 0 
DWIDTH 14 0
BBX 14 14 -1 -4
BITMAP
0000
0000
0000
0F80
3040
0040
0040
0180
0600
0000
0000
0000
0000
0000
ENDCHAR
STARTCHAR U+3065
ENCODING 12389
SWIDTH 520 0 
DWIDTH 14 0
BBX 14 14 -1 -4
BITMAP
0000
0000
0050
0720
7880
0040
0040
0080
0300
0C00
0000
0000
0000
0000
ENDCHAR
STARTCHAR U+3066
ENCODING 12390
SWIDTH 520 0 
DWIDTH 14 0
BBX 14 14 -1 -4
BITMAP
0000
0000
01C0
3E00
0400
0800
0800
0800
0600
0180
0000
0000
0000
0000
ENDCHAR
STARTCHAR U+3067
ENCODING 12391
SWIDTH 520 0 
DWIDTH 14 0
BBX 14 14 -1 -4
BITMAP
0000
0000
0180
0E00
34A0
0840
0800
0800
0400
0300
0000
0000
0000
0000
ENDCHAR
STARTCHAR U+3068
ENCODING 12392
SWIDTH 520 0 
DWIDTH 14 0
BBX 14 14 -1 -4
BITMAP
0000
0400
0400
0400
0700
0C00
1000
1000
0F80
0000
0000
0000
0000
0000
ENDCHAR
STARTCHAR U+3069
ENCODING 12393
SWIDTH 520 0 
DWIDTH 14 0
BBX 14 14 -1 -4
BITMAP
0000
0C00
0400
04A0
0740
0800
1000
1000
1080
0F00
0000
0000
0000
0000
ENDCHAR
STARTCHAR U+306A
ENCODING 12394
SWIDTH 520 0 
DWIDTH 14 0
BBX 14 14 -1 -4
BITMAP
0000
0800
0C00
3880
1180
1200
2200
0F00
1280
0C00
0000
0000
0000
0000
ENDCHAR
STARTCHAR U+306B
ENCODING 12395
SWIDTH 520 0 
DWIDTH 14 0
BBX 14 14 -1 -4
BITMAP
0000
1000
1780
1100
2000
2000
2400
13C0
1000
0000
0000
0000
0000
0000
ENDCHAR
STARTCHAR U+306C
ENCODING 12396
SWIDTH 520 0 
DWIDTH 14 0
BBX 14 14 -1 -4
BITMAP
0000
0400
0780
2C40
1440
1440
3540
2A80
3340
0000
0000
0000
0000
0000
ENDCHAR
STARTCHAR U+306D
ENCODING 12397
SWIDTH 520 0 
DWIDTH 14 0
BBX 14 14 -1 -4
BITMAP
0000
0800
0B80
1C80
0880
1880
2B80
3C80
0B40
0000
0000
0000
0000
0000
ENDCHAR
STARTCHAR U+306E
ENCODING 12398
SWIDTH 520 0 
DWIDTH 14 0
BBX 14 14 -1 -4
BITMAP
0000
0000
0F80
1440
2440
2840
2840
1080
0300
0000
0000
0000
0000
0000
ENDCHAR
STARTCHAR U+306F
ENCODING 12399
SWIDTH 520 0 
DWIDTH 14 0
BBX 14 14 -1 -4
BITMAP
0000
0000
1100
11C0
2700
2100
2900
3780
1540
0200
0000
0000
0000
0000
ENDCHAR
STARTCHAR U+3070
ENCODING 12400
SWIDTH 520 0 
DWIDTH 14 0
BBX 14 14 -1 -4
BITMAP
0000
0050
1220
1380
2700
2100
2100
3700
2A80
0400
0000
0000
0000
0000
ENDCHAR
STARTCHAR U+3071
ENCODING 12401
SWIDTH 520 0 
DWIDTH 14 0
BBX 14 14 -1 -4
BITMAP
0000
0060
2160
2180
2700
2100
2100
3780
2940
0600
0000
0000
0000
0000
ENDCHAR
STARTCHAR U+3072
ENCODING 12402
SWIDTH 520 0 
DWIDTH 14 0
BBX 14 14 -1 -4
BITMAP
0000
0000
3900
0980
1140
2100
2100
2200
2200
1C00
0000
0000
0000
0000
ENDCHAR
STARTCHAR U+3073
ENCODING 12403
SWIDTH 520 0 
DWIDTH 14 0
BBX 14 14 -1 -4
BITMAP
0000
0000
1950
6920
1180
2140
2100
2200
2200
1C00
0000
0000
0000
0000
ENDCHAR
STARTCHAR U+3074
ENCODING 12404
SWIDTH 520 0 
DWIDTH 14 0
BBX 14 14 -1 -4
BITMAP
0000
0060
1960
2900
1180
2140
2100
2100
2200
1C00
0000
0000
0000
0000
ENDCHAR
STARTCHAR U+3075
ENCODING 12405
SWIDTH 520 0 
DWIDTH 14 0
BBX 14 14 -1 -4
BITMAP
0000
0800
0400
0400
0800
0580
0A40
12C0
6A00
0400
0000
0000
0000
0000
ENDCHAR
STARTCHAR U+3076
ENCODING 12406
SWIDTH 520 0 
DWIDTH 14 0
BBX 14 14 -1 -4
BITMAP
0000
0800
06A0
0440
0400
0580
0A40
12C0
6A00
0400
0000
0000
0000
0000
ENDCHAR
STARTCHAR U+3077
ENCODING 12407
SWIDTH 520 0 
DWIDTH 14 0
BBX 14 14 -1 -4
BITMAP
0000
08C0
06C0
0400
0800
0780
0A40
12C0
6600
0000
0000
0000
0000
0000
ENDCHAR
STARTCHAR U+3078
ENCODING 12408
SWIDTH 520 0 
DWIDTH 14 0
BBX 14 14 -1 -4
BITMAP
0000
0000
0000
0C00
1200
6180
0060
0000
0000
0000
0000
0000
0000
0000
ENDCHAR
STARTCHAR U+3079
ENCODING 12409
SWIDTH 520 0 
DWIDTH 14 0
BBX 14 14 -1 -4
BITMAP
0000
0000
00A0
0040
0C00
1300
20E0
0000
0000
0000
0000
0000
0000
0000
ENDCHAR
STARTCHAR U+307A
ENCODING 12410
SWIDTH 520 0 
DWIDTH 14 0
BBX 14 14 -1 -4
BITMAP
0000
0180
0180
0000
0C00
1200
6180
0060
0000
0000
0000
0000
0000
0000
ENDCHAR
STARTCHAR U+307B
ENCODING 12411
SWIDTH 520 0 
DWIDTH 14 0
BBX 14 14 -1 -4
BITMAP
0000
0080
1300
1180
2700
2100
2900
3380
1540
0200
0000
0000
0000
0000
ENDCHAR
STARTCHAR U+307C
ENCODING 12412
SWIDTH 520 0 
DWIDTH 14 0
BBX 14 14 -1 -4
BITMAP
0000
0100
2650
2320
2600
2200
2200
2600
3B80
0400
0000
0000
0000
0000
ENDCHAR
STARTCHAR U+307D
ENCODING 12413
SWIDTH 520 0 
DWIDTH 14 0
BBX 14 14 -1 -4
BITMAP
0000
0160
2660
2380
2600
4200
4200
5700
2A80
0400
0000
0000
0000
0000
ENDCHAR
STARTCHAR U+307E
ENCODING 12414
SWIDTH 520 0 
DWIDTH 14 0
BBX 14 14 -1 -4
BITMAP
0000
0400
0500
1E00
0500
1E00
0400
1C00
2700
1800
0000
0000
0000
0000
ENDCHAR
STARTCHAR U+307F
ENCODING 12415
SWIDTH 520 0 
DWIDTH 14 0
BBX 14 14 -1 -4
BITMAP
0000
0400
1C00
0500
0900
1F80
2940
3200
0400
0000
0000
0000
0000
0000
ENDCHAR
STARTCHAR U+3080
ENCODING 12416
SWIDTH 520 0 
DWIDTH 14 0
BBX 14 14 -1 -4
BITMAP
0000
1000
1C00
3080
1940
2900
3100
1100
1100
0E00
0000
0000
0000
0000
ENDCHAR
STARTCHAR U+3081
ENCODING 12417
SWIDTH 520 0 
DWIDTH 14 0
BBX 14 14 -1 -4
BITMAP
0000
0200
1200
1F00
1280
2C40
2840
3440
0080
0100
0000
0000
0000
0000
ENDCHAR
STARTCHAR U+3082
ENCODING 12418
SWIDTH 520 0 
DWIDTH 14 0
BBX 14 14 -1 -4
BITMAP
0000
0200
0A00
0400
1E00
2800
1C80
0880
0880
0700
0000
0000
0000
0000
ENDCHAR
STARTCHAR U+3083
ENCODING 12419
SWIDTH 520 0 
DWIDTH 14 0
BBX 14 14 -1 -4
BITMAP
0000
0400
0A00
1780
3880
0580
0400
0200
0200
0000
0000
0000
0000
0000
ENDCHAR
STARTCHAR U+3084
ENCODING 12420
SWIDTH 520 0 
DWIDTH 14 0
BBX 14 14 -1 -4
BITMAP
0000
0200
1E00
13C0
0C40
7840
0580
0400
0200
0200
0000
0000
0000
0000
ENDCHAR
STARTCHAR U+3085
ENCODING 12421
SWIDTH 520 0 
DWIDTH 14 0
BBX 14 14 -1 -4
BITMAP
0000
0000
1200
1780
2A80
3A80
2A80
1700
0400
0000
0000
0000
0000
0000
ENDCHAR
STARTCHAR U+3086
ENCODING 12422
SWIDTH 520 0 
DWIDTH 14 0
BBX 14 14 -1 -4
BITMAP
0000
0600
2A00
2F80
4A40
5A40
2A40
2780
0400
0800
0000
0000
0000
0000
ENDCHAR
STARTCHAR U+3087
ENCODING 12423
SWIDTH 520 0 
DWIDTH 14 0
BBX 14 14 -1 -4
BITMAP
0000
0400
0400
0780
0400
0400
0E00
1500
0900
0000
0000
0000
0000
0000
ENDCHAR
STARTCHAR U+3088
ENCODING 12424
SWIDTH 520 0 
DWIDTH 14 0
BBX 14 14 -1 -4
BITMAP
0000
0400
0400
0780
0400
0400
0400
1E00
2500
1800
0000
0000
0000
0000
ENDCHAR
STARTCHAR U+3089
ENCODING 12425
SWIDTH 520 0 
DWIDTH 14 0
BBX 14 14 -1 -4
BITMAP
0000
0800
0400
0800
1000
1700
1880
1080
0100
0200
0000
0000
0000
0000
ENDCHAR
STARTCHAR U+308A
ENCODING 12426
SWIDTH 520 0 
DWIDTH 14 0
BBX 14 14 -1 -4
BITMAP
0000
1000
0B00
0C80
0880
1880
0900
0100
0200
0400
0000
0000
0000
0000
ENDCHAR
STARTCHAR U+308B
ENCODING 12427
SWIDTH 520 0 
DWIDTH 14 0
BBX 14 14 -1 -4
BITMAP
0000
0600
0A00
0400
0800
0F00
1080
2480
0A80
0700
0000
0000
0000
0000
ENDCHAR
STARTCHAR U+308C
ENCODING 12428
SWIDTH 520 0 
DWIDTH 14 0
BBX 14 14 -1 -4
BITMAP
0000
0800
0900
3A80
0C80
0900
1900
2920
08C0
0000
0000
0000
0000
0000
ENDCHAR
STARTCHAR U+308D
ENCODING 12429
SWIDTH 520 0 
DWIDTH 14 0
BBX 14 14 -1 -4
BITMAP
0000
0700
1A00
0400
0700
0880
3080
0080
0100
0600
0000
0000
0000
0000
ENDCHAR
STARTCHAR U+308E
ENCODING 12430
SWIDTH 520 0 
DWIDTH 14 0
BBX 14 14 -1 -4
BITMAP
0000
0000
0800
1B00
0C80
0840
1840
0880
0100
0000
0000
0000
0000
0000
ENDCHAR
STARTCHAR U+308F
ENCODING 12431
SWIDTH 520 0 
DWIDTH 14 0
BBX 14 14 -1 -4
BITMAP
0000
0800
0800
1B80
0C40
0840
1840
2840
0980
0000
0000
0000
0000
0000
ENDCHAR
STARTCHAR U+3090
ENCODING 12432
SWIDTH 520 0 
DWIDTH 14 0
BBX 14 14 -1 -4
BITMAP
0000
0C00
1400
0700
0880
1840
2840
2980
1300
0000
0000
0000
0000
0000
ENDCHAR
STARTCHAR U+3091
ENCODING 12433
SWIDTH 520 0 
DWIDTH 14 0
BBX 14 14 -1 -4
BITMAP
0000
0600
0A00
0700
0880
0700
0800
1B80
2440
0080
0000
0000
0000
0000
ENDCHAR
STARTCHAR U+3092
ENCODING 12434
SWIDTH 520 0 
DWIDTH 14 0
BBX 14 14 -1 -4
BITMAP
0000
0500
1E00
0880
0D80
1200
0600
0A00
1000
0F00
0000
0000
0000
0000
ENDCHAR
STARTCHAR U+3093
ENCODING 12435
SWIDTH 520 0 
DWIDTH 14 0
BBX 14 14 -1 -4
BITMAP
0000
0800
0800
0800
0800
1600
1A40
2280
2300
0000
0000
0000
0000
0000
ENDCHAR
STARTCHAR U+30A1
ENCODING 12449
SWIDTH 520 0 
DWIDTH 14 0
BBX 14 14 -1 -4
BITMAP
0000
0000
0000
1F80
0100
0600
0400
0800
1000
0000
0000
0000
0000
0000
ENDCHAR
STARTCHAR U+30A2
ENCODING 12450
SWIDTH 520 0 
DWIDTH 14 0
BBX 14 14 -1 -4
BITMAP
0000
0180
3E80
0100
0600
0400
0400
0800
0800
0000
0000
0000
0000
0000
ENDCHAR
STARTCHAR U+30A3
ENCODING 12451
SWIDTH 520 0 
DWIDTH 14 0
BBX 14 14 -1 -4
BITMAP
0000
0200
0200
0400
0C00
1400
0400
0400
0000
0000
0000
0000
0000
0000
ENDCHAR
STARTCHAR U+30A4
ENCODING 12452
SWIDTH 520 0 
DWIDTH 14 0
BBX 14 14 -1 -4
BITMAP
0000
0100
0100
0200
0600
0A00
0200
0200
0200
0000
0000
0000
0000
0000
ENDCHAR
STARTCHAR U+30A5
ENCODING 12453
SWIDTH 520 0 
DWIDTH 14 0
BBX 14 14 -1 -4
BITMAP
0000
0200
0200
0D80
0880
0100
0200
0400
0000
0000
0000
0000
0000
0000
ENDCHAR
STARTCHAR U+30A6
ENCODING 12454
SWIDTH 520 0 
DWIDTH 14 0
BBX 14 14 -1 -4
BITMAP
0000
0400
0200
1F80
1080
1080
0100
0100
0200
0400
0000
0000
0000
0000
ENDCHAR
STARTCHAR U+30A7
ENCODING 12455
SWIDTH 520 0 
DWIDTH 14 0
BBX 14 14 -1 -4
BITMAP
0000
0000
0F00
0200
03C0
1C00
0000
0000
0000
0000
0000
0000
0000
0000
ENDCHAR
STARTCHAR U+30A8
ENCODING 12456
SWIDTH 520 0 
DWIDTH 14 0
BBX 14 14 -1 -4
BITMAP
0000
0000
0380
1E00
0200
03C0
3C00
0000
0000
0000
0000
0000
0000
0000
ENDCHAR
STARTCHAR U+30A9
ENCODING 12457
SWIDTH 520 0 
DWIDTH 14 0
BBX 14 14 -1 -4
BITMAP
0000
0200
0200
1F80
0200
0600
0A00
1200
0000
0000
0000
0000
0000
0000
ENDCHAR
STARTCHAR U+30AA
ENCODING 12458
SWIDTH 520 0 
DWIDTH 14 0
BBX 14 14 -1 -4
BITMAP
0000
0200
0200
03C0
3E00
0600
0A00
1200
2600
0000
0000
0000
0000
0000
ENDCHAR
STARTCHAR U+30AB
ENCODING 12459
SWIDTH 520 0 
DWIDTH 14 0
BBX 14 14 -1 -4
BITMAP
0000
0200
0200
0380
0C80
0480
0880
1500
2200
0000
0000
0000
0000
0000
ENDCHAR
STARTCHAR U+30AC
ENCODING 12460
SWIDTH 520 0 
DWIDTH 14 0
BBX 14 14 -1 -4
BITMAP
0000
0000
0250
0220
1F80
0480
0480
0900
1500
2200
0000
0000
0000
0000
ENDCHAR
STARTCHAR U+30AD
ENCODING 12461
SWIDTH 520 0 
DWIDTH 14 0
BBX 14 14 -1 -4
BITMAP
0000
0C00
0700
1C00
0580
0600
1A00
0200
0100
0000
0000
0000
0000
0000
ENDCHAR
STARTCHAR U+30AE
ENCODING 12462
SWIDTH 520 0 
DWIDTH 14 0
BBX 14 14 -1 -4
BITMAP
0800
04A0
0740
1C00
0780
1A00
0200
0100
0100
0000
0000
0000
0000
0000
ENDCHAR
STARTCHAR U+30AF
ENCODING 12463
SWIDTH 520 0 
DWIDTH 14 0
BBX 14 14 -1 -4
BITMAP
0000
0400
0780
0900
1100
0200
0200
0400
0800
0000
0000
0000
0000
0000
ENDCHAR
STARTCHAR U+30B0
ENCODING 12464
SWIDTH 520 0 
DWIDTH 14 0
BBX 14 14 -1 -4
BITMAP
0000
04A0
0740
0900
1100
0200
0400
0800
1000
0000
0000
0000
0000
0000
ENDCHAR
STARTCHAR U+30B1
ENCODING 12465
SWIDTH 520 0 
DWIDTH 14 0
BBX 14 14 -1 -4
BITMAP
0000
0400
0400
0980
1E00
2200
0200
0400
0800
1000
0000
0000
0000
0000
ENDCHAR
STARTCHAR U+30B2
ENCODING 12466
SWIDTH 520 0 
DWIDTH 14 0
BBX 14 14 -1 -4
BITMAP
0050
0820
0980
0F00
1100
0200
0200
0400
0800
1000
0000
0000
0000
0000
ENDCHAR
STARTCHAR U+30B3
ENCODING 12467
SWIDTH 520 0 
DWIDTH 14 0
BBX 14 14 -1 -4
BITMAP
0000
0000
0380
1C80
0100
0100
0700
1800
0000
0000
0000
0000
0000
0000
ENDCHAR
STARTCHAR U+30B4
ENCODING 12468
SWIDTH 520 0 
DWIDTH 14 0
BBX 14 14 -1 -4
BITMAP
0000
00A0
0040
0700
1900
0100
0100
1E00
0000
0000
0000
0000
0000
0000
ENDCHAR
STARTCHAR U+30B5
ENCODING 12469
SWIDTH 520 0 
DWIDTH 14 0
BBX 14 14 -1 -4
BITMAP
0000
0900
0900
09E0
3F00
0900
0900
0100
0200
0000
0000
0000
0000
0000
ENDCHAR
STARTCHAR U+30B6
ENCODING 12470
SWIDTH 520 0 
DWIDTH 14 0
BBX 14 14 -1 -4
BITMAP
0000
0150
0920
09C0
3F00
0900
0900
0200
0200
0400
0000
0000
0000
0000
ENDCHAR
STARTCHAR U+30B7
ENCODING 12471
SWIDTH 520 0 
DWIDTH 14 0
BBX 14 14 -1 -4
BITMAP
0000
0C00
0200
1040
0880
0100
0200
0C00
0000
0000
0000
0000
0000
0000
ENDCHAR
STARTCHAR U+30B8
ENCODING 12472
SWIDTH 520 0 
DWIDTH 14 0
BBX 14 14 -1 -4
BITMAP
0000
00A0
0840
0400
1020
0840
0080
0100
0A00
0400
0000
0000
0000
0000
ENDCHAR
STARTCHAR U+30B9
ENCODING 12473
SWIDTH 520 0 
DWIDTH 14 0
BBX 14 14 -1 -4
BITMAP
0000
0300
1D00
0100
0200
0300
0480
0840
1000
0000
0000
0000
0000
0000
ENDCHAR
STARTCHAR U+30BA
ENCODING 12474
SWIDTH 520 0 
DWIDTH 14 0
BBX 14 14 -1 -4
BITMAP
0000
00A0
0040
0700
1900
0200
0500
0880
1080
0000
0000
0000
0000
0000
ENDCHAR
STARTCHAR U+30BB
ENCODING 12475
SWIDTH 520 0 
DWIDTH 14 0
BBX 14 14 -1 -4
BITMAP
0000
0400
0400
0780
3C80
0500
0400
0440
0380
0000
0000
0000
0000
0000
ENDCHAR
STARTCHAR U+30BC
ENCODING 12476
SWIDTH 520 0 
DWIDTH 14 0
BBX 14 14 -1 -4
BITMAP
0000
0140
0480
0400
0780
3C80
0400
0400
03C0
0000
0000
0000
0000
0000
ENDCHAR
STARTCHAR U+30BD
ENCODING 12477
SWIDTH 520 0 
DWIDTH 14 0
BBX 14 14 -1 -4
BITMAP
0000
1080
0880
0080
0100
0200
0400
1800
0000
0000
0000
0000
0000
0000
ENDCHAR
STARTCHAR U+30BE
ENCODING 12478
SWIDTH 520 0 
DWIDTH 14 0
BBX 14 14 -1 -4
BITMAP
0000
0050
10A0
0880
0100
0100
0200
0400
1800
0000
0000
0000
0000
0000
ENDCHAR
STARTCHAR U+30BF
ENCODING 12479
SWIDTH 520 0 
DWIDTH 14 0
BBX 14 14 -1 -4
BITMAP
0000
0400
0780
0480
0900
1500
0200
0400
0800
1000
0000
0000
0000
0000
ENDCHAR
STARTCHAR U+30C0
ENCODING 12480
SWIDTH 520 0 
DWIDTH 14 0
BBX 14 14 -1 -4
BITMAP
0000
04A0
0440
0700
0900
1500
0200
0400
0800
3000
0000
0000
0000
0000
ENDCHAR
STARTCHAR U+30C1
ENCODING 12481
SWIDTH 520 0 
DWIDTH 14 0
BBX 14 14 -1 -4
BITMAP
0000
0300
0E00
0200
03C0
1E00
0200
0400
0800
1000
0000
0000
0000
0000
ENDCHAR
STARTCHAR U+30C2
ENCODING 12482
SWIDTH 520 0 
DWIDTH 14 0
BBX 14 14 -1 -4
BITMAP
0000
0250
0C20
07C0
3C00
0400
0400
0800
1000
0000
0000
0000
0000
0000
ENDCHAR
STARTCHAR U+30C3
ENCODING 12483
SWIDTH 520 0 
DWIDTH 14 0
BBX 14 14 -1 -4
BITMAP
0000
0480
1280
0900
0200
0400
0800
0000
0000
0000
0000
0000
0000
0000
ENDCHAR
STARTCHAR U+30C4
ENCODING 12484
SWIDTH 520 0 
DWIDTH 14 0
BBX 14 14 -1 -4
BITMAP
0000
0480
1280
0880
0100
0200
0400
1800
0000
0000
0000
0000
0000
0000
ENDCHAR
STARTCHAR U+30C5
ENCODING 12485
SWIDTH 520 0 
DWIDTH 14 0
BBX 14 14 -1 -4
BITMAP
0000
0050
0420
1280
0880
0100
0200
0400
0800
0000
0000
0000
0000
0000
ENDCHAR
STARTCHAR U+30C6
ENCODING 12486
SWIDTH 520 0 
DWIDTH 14 0
BBX 14 14 -1 -4
BITMAP
0000
0380
0C00
01C0
3E00
0200
0200
0400
0800
1000
0000
0000
0000
0000
ENDCHAR
STARTCHAR U+30C7
ENCODING 12487
SWIDTH 520 0 
DWIDTH 14 0
BBX 14 14 -1 -4
BITMAP
0000
0350
0C20
01C0
3E00
0200
0200
0400
0800
1000
0000
0000
0000
0000
ENDCHAR
STARTCHAR U+30C8
ENCODING 12488
SWIDTH 520 0 
DWIDTH 14 0
BBX 14 14 -1 -4
BITMAP
0000
0400
0400
0400
0700
0480
0400
0400
0400
0400
0000
0000
0000
0000
ENDCHAR
STARTCHAR U+30C9
ENCODING 12489
SWIDTH 520 0 
DWIDTH 14 0
BBX 14 14 -1 -4
BITMAP
0000
04A0
0440
0400
0700
0480
0400
0400
0400
0400
0000
0000
0000
0000
ENDCHAR
STARTCHAR U+30CA
ENCODING 12490
SWIDTH 520 0 
DWIDTH 14 0
BBX 14 14 -1 -4
BITMAP
0000
0400
0400
0780
3C00
0400
0400
0400
0800
1000
0000
0000
0000
0000
ENDCHAR
STARTCHAR U+30CB
ENCODING 12491
SWIDTH 520 0 
DWIDTH 14 0
BBX 14 14 -1 -4
BITMAP
0000
0300
1C00
0000
0000
03C0
3C00
0000
0000
0000
0000
0000
0000
0000
ENDCHAR
STARTCHAR U+30CC
ENCODING 12492
SWIDTH 520 0 
DWIDTH 14 0
BBX 14 14 -1 -4
BITMAP
0000
0300
1D00
0100
0D00
0200
0500
1880
0000
0000
0000
0000
0000
0000
ENDCHAR
STARTCHAR U+30CD
ENCODING 12493
SWIDTH 520 0 
DWIDTH 14 0
BBX 14 14 -1 -4
BITMAP
0400
0200
0300
0500
1A00
0700
0A80
1240
0200
0200
0000
0000
0000
0000
ENDCHAR
STARTCHAR U+30CE
ENCODING 12494
SWIDTH 520 0 
DWIDTH 14 0
BBX 14 14 -1 -4
BITMAP
0000
0100
0100
0100
0200
0200
0400
0800
1000
0000
0000
0000
0000
0000
ENDCHAR
STARTCHAR U+30CF
ENCODING 12495
SWIDTH 520 0 
DWIDTH 14 0
BBX 14 14 -1 -4
BITMAP
0000
0000
0900
0880
1080
1040
2040
0000
0000
0000
0000
0000
0000
0000
ENDCHAR
STARTCHAR U+30D0
ENCODING 12496
SWIDTH 520 0 
DWIDTH 14 0
BBX 14 14 -1 -4
BITMAP
0000
0050
0920
0880
1080
1040
2040
0000
0000
0000
0000
0000
0000
0000
ENDCHAR
STARTCHAR U+30D1
ENCODING 12497
SWIDTH 520 0 
DWIDTH 14 0
BBX 14 14 -1 -4
BITMAP
0000
0060
0060
0900
0880
1040
1040
2000
0000
0000
0000
0000
0000
0000
ENDCHAR
STARTCHAR U+30D2
ENCODING 12498
SWIDTH 520 0 
DWIDTH 14 0
BBX 14 14 -1 -4
BITMAP
0000
0800
0900
0E00
0800
0800
0800
0780
0000
0000
0000
0000
0000
0000
ENDCHAR
STARTCHAR U+30D3
ENCODING 12499
SWIDTH 520 0 
DWIDTH 14 0
BBX 14 14 -1 -4
BITMAP
0000
00A0
1040
1300
1C00
1000
1000
0F80
0000
0000
0000
0000
0000
0000
ENDCHAR
STARTCHAR U+30D4
ENCODING 12500
SWIDTH 520 0 
DWIDTH 14 0
BBX 14 14 -1 -4
BITMAP
0060
0060
1000
1300
1C00
1000
1000
0F80
0000
0000
0000
0000
0000
0000
ENDCHAR
STARTCHAR U+30D5
ENCODING 12501
SWIDTH 520 0 
DWIDTH 14 0
BBX 14 14 -1 -4
BITMAP
0000
0380
1C80
0080
0100
0200
0400
0800
1000
0000
0000
0000
0000
0000
ENDCHAR
STARTCHAR U+30D6
ENCODING 12502
SWIDTH 520 0 
DWIDTH 14 0
BBX 14 14 -1 -4
BITMAP
0000
0050
03A0
1C80
0080
0100
0200
0400
0800
0000
0000
0000
0000
0000
ENDCHAR
STARTCHAR U+30D7
ENCODING 12503
SWIDTH 520 0 
DWIDTH 14 0
BBX 14 14 -1 -4
BITMAP
0060
0060
0380
3C80
0080
0100
0200
0400
1800
0000
0000
0000
0000
0000
ENDCHAR
STARTCHAR U+30D8
ENCODING 12504
SWIDTH 520 0 
DWIDTH 14 0
BBX 14 14 -1 -4
BITMAP
0000
0800
5400
2200
0180
0060
0000
0000
0000
0000
0000
0000
0000
0000
ENDCHAR
STARTCHAR U+30D9
ENCODING 12505
SWIDTH 520 0 
DWIDTH 14 0
BBX 14 14 -1 -4
BITMAP
0000
0140
1880
2400
6200
0100
00C0
0000
0000
0000
0000
0000
0000
0000
ENDCHAR
STARTCHAR U+30DA
ENCODING 12506
SWIDTH 520 0 
DWIDTH 14 0
BBX 14 14 -1 -4
BITMAP
0000
08C0
14C0
2200
6100
00C0
0000
0000
0000
0000
0000
0000
0000
0000
ENDCHAR
STARTCHAR U+30DB
ENCODING 12507
SWIDTH 520 0 
DWIDTH 14 0
BBX 14 14 -1 -4
BITMAP
0000
0200
0200
03C0
1E00
0280
1240
2640
0000
0000
0000
0000
0000
0000
ENDCHAR
STARTCHAR U+30DC
ENCODING 12508
SWIDTH 520 0 
DWIDTH 14 0
BBX 14 14 -1 -4
BITMAP
0000
0450
0420
0780
3C00
0480
1440
2C00
0400
0000
0000
0000
0000
0000
ENDCHAR
STARTCHAR U+30DD
ENCODING 12509
SWIDTH 520 0 
DWIDTH 14 0
BBX 14 14 -1 -4
BITMAP
0060
0460
0400
0780
3C00
0500
1480
2C00
0400
0000
0000
0000
0000
0000
ENDCHAR
STARTCHAR U+30DE
ENCODING 12510
SWIDTH 520 0 
DWIDTH 14 0
BBX 14 14 -1 -4
BITMAP
0000
0000
0380
3C80
0100
0600
0200
0100
0000
0000
0000
0000
0000
0000
ENDCHAR
STARTCHAR U+30DF
ENCODING 12511
SWIDTH 520 0 
DWIDTH 14 0
BBX 14 14 -1 -4
BITMAP
0000
0600
0100
0000
0600
0100
0C00
0200
0100
0000
0000
0000
0000
0000
ENDCHAR
STARTCHAR U+30E0
ENCODING 12512
SWIDTH 520 0 
DWIDTH 14 0
BBX 14 14 -1 -4
BITMAP
0000
0400
0400
0400
0900
0880
13C0
1C40
0000
0000
0000
0000
0000
0000
ENDCHAR
STARTCHAR U+30E1
ENCODING 12513
SWIDTH 520 0 
DWIDTH 14 0
BBX 14 14 -1 -4
BITMAP
0000
0080
0080
0900
0500
0200
0500
0880
3000
0000
0000
0000
0000
0000
ENDCHAR
STARTCHAR U+30E2
ENCODING 12514
SWIDTH 520 0 
DWIDTH 14 0
BBX 14 14 -1 -4
BITMAP
0000
0380
1C00
0400
07C0
3C00
0400
07C0
0000
0000
0000
0000
0000
0000
ENDCHAR
STARTCHAR U+30E3
ENCODING 12515
SWIDTH 520 0 
DWIDTH 14 0
BBX 14 14 -1 -4
BITMAP
0000
0800
0980
0680
1C00
0200
0200
0100
0000
0000
0000
0000
0000
0000
ENDCHAR
STARTCHAR U+30E4
ENCODING 12516
SWIDTH 520 0 
DWIDTH 14 0
BBX 14 14 -1 -4
BITMAP
0000
0800
09C0
0640
3C80
0200
0200
0100
0100
0000
0000
0000
0000
0000
ENDCHAR
STARTCHAR U+30E5
ENCODING 12517
SWIDTH 520 0 
DWIDTH 14 0
BBX 14 14 -1 -4
BITMAP
0000
0000
0F00
0100
0200
03C0
1C00
0000
0000
0000
0000
0000
0000
0000
ENDCHAR
STARTCHAR U+30E6
ENCODING 12518
SWIDTH 520 0 
DWIDTH 14 0
BBX 14 14 -1 -4
BITMAP
0000
0180
1E80
0080
0100
0100
07E0
3800
0000
0000
0000
0000
0000
0000
ENDCHAR
STARTCHAR U+30E7
ENCODING 12519
SWIDTH 520 0 
DWIDTH 14 0
BBX 14 14 -1 -4
BITMAP
0000
0300
0D00
0300
0D00
0300
0C00
0000
0000
0000
0000
0000
0000
0000
ENDCHAR
STARTCHAR U+30E8
ENCODING 12520
SWIDTH 520 0 
DWIDTH 14 0
BBX 14 14 -1 -4
BITMAP
0000
0380
1C80
0080
0700
1900
0100
1F00
0000
0000
0000
0000
0000
0000
ENDCHAR
STARTCHAR U+30E9
ENCODING 12521
SWIDTH 520 0 
DWIDTH 14 0
BBX 14 14 -1 -4
BITMAP
0000
0380
0C00
0380
1C80
0100
0100
0200
0400
0800
0000
0000
0000
0000
ENDCHAR
STARTCHAR U+30EA
ENCODING 12522
SWIDTH 520 0 
DWIDTH 14 0
BBX 14 14 -1 -4
BITMAP
0000
0100
1100
1100
1100
1100
0100
0200
0200
0400
0800
0000
0000
0000
ENDCHAR
STARTCHAR U+30EB
ENCODING 12523
SWIDTH 520 0 
DWIDTH 14 0
BBX 14 14 -1 -4
BITMAP
0000
0200
1200
1200
1240
1280
1300
2000
4000
0000
0000
0000
0000
0000
ENDCHAR
STARTCHAR U+30EC
ENCODING 12524
SWIDTH 520 0 
DWIDTH 14 0
BBX 14 14 -1 -4
BITMAP
0000
0800
0800
0800
0880
0900
0A00
0C00
0000
0000
0000
0000
0000
0000
ENDCHAR
STARTCHAR U+30ED
ENCODING 12525
SWIDTH 520 0 
DWIDTH 14 0
BBX 14 14 -1 -4
BITMAP
0000
0000
13C0
1C40
1080
1080
1380
0C00
0000
0000
0000
0000
0000
0000
ENDCHAR
STARTCHAR U+30EE
ENCODING 12526
SWIDTH 520 0 
DWIDTH 14 0
BBX 14 14 -1 -4
BITMAP
0000
0000
0F80
0880
0900
0100
0200
0400
0800
0000
0000
0000
0000
0000
ENDCHAR
STARTCHAR U+30EF
ENCODING 12527
SWIDTH 520 0 
DWIDTH 14 0
BBX 14 14 -1 -4
BITMAP
0000
0380
1C80
1080
1100
0100
0200
0400
0800
0000
0000
0000
0000
0000
ENDCHAR
STARTCHAR U+30F0
ENCODING 12528
SWIDTH 520 0 
DWIDTH 14 0
BBX 14 14 -1 -4
BITMAP
0000
0200
0380
1E00
0A00
0FC0
3200
0200
0200
0200
0000
0000
0000
0000
ENDCHAR
STARTCHAR U+30F1
ENCODING 12529
SWIDTH 520 0 
DWIDTH 14 0
BBX 14 14 -1 -4
BITMAP
0000
0300
1D00
0200
0400
0400
07C0
3800
0000
0000
0000
0000
0000
0000
ENDCHAR
STARTCHAR U+30F2
ENCODING 12530
SWIDTH 520 0 
DWIDTH 14 0
BBX 14 14 -1 -4
BITMAP
0000
1F80
0080
0380
1D00
0100
0100
0200
0400
0800
0000
0000
0000
0000
ENDCHAR
STARTCHAR U+30F3
ENCODING 12531
SWIDTH 520 0 
DWIDTH 14 0
BBX 14 14 -1 -4
BITMAP
0000
0800
0400
0040
0080
0100
0A00
0400
0000
0000
0000
0000
0000
0000
ENDCHAR
STARTCHAR U+30F4
ENCODING 12532
SWIDTH 520 0 
DWIDTH 14 0
BBX 14 14 -1 -4
BITMAP
0400
0450
07A0
3880
2080
2100
0100
0200
0400
1800
0000
0000
0000
0000
ENDCHAR
STARTCHAR U+30F5
ENCODING 12533
SWIDTH 520 0 
DWIDTH 14 0
BBX 14 14 -1 -4
BITMAP
0000
0200
0200
1F80
0480
0500
0900
1200
0000
0000
0000
0000
0000
0000
ENDCHAR
STARTCHAR U+30F6
ENCODING 12534
SWIDTH 520 0 
DWIDTH 14 0
BBX 14 14 -1 -4
BITMAP
0000
0800
0980
0F00
1100
0200
0400
0800
0000
0000
0000
0000
0000
0000
ENDCHAR
STARTCHAR U+3105
ENCODING 12549
SWIDTH 520 0 
DWIDTH 14 0
BBX 14 14 -1 -4
BITMAP
1000
0800
0800
13C0
3C40
0040
0040
0080
0080
0500
0300
0000
0000
0000
ENDCHAR
STARTCHAR U+3106
ENCODING 12550
SWIDTH 520 0 
DWIDTH 14 0
BBX 14 14 -1 -4
BITMAP
0400
0400
0800
13C0
1C40
0080
0680
0100
0280
0400
1800
0000
0000
0000
ENDCHAR
STARTCHAR U+3107
ENCODING 12551
SWIDTH 520 0 
DWIDTH 14 0
BBX 14 14 -1 -4
BITMAP
0000
0000
0000
07C0
3840
2040
2040
2080
2080
0080
0000
0000
0000
0000
ENDCHAR
STARTCHAR U+3108
ENCODING 12552
SWIDTH 520 0 
DWIDTH 14 0
BBX 14 14 -1 -4
BITMAP
0000
01C0
7E00
2000
2000
2000
2000
2000
2000
2060
1F80
0000
0000
0000
ENDCHAR
STARTCHAR U+3109
ENCODING 12553
SWIDTH 520 0 
DWIDTH 14 0
BBX 14 14 -1 -4
BITMAP
0000
0800
0800
11E0
3E20
0420
0440
0840
1040
2280
4100
0000
0000
0000
ENDCHAR
STARTCHAR U+310A
ENCODING 12554
SWIDTH 520 0 
DWIDTH 14 0
BBX 14 14 -1 -4
BITMAP
0000
0400
0400
0400
07E0
7C00
0800
0900
1080
27C0
3840
0000
0000
0000
ENDCHAR
STARTCHAR U+310B
ENCODING 12555
SWIDTH 520 0 
DWIDTH 14 0
BBX 14 14 -1 -4
BITMAP
0000
0F00
3100
0200
05C0
0640
0040
0040
0080
0280
0100
0000
0000
0000
ENDCHAR
STARTCHAR U+310C
ENCODING 12556
SWIDTH 520 0 
DWIDTH 14 0
BBX 14 14 -1 -4
BITMAP
0100
1100
1100
1200
23C0
3C40
0440
0440
0880
1280
6100
0000
0000
0000
ENDCHAR
STARTCHAR U+310D
ENCODING 12557
SWIDTH 520 0 
DWIDTH 14 0
BBX 14 14 -1 -4
BITMAP
0000
0880
0880
1100
1100
2200
2200
1100
1100
0880
0880
0000
0000
0000
ENDCHAR
STARTCHAR U+310E
ENCODING 12558
SWIDTH 520 0 
DWIDTH 14 0
BBX 14 14 -1 -4
BITMAP
0000
01E0
7E00
0400
0800
0F80
0080
0080
0080
0500
0200
0000
0000
0000
ENDCHAR
STARTCHAR U+310F
ENCODING 12559
SWIDTH 520 0 
DWIDTH 14 0
BBX 14 14 -1 -4
BITMAP
0000
03E0
3C00
1000
1000
1000
1000
1000
2000
2000
4000
0000
0000
0000
ENDCHAR
STARTCHAR U+3110
ENCODING 12560
SWIDTH 520 0 
DWIDTH 14 0
BBX 14 14 -1 -4
BITMAP
0000
0100
1100
1100
1100
1100
1300
1D00
0100
0100
0100
0000
0000
0000
ENDCHAR
STARTCHAR U+3111
ENCODING 12561
SWIDTH 520 0 
DWIDTH 14 0
BBX 14 14 -1 -4
BITMAP
0000
0200
0200
0400
0400
0800
1000
0800
0400
0300
0100
0000
0000
0000
ENDCHAR
STARTCHAR U+3112
ENCODING 12562
SWIDTH 520 0 
DWIDTH 14 0
BBX 14 14 -1 -4
BITMAP
0000
01E0
7E00
0200
0200
0200
0200
0200
0200
0200
0200
0000
0000
0000
ENDCHAR
STARTCHAR U+3113
ENCODING 12563
SWIDTH 520 0 
DWIDTH 14 0
BBX 14 14 -1 -4
BITMAP
0400
0400
0400
2440
2440
2440
27C0
3C80
0400
0400
7FE0
0000
0000
0000
ENDCHAR
STARTCHAR U+3114
ENCODING 12564
SWIDTH 520 0 
DWIDTH 14 0
BBX 14 14 -1 -4
BITMAP
0100
0200
0400
0900
1100
0200
0600
1A00
0200
0200
0200
0000
0000
0000
ENDCHAR
STARTCHAR U+3115
ENCODING 12565
SWIDTH 520 0 
DWIDTH 14 0
BBX 14 14 -1 -4
BITMAP
0000
03C0
1C40
0080
1F00
1000
1000
1000
1000
2000
4000
0000
0000
0000
ENDCHAR
STARTCHAR U+3116
ENCODING 12566
SWIDTH 520 0 
DWIDTH 14 0
BBX 14 14 -1 -4
BITMAP
0000
0380
1C80
1080
1080
1480
1280
1280
1080
1F80
1080
0000
0000
0000
ENDCHAR
STARTCHAR U+3117
ENCODING 12567
SWIDTH 520 0 
DWIDTH 14 0
BBX 14 14 -1 -4
BITMAP
0000
03C0
3C40
0840
0840
0880
0A80
0900
0800
0800
0800
0800
0000
0000
ENDCHAR
STARTCHAR U+3118
ENCODING 12568
SWIDTH 520 0 
DWIDTH 14 0
BBX 14 14 -1 -4
BITMAP
0000
0400
0400
07E0
7800
0B80
1C80
0080
0080
0100
0100
0200
0000
0000
ENDCHAR
STARTCHAR U+3119
ENCODING 12569
SWIDTH 520 0 
DWIDTH 14 0
BBX 14 14 -1 -4
BITMAP
0000
0200
0200
0400
0400
0800
0800
1080
1040
27E0
3820
0000
0000
0000
ENDCHAR
STARTCHAR U+311A
ENCODING 12570
SWIDTH 520 0 
DWIDTH 14 0
BBX 14 14 -1 -4
BITMAP
0000
2040
1080
0900
0A00
0400
0400
0400
0400
0400
0400
0000
0000
0000
ENDCHAR
STARTCHAR U+311B
ENCODING 12571
SWIDTH 520 0 
DWIDTH 14 0
BBX 14 14 -1 -4
BITMAP
0000
01E0
7E00
0200
0200
1E00
2000
2000
2000
20C0
1F00
0000
0000
0000
ENDCHAR
STARTCHAR U+311C
ENCODING 12572
SWIDTH 520 0 
DWIDTH 14 0
BBX 14 14 -1 -4
BITMAP
0400
0200
0200
7FE0
0200
0E00
1000
2000
2000
2040
1F80
0000
0000
0000
ENDCHAR
STARTCHAR U+311D
ENCODING 12573
SWIDTH 520 0 
DWIDTH 14 0
BBX 14 14 -1 -4
BITMAP
0000
1100
1100
1100
17E0
7900
1100
1200
1200
0800
07E0
0000
0000
0000
ENDCHAR
STARTCHAR U+311E
ENCODING 12574
SWIDTH 520 0 
DWIDTH 14 0
BBX 14 14 -1 -4
BITMAP
0000
0FE0
7200
2200
2200
3FC0
0440
0440
0840
1080
6080
0000
0000
0000
ENDCHAR
STARTCHAR U+311F
ENCODING 12575
SWIDTH 520 0 
DWIDTH 14 0
BBX 14 14 -1 -4
BITMAP
0000
0C00
7400
0400
0400
0400
0400
0200
0200
0100
00E0
0000
0000
0000
ENDCHAR
STARTCHAR U+3120
ENCODING 12576
SWIDTH 520 0 
DWIDTH 14 0
BBX 14 14 -1 -4
BITMAP
0000
0400
0400
0800
0880
1100
3E00
0400
0880
13C0
3C40
0000
0000
0000
ENDCHAR
STARTCHAR U+3121
ENCODING 12577
SWIDTH 520 0 
DWIDTH 14 0
BBX 14 14 -1 -4
BITMAP
0000
0380
3C80
0080
1880
0500
0200
0500
0880
1080
6000
0000
0000
0000
ENDCHAR
STARTCHAR U+3122
ENCODING 12578
SWIDTH 520 0 
DWIDTH 14 0
BBX 14 14 -1 -4
BITMAP
0000
3F80
0080
1100
1100
23C0
3C40
0040
0040
0080
0080
0100
0000
0000
ENDCHAR
STARTCHAR U+3123
ENCODING 12579
SWIDTH 520 0 
DWIDTH 14 0
BBX 14 14 -1 -4
BITMAP
0000
2000
2000
2000
2000
41E0
7E20
0020
0040
0040
0040
0000
0000
0000
ENDCHAR
STARTCHAR U+3124
ENCODING 12580
SWIDTH 520 0 
DWIDTH 14 0
BBX 14 14 -1 -4
BITMAP
0400
0400
0400
07E0
7D00
0500
0900
0A00
1200
2200
41E0
0000
0000
0000
ENDCHAR
STARTCHAR U+3125
ENCODING 12581
SWIDTH 520 0 
DWIDTH 14 0
BBX 14 14 -1 -4
BITMAP
0000
0400
0400
0400
0800
0800
1000
1000
2000
43E0
7C00
0000
0000
0000
ENDCHAR
STARTCHAR U+3126
ENCODING 12582
SWIDTH 520 0 
DWIDTH 14 0
BBX 14 14 -1 -4
BITMAP
0000
0A00
0A00
0A00
0A00
0A00
0A00
1200
1200
2210
41F0
0000
0000
0000
ENDCHAR
STARTCHAR U+3127
ENCODING 12583
SWIDTH 520 0 
DWIDTH 14 0
BBX 14 14 -1 -4
BITMAP
0000
0400
0400
0400
0400
0400
0400
0400
0400
0400
0400
0000
0000
0000
ENDCHAR
STARTCHAR U+3128
ENCODING 12584
SWIDTH 520 0 
DWIDTH 14 0
BBX 14 14 -1 -4
BITMAP
0000
0040
0040
3080
0880
0500
0200
0500
0880
1040
6000
0000
0000
0000
ENDCHAR
STARTCHAR U+3129
ENCODING 12585
SWIDTH 520 0 
DWIDTH 14 0
BBX 14 14 -1 -4
BITMAP
0000
0000
0040
4040
2040
2040
2040
4040
4FC0
7040
0000
0000
0000
0000
ENDCHAR
STARTCHAR U+3220
ENCODING 12832
SWIDTH 520 0 
DWIDTH 14 0
BBX 14 14 -1 -4
BITMAP
0000
2040
4020
8010
8010
BFD0
8010
8010
8010
4020
2040
0000
0000
0000
ENDCHAR
STARTCHAR U+3221
ENCODING 12833
SWIDTH 520 0 
DWIDTH 14 0
BBX 14 14 -1 -4
BITMAP
0000
2040
4120
9F90
8010
8010
8010
8090
BFD0
4020
2040
0000
0000
0000
ENDCHAR
STARTCHAR U+3222
ENCODING 12834
SWIDTH 520 0 
DWIDTH 14 0
BBX 14 14 -1 -4
BITMAP
0000
2040
4020
9F90
8010
8010
8F10
8010
8010
5FA0
2040
0000
0000
0000
ENDCHAR
STARTCHAR U+3223
ENCODING 12835
SWIDTH 520 0 
DWIDTH 14 0
BBX 14 14 -1 -4
BITMAP
0000
2040
4020
9FD0
9550
9550
99D0
9050
9FD0
4020
2040
0000
0000
0000
ENDCHAR
STARTCHAR U+3224
ENCODING 12836
SWIDTH 520 0 
DWIDTH 14 0
BBX 14 14 -1 -4
BITMAP
0000
2040
5FA0
8410
8410
9F10
8510
8510
8510
5FA0
2040
0000
0000
0000
ENDCHAR
STARTCHAR U+3225
ENCODING 12837
SWIDTH 520 0 
DWIDTH 14 0
BBX 14 14 -1 -4
BITMAP
0000
2040
4420
8210
BFD0
8010
8910
9090
A050
4020
2040
0000
0000
0000
ENDCHAR
STARTCHAR U+3226
ENCODING 12838
SWIDTH 520 0 
DWIDTH 14 0
BBX 14 14 -1 -4
BITMAP
0000
2040
4420
8410
84D0
8710
BC10
8450
8450
43A0
2040
0000
0000
0000
ENDCHAR
STARTCHAR U+3227
ENCODING 12839
SWIDTH 520 0 
DWIDTH 14 0
BBX 14 14 -1 -4
BITMAP
0000
2040
4320
8510
8510
8510
8890
8890
9050
4020
2040
0000
0000
0000
ENDCHAR
STARTCHAR U+3228
ENCODING 12840
SWIDTH 520 0 
DWIDTH 14 0
BBX 14 14 -1 -4
BITMAP
0000
2040
4420
8410
9F10
8510
8510
8550
8950
51A0
2040
0000
0000
0000
ENDCHAR
STARTCHAR U+3229
ENCODING 12841
SWIDTH 520 0 
DWIDTH 14 0
BBX 14 14 -1 -4
BITMAP
0000
2040
4220
8210
8210
9FD0
8210
8210
8210
4220
2040
0000
0000
0000
ENDCHAR
STARTCHAR U+4E00
ENCODING 19968
SWIDTH 520 0 
DWIDTH 14 0
BBX 14 14 -1 -4
BITMAP
0000
0000
0000
0000
0020
FFF0
0000
0000
0000
0000
0000
0000
0000
0000
ENDCHAR
STARTCHAR U+4E01
ENCODING 19969
SWIDTH 520 0 
DWIDTH 14 0
BBX 14 14 -1 -4
BITMAP
0020
FFF0
0200
0200
0200
0200
0200
0200
0200
0200
0200
0600
0000
0000
ENDCHAR
STARTCHAR U+4E03
ENCODING 19971
SWIDTH 520 0 
DWIDTH 14 0
BBX 14 14 -1 -4
BITMAP
0400
0400
0400
0430
05C0
1E00
E400
0400
0410
0410
0410
03F0
0000
0000
ENDCHAR
STARTCHAR U+4E07
ENCODING 19975
SWIDTH 520 0 
DWIDTH 14 0
BBX 14 14 -1 -4
BITMAP
0020
FFF0
0400
0400
07C0
0440
0440
0840
0840
1040
2280
4100
0000
0000
ENDCHAR
STARTCHAR U+4E08
ENCODING 19976
SWIDTH 520 0 
DWIDTH 14 0
BBX 14 14 -1 -4
BITMAP
0200
0200
0220
7FF0
0200
2200
1200
0A00
0400
0A00
1180
E070
0000
0000
ENDCHAR
STARTCHAR U+4E09
ENCODING 19977
SWIDTH 520 0 
DWIDTH 14 0
BBX 14 14 -1 -4
BITMAP
0000
0040
7FE0
0000
0000
0080
3FC0
0000
0000
0020
FFF0
0000
0000
0000
ENDCHAR
STARTCHAR U+4E0A
ENCODING 19978
SWIDTH 520 0 
DWIDTH 14 0
BBX 14 14 -1 -4
BITMAP
0400
0400
0400
0400
07E0
0400
0400
0400
0400
0400
0420
FFF0
0000
0000
ENDCHAR
STARTCHAR U+4E0B
ENCODING 19979
SWIDTH 520 0 
DWIDTH 14 0
BBX 14 14 -1 -4
BITMAP
0020
FFF0
0400
0400
0700
04C0
0440
0400
0400
0400
0400
0400
0000
0000
ENDCHAR
STARTCHAR U+4E0C
ENCODING 19980
SWIDTH 520 0 
DWIDTH 14 0
BBX 14 14 -1 -4
BITMAP
0020
FFF0
0880
0880
0880
0880
0880
1080
1080
2080
4080
8080
0000
0000
ENDCHAR
STARTCHAR U+4E0D
ENCODING 19981
SWIDTH 520 0 
DWIDTH 14 0
BBX 14 14 -1 -4
BITMAP
0020
FFF0
0200
0600
0B00
1280
2240
4220
8210
0200
0200
0200
0000
0000
ENDCHAR
STARTCHAR U+4E0E
ENCODING 19982
SWIDTH 520 0 
DWIDTH 14 0
BBX 14 14 -1 -4
BITMAP
1000
1020
1FF0
1000
1000
1FE0
1020
0020
FFA0
0020
0140
0080
0000
0000
ENDCHAR
STARTCHAR U+4E10
ENCODING 19984
SWIDTH 520 0 
DWIDTH 14 0
BBX 14 14 -1 -4
BITMAP
FFF0
0400
4400
47E0
4400
4400
7FE0
0020
0020
0020
0140
0080
0000
0000
ENDCHAR
STARTCHAR U+4E11
ENCODING 19985
SWIDTH 520 0 
DWIDTH 14 0
BBX 14 14 -1 -4
BITMAP
0000
7FC0
0840
0840
0840
7FC0
0840
0840
0840
0840
0840
FFF0
0000
0000
ENDCHAR
STARTCHAR U+4E13
ENCODING 19987
SWIDTH 520 0 
DWIDTH 14 0
BBX 14 14 -1 -4
BITMAP
0400
0440
7FE0
0400
FFF0
0800
1FC0
0040
0080
0D00
0200
0100
0000
0000
ENDCHAR
STARTCHAR U+4E14
ENCODING 19988
SWIDTH 520 0 
DWIDTH 14 0
BBX 14 14 -1 -4
BITMAP
0080
1FC0
1080
1080
1F80
1080
1080
1F80
1080
1080
1080
FFF0
0000
0000
ENDCHAR
STARTCHAR U+4E15
ENCODING 19989
SWIDTH 520 0 
DWIDTH 14 0
BBX 14 14 -1 -4
BITMAP
0020
FFF0
0200
0400
0D00
1480
2460
4420
8400
0400
0420
FFF0
0000
0000
ENDCHAR
STARTCHAR U+4E16
ENCODING 19990
SWIDTH 520 0 
DWIDTH 14 0
BBX 14 14 -1 -4
BITMAP
0440
2440
2440
2440
FFF0
2440
2440
2440
27C0
2440
2000
3FF0
0000
0000
ENDCHAR
STARTCHAR U+4E18
ENCODING 19992
SWIDTH 520 0 
DWIDTH 14 0
BBX 14 14 -1 -4
BITMAP
00C0
0300
3C00
2000
2000
3FE0
2100
2100
2100
2100
2120
FFF0
0000
0000
ENDCHAR
STARTCHAR U+4E19
ENCODING 19993
SWIDTH 520 0 
DWIDTH 14 0
BBX 14 14 -1 -4
BITMAP
0020
FFF0
0400
7FE0
4420
4420
4A20
4920
50A0
6020
4020
4060
0000
0000
ENDCHAR
STARTCHAR U+4E1A
ENCODING 19994
SWIDTH 520 0 
DWIDTH 14 0
BBX 14 14 -1 -4
BITMAP
0900
0900
0900
8920
4920
4940
2940
2980
0900
0900
0900
FFF0
0000
0000
ENDCHAR
STARTCHAR U+4E1B
ENCODING 19995
SWIDTH 520 0 
DWIDTH 14 0
BBX 14 14 -1 -4
BITMAP
1080
1080
1080
1080
1080
1080
1940
2540
2220
4410
0000
FFF0
0000
0000
ENDCHAR
STARTCHAR U+4E1C
ENCODING 19996
SWIDTH 520 0 
DWIDTH 14 0
BBX 14 14 -1 -4
BITMAP
0400
0420
7FF0
0800
1200
2200
3FE0
0A80
1240
2220
4210
0600
0000
0000
ENDCHAR
STARTCHAR U+4E1D
ENCODING 19997
SWIDTH 520 0 
DWIDTH 14 0
BBX 14 14 -1 -4
BITMAP
1080
1080
2100
2920
4A40
73C0
1080
2100
7BE0
0000
FFF0
0000
0000
0000
ENDCHAR
STARTCHAR U+4E1E
ENCODING 19998
SWIDTH 520 0 
DWIDTH 14 0
BBX 14 14 -1 -4
BITMAP
3FC0
0080
0100
0200
7A20
1340
1280
2240
4230
8600
0000
FFF0
0000
0000
ENDCHAR
STARTCHAR U+4E22
ENCODING 20002
SWIDTH 520 0 
DWIDTH 14 0
BBX 14 14 -1 -4
BITMAP
01C0
7E00
0200
3FC0
0200
0200
FFF0
0400
0800
1080
2040
3FE0
0000
0000
ENDCHAR
STARTCHAR U+4E24
ENCODING 20004
SWIDTH 520 0 
DWIDTH 14 0
BBX 14 14 -1 -4
BITMAP
0020
FFF0
0900
7FE0
4920
4920
55A0
5260
6420
4820
4020
4060
0000
0000
ENDCHAR
STARTCHAR U+4E25
ENCODING 20005
SWIDTH 520 0 
DWIDTH 14 0
BBX 14 14 -1 -4
BITMAP
0020
7FF0
0500
2540
1580
7FF0
4000
4000
4000
4000
4000
8000
0000
0000
ENDCHAR
STARTCHAR U+4E27
ENCODING 20007
SWIDTH 520 0 
DWIDTH 14 0
BBX 14 14 -1 -4
BITMAP
0200
7FE0
0200
1240
0A80
FFF0
1400
1440
1280
1500
1880
1070
0000
0000
ENDCHAR
STARTCHAR U+4E28
ENCODING 20008
SWIDTH 520 0 
DWIDTH 14 0
BBX 14 14 -1 -4
BITMAP
0400
0400
0400
0400
0400
0400
0400
0400
0400
0400
0400
0400
0000
0000
ENDCHAR
STARTCHAR U+4E2A
ENCODING 20010
SWIDTH 520 0 
DWIDTH 14 0
BBX 14 14 -1 -4
BITMAP
0400
0400
0A00
1100
2480
C460
0400
0400
0400
0400
0400
0400
0000
0000
ENDCHAR
STARTCHAR U+4E2B
ENCODING 20011
SWIDTH 520 0 
DWIDTH 14 0
BBX 14 14 -1 -4
BITMAP
2040
1080
0900
0200
0400
0400
0400
0400
0400
0400
0400
0400
0000
0000
ENDCHAR
STARTCHAR U+4E2C
ENCODING 20012
SWIDTH 520 0 
DWIDTH 14 0
BBX 14 14 -1 -4
BITMAP
0800
0800
4800
2800
0800
0800
1800
2800
C800
0800
0800
0800
0000
0000
ENDCHAR
STARTCHAR U+4E2D
ENCODING 20013
SWIDTH 520 0 
DWIDTH 14 0
BBX 14 14 -1 -4
BITMAP
0400
0400
7FE0
4420
4420
4420
7FE0
4420
0400
0400
0400
0400
0000
0000
ENDCHAR
STARTCHAR U+4E30
ENCODING 20016
SWIDTH 520 0 
DWIDTH 14 0
BBX 14 14 -1 -4
BITMAP
0400
0400
7FC0
0400
0400
3F80
0400
0400
FFE0
0400
0400
0400
0000
0000
ENDCHAR
STARTCHAR U+4E32
ENCODING 20018
SWIDTH 520 0 
DWIDTH 14 0
BBX 14 14 -1 -4
BITMAP
0400
0400
3FC0
2440
3FC0
0400
7FE0
4420
7FE0
4420
0400
0400
0000
0000
ENDCHAR
STARTCHAR U+4E34
ENCODING 20020
SWIDTH 520 0 
DWIDTH 14 0
BBX 14 14 -1 -4
BITMAP
1200
1200
93E0
9500
9880
9000
97E0
94A0
94A0
94A0
17E0
1420
0000
0000
ENDCHAR
STARTCHAR U+4E36
ENCODING 20022
SWIDTH 520 0 
DWIDTH 14 0
BBX 14 14 -1 -4
BITMAP
0000
0000
0000
0800
0400
0200
0100
0100
0000
0000
0000
0000
0000
0000
ENDCHAR
STARTCHAR U+4E38
ENCODING 20024
SWIDTH 520 0 
DWIDTH 14 0
BBX 14 14 -1 -4
BITMAP
0800
0800
0880
7FC0
0880
0880
1880
0C80
0A80
1090
2090
C070
0000
0000
ENDCHAR
STARTCHAR U+4E39
ENCODING 20025
SWIDTH 520 0 
DWIDTH 14 0
BBX 14 14 -1 -4
BITMAP
1FC0
1040
1440
1240
1240
FFF0
1040
1040
1040
2040
4040
80C0
0000
0000
ENDCHAR
STARTCHAR U+4E3A
ENCODING 20026
SWIDTH 520 0 
DWIDTH 14 0
BBX 14 14 -1 -4
BITMAP
0200
2200
1200
1200
7FE0
0420
0420
0A20
0920
1020
2140
4080
0000
0000
ENDCHAR
STARTCHAR U+4E3B
ENCODING 20027
SWIDTH 520 0 
DWIDTH 14 0
BBX 14 14 -1 -4
BITMAP
0800
0400
0040
7FE0
0400
0400
0400
3FC0
0400
0400
0420
FFF0
0000
0000
ENDCHAR
STARTCHAR U+4E3D
ENCODING 20029
SWIDTH 520 0 
DWIDTH 14 0
BBX 14 14 -1 -4
BITMAP
0020
FFF0
0000
79E0
4920
4920
69A0
5960
4920
4920
4920
5960
0000
0000
ENDCHAR
STARTCHAR U+4E3E
ENCODING 20030
SWIDTH 520 0 
DWIDTH 14 0
BBX 14 14 -1 -4
BITMAP
4440
2480
1100
FFF0
1080
2440
5FB0
8400
7FE0
0400
0400
0400
0000
0000
ENDCHAR
STARTCHAR U+4E3F
ENCODING 20031
SWIDTH 520 0 
DWIDTH 14 0
BBX 14 14 -1 -4
BITMAP
0400
0400
0400
0400
0400
0400
0400
0400
0400
0800
0800
1000
0000
0000
ENDCHAR
STARTCHAR U+4E43
ENCODING 20035
SWIDTH 520 0 
DWIDTH 14 0
BBX 14 14 -1 -4
BITMAP
0000
7FC0
0840
0880
0880
09F0
0810
1010
1010
2010
40A0
8040
0000
0000
ENDCHAR
STARTCHAR U+4E45
ENCODING 20037
SWIDTH 520 0 
DWIDTH 14 0
BBX 14 14 -1 -4
BITMAP
0800
0800
0900
0F80
1100
2100
4200
0500
0880
1040
2020
C010
0000
0000
ENDCHAR
STARTCHAR U+4E47
ENCODING 20039
SWIDTH 520 0 
DWIDTH 14 0
BBX 14 14 -1 -4
BITMAP
0080
07C0
7C00
0400
0420
07F0
FC00
0400
0410
0410
0410
03F0
0000
0000
ENDCHAR
STARTCHAR U+4E48
ENCODING 20040
SWIDTH 520 0 
DWIDTH 14 0
BBX 14 14 -1 -4
BITMAP
0400
0400
0800
0900
1100
2200
4200
8480
0840
1040
3FE0
1020
0000
0000
ENDCHAR
STARTCHAR U+4E49
ENCODING 20041
SWIDTH 520 0 
DWIDTH 14 0
BBX 14 14 -1 -4
BITMAP
0400
2240
2240
1040
1080
0880
0900
0500
0200
0500
18C0
6030
0000
0000
ENDCHAR
STARTCHAR U+4E4B
ENCODING 20043
SWIDTH 520 0 
DWIDTH 14 0
BBX 14 14 -1 -4
BITMAP
0800
0400
7FC0
0080
0100
0200
0400
0800
1000
3000
CC00
03F0
0000
0000
ENDCHAR
STARTCHAR U+4E4C
ENCODING 20044
SWIDTH 520 0 
DWIDTH 14 0
BBX 14 14 -1 -4
BITMAP
0400
3F80
2080
2080
2300
2000
3FE0
0020
FFA0
0020
0140
0080
0000
0000
ENDCHAR
STARTCHAR U+4E4D
ENCODING 20045
SWIDTH 520 0 
DWIDTH 14 0
BBX 14 14 -1 -4
BITMAP
1000
1000
1FF0
2400
4400
87E0
0400
0400
07E0
0400
0400
0400
0000
0000
ENDCHAR
STARTCHAR U+4E4E
ENCODING 20046
SWIDTH 520 0 
DWIDTH 14 0
BBX 14 14 -1 -4
BITMAP
01E0
7E00
0240
2240
1280
1300
FFF0
0200
0200
0200
0200
0600
0000
0000
ENDCHAR
STARTCHAR U+4E4F
ENCODING 20047
SWIDTH 520 0 
DWIDTH 14 0
BBX 14 14 -1 -4
BITMAP
00C0
7F00
0800
0400
7FC0
0080
0100
0600
1800
6000
9800
07F0
0000
0000
ENDCHAR
STARTCHAR U+4E50
ENCODING 20048
SWIDTH 520 0 
DWIDTH 14 0
BBX 14 14 -1 -4
BITMAP
01C0
3E00
2000
2200
2200
7FF0
0200
1280
1240
2220
4220
0600
0000
0000
ENDCHAR
STARTCHAR U+4E52
ENCODING 20050
SWIDTH 520 0 
DWIDTH 14 0
BBX 14 14 -1 -4
BITMAP
00C0
1F00
1000
1000
1FE0
1100
1100
FFF0
0000
0800
1000
6000
0000
0000
ENDCHAR
STARTCHAR U+4E53
ENCODING 20051
SWIDTH 520 0 
DWIDTH 14 0
BBX 14 14 -1 -4
BITMAP
01C0
1E00
1000
1000
1FE0
1100
1100
FFF0
0000
0080
0040
0020
0000
0000
ENDCHAR
STARTCHAR U+4E54
ENCODING 20052
SWIDTH 520 0 
DWIDTH 14 0
BBX 14 14 -1 -4
BITMAP
03C0
7C00
0400
FFF0
0900
1080
28C0
C8B0
0880
0880
1080
6080
0000
0000
ENDCHAR
STARTCHAR U+4E56
ENCODING 20054
SWIDTH 520 0 
DWIDTH 14 0
BBX 14 14 -1 -4
BITMAP
01C0
7E00
0200
FFF0
1280
72A0
12C0
1280
3290
D2F0
0200
0200
0000
0000
ENDCHAR
STARTCHAR U+4E58
ENCODING 20056
SWIDTH 520 0 
DWIDTH 14 0
BBX 14 14 -1 -4
BITMAP
01C0
7E00
0400
FFF0
1480
74E0
1690
ED70
1480
2440
C430
0400
0000
0000
ENDCHAR
STARTCHAR U+4E59
ENCODING 20057
SWIDTH 520 0 
DWIDTH 14 0
BBX 14 14 -1 -4
BITMAP
0000
7F80
0100
0200
0400
0800
1000
2020
4020
4020
3FE0
0000
0000
0000
ENDCHAR
STARTCHAR U+4E5C
ENCODING 20060
SWIDTH 520 0 
DWIDTH 14 0
BBX 14 14 -1 -4
BITMAP
1000
1000
1080
13C0
1C80
F080
1080
1280
1100
1010
1010
0FF0
0000
0000
ENDCHAR
STARTCHAR U+4E5D
ENCODING 20061
SWIDTH 520 0 
DWIDTH 14 0
BBX 14 14 -1 -4
BITMAP
0800
0800
0800
7F80
0880
0880
0880
0880
1080
2090
4090
8070
0000
0000
ENDCHAR
STARTCHAR U+4E5E
ENCODING 20062
SWIDTH 520 0 
DWIDTH 14 0
BBX 14 14 -1 -4
BITMAP
1000
1040
1FE0
2000
4000
BF80
0200
0400
0810
1010
1010
0FF0
0000
0000
ENDCHAR
STARTCHAR U+4E5F
ENCODING 20063
SWIDTH 520 0 
DWIDTH 14 0
BBX 14 14 -1 -4
BITMAP
0400
0400
24C0
2740
3C40
E440
2440
2580
2410
2410
2010
1FF0
0000
0000
ENDCHAR
STARTCHAR U+4E60
ENCODING 20064
SWIDTH 520 0 
DWIDTH 14 0
BBX 14 14 -1 -4
BITMAP
0000
7FE0
1020
0820
0420
0420
01A0
0620
1820
6020
0140
0080
0000
0000
ENDCHAR
STARTCHAR U+4E61
ENCODING 20065
SWIDTH 520 0 
DWIDTH 14 0
BBX 14 14 -1 -4
BITMAP
0200
0400
0880
3F00
0200
0420
0840
1FC0
0080
0100
0600
3800
0000
0000
ENDCHAR
STARTCHAR U+4E66
ENCODING 20070
SWIDTH 520 0 
DWIDTH 14 0
BBX 14 14 -1 -4
BITMAP
0440
0420
7FD0
0440
0440
0440
FFF0
0410
0410
04A0
0440
0400
0000
0000
ENDCHAR
STARTCHAR U+4E69
ENCODING 20073
SWIDTH 520 0 
DWIDTH 14 0
BBX 14 14 -1 -4
BITMAP
1100
1100
1100
1F00
1100
1100
7D00
4500
4500
4510
7D10
44F0
0000
0000
ENDCHAR
STARTCHAR U+4E70
ENCODING 20080
SWIDTH 520 0 
DWIDTH 14 0
BBX 14 14 -1 -4
BITMAP
0020
7FF0
0020
1240
0A00
2200
1200
FFF0
0500
0880
1060
6020
0000
0000
ENDCHAR
STARTCHAR U+4E71
ENCODING 20081
SWIDTH 520 0 
DWIDTH 14 0
BBX 14 14 -1 -4
BITMAP
0C80
7080
1080
1080
FE80
1080
1080
7C80
4480
4490
7C90
4470
0000
0000
ENDCHAR
STARTCHAR U+4E73
ENCODING 20083
SWIDTH 520 0 
DWIDTH 14 0
BBX 14 14 -1 -4
BITMAP
0E80
F080
5280
5480
0080
7E80
0480
0E80
F880
0890
0890
1870
0000
0000
ENDCHAR
STARTCHAR U+4E7E
ENCODING 20094
SWIDTH 520 0 
DWIDTH 14 0
BBX 14 14 -1 -4
BITMAP
1100
FD00
11F0
7D00
4600
7DE0
4440
7C80
1100
FE10
1210
11F0
0000
0000
ENDCHAR
STARTCHAR U+4E86
ENCODING 20102
SWIDTH 520 0 
DWIDTH 14 0
BBX 14 14 -1 -4
BITMAP
0040
7FE0
0080
0100
0200
0200
0200
0200
0200
0200
0A00
0400
0000
0000
ENDCHAR
STARTCHAR U+4E88
ENCODING 20104
SWIDTH 520 0 
DWIDTH 14 0
BBX 14 14 -1 -4
BITMAP
0040
3FE0
0080
0500
0200
FFF0
0220
0240
0200
0200
0200
0600
0000
0000
ENDCHAR
STARTCHAR U+4E89
ENCODING 20105
SWIDTH 520 0 
DWIDTH 14 0
BBX 14 14 -1 -4
BITMAP
0800
1F00
2200
7FC0
0440
FFF0
0440
0440
3FC0
0400
0400
0C00
0000
0000
ENDCHAR
STARTCHAR U+4E8B
ENCODING 20107
SWIDTH 520 0 
DWIDTH 14 0
BBX 14 14 -1 -4
BITMAP
0220
FFF0
0200
3FC0
2240
7FC0
0240
FFF0
0240
7FC0
0200
0600
0000
0000
ENDCHAR
STARTCHAR U+4E8C
ENCODING 20108
SWIDTH 520 0 
DWIDTH 14 0
BBX 14 14 -1 -4
BITMAP
0000
0040
3FE0
0000
0000
0000
0000
0000
0000
0020
7FF0
0000
0000
0000
ENDCHAR
STARTCHAR U+4E8D
ENCODING 20109
SWIDTH 520 0 
DWIDTH 14 0
BBX 14 14 -1 -4
BITMAP
0040
7FE0
0000
0000
FFF0
0200
0200
0200
0200
0200
0A00
0400
0000
0000
ENDCHAR
STARTCHAR U+4E8E
ENCODING 20110
SWIDTH 520 0 
DWIDTH 14 0
BBX 14 14 -1 -4
BITMAP
0040
7FE0
0200
0200
0200
FFF0
0200
0200
0200
0200
0200
0600
0000
0000
ENDCHAR
STARTCHAR U+4E8F
ENCODING 20111
SWIDTH 520 0 
DWIDTH 14 0
BBX 14 14 -1 -4
BITMAP
0000
3FC0
0000
FFF0
0800
0800
1FC0
0040
0040
0040
0480
0300
0000
0000
ENDCHAR
STARTCHAR U+4E91
ENCODING 20113
SWIDTH 520 0 
DWIDTH 14 0
BBX 14 14 -1 -4
BITMAP
0080
3FC0
0000
0000
0020
FFF0
0400
0800
1080
2040
7FE0
2020
0000
0000
ENDCHAR
STARTCHAR U+4E92
ENCODING 20114
SWIDTH 520 0 
DWIDTH 14 0
BBX 14 14 -1 -4
BITMAP
0040
FFE0
0800
0800
0F80
1080
1080
1080
1F00
0100
0100
FFF0
0000
0000
ENDCHAR
STARTCHAR U+4E93
ENCODING 20115
SWIDTH 520 0 
DWIDTH 14 0
BBX 14 14 -1 -4
BITMAP
0040
3FE0
0000
0000
FFF0
0880
0880
0880
0880
1080
2080
4080
0000
0000
ENDCHAR
STARTCHAR U+4E94
ENCODING 20116
SWIDTH 520 0 
DWIDTH 14 0
BBX 14 14 -1 -4
BITMAP
0040
7FE0
0400
0400
0400
3FC0
0840
0840
0840
0840
0840
FFF0
0000
0000
ENDCHAR
STARTCHAR U+4E95
ENCODING 20117
SWIDTH 520 0 
DWIDTH 14 0
BBX 14 14 -1 -4
BITMAP
0900
0900
0900
7FE0
0900
0900
FFF0
0900
0900
1100
2100
4100
0000
0000
ENDCHAR
STARTCHAR U+4E98
ENCODING 20120
SWIDTH 520 0 
DWIDTH 14 0
BBX 14 14 -1 -4
BITMAP
0020
7FF0
0000
1FC0
1040
1FC0
1040
1040
1FC0
1040
0000
FFF0
0000
0000
ENDCHAR
STARTCHAR U+4E9A
ENCODING 20122
SWIDTH 520 0 
DWIDTH 14 0
BBX 14 14 -1 -4
BITMAP
0000
7FE0
0900
0900
4920
2920
2940
1980
0900
0900
0900
FFF0
0000
0000
ENDCHAR
STARTCHAR U+4E9B
ENCODING 20123
SWIDTH 520 0 
DWIDTH 14 0
BBX 14 14 -1 -4
BITMAP
1100
1100
5D20
51C0
5110
5D10
F0F0
4000
3FC0
0000
0000
FFF0
0000
0000
ENDCHAR
STARTCHAR U+4E9F
ENCODING 20127
SWIDTH 520 0 
DWIDTH 14 0
BBX 14 14 -1 -4
BITMAP
3FC0
0080
0100
7AE0
4A20
4AA0
4A40
7AA0
4310
0600
0000
FFF0
0000
0000
ENDCHAR
STARTCHAR U+4EA0
ENCODING 20128
SWIDTH 520 0 
DWIDTH 14 0
BBX 14 14 -1 -4
BITMAP
0000
0000
0400
0200
0220
FFF0
0000
0000
0000
0000
0000
0000
0000
0000
ENDCHAR
STARTCHAR U+4EA1
ENCODING 20129
SWIDTH 520 0 
DWIDTH 14 0
BBX 14 14 -1 -4
BITMAP
0400
0200
0220
FFF0
2000
2000
2000
2000
2000
2000
3FF0
0000
0000
0000
ENDCHAR
STARTCHAR U+4EA2
ENCODING 20130
SWIDTH 520 0 
DWIDTH 14 0
BBX 14 14 -1 -4
BITMAP
0800
0400
FFF0
0000
1F00
1100
1100
1100
1100
1110
2110
C0F0
0000
0000
ENDCHAR
STARTCHAR U+4EA4
ENCODING 20132
SWIDTH 520 0 
DWIDTH 14 0
BBX 14 14 -1 -4
BITMAP
0400
0200
FFF0
1080
2040
5120
9100
0A00
0400
0A00
1180
E070
0000
0000
ENDCHAR
STARTCHAR U+4EA5
ENCODING 20133
SWIDTH 520 0 
DWIDTH 14 0
BBX 14 14 -1 -4
BITMAP
0400
0200
FFF0
0880
1100
3E00
0440
0880
1100
2280
0440
3820
0000
0000
ENDCHAR
STARTCHAR U+4EA6
ENCODING 20134
SWIDTH 520 0 
DWIDTH 14 0
BBX 14 14 -1 -4
BITMAP
0400
0200
FFF0
0900
0900
2940
2920
4910
8910
1100
2100
4300
0000
0000
ENDCHAR
STARTCHAR U+4EA7
ENCODING 20135
SWIDTH 520 0 
DWIDTH 14 0
BBX 14 14 -1 -4
BITMAP
0400
0200
FFF0
1080
0900
7FE0
4000
4000
4000
4000
8000
8000
0000
0000
ENDCHAR
STARTCHAR U+4EA8
ENCODING 20136
SWIDTH 520 0 
DWIDTH 14 0
BBX 14 14 -1 -4
BITMAP
0200
FFF0
0000
3F80
2080
3F80
0000
7FC0
0100
0200
0200
0600
0000
0000
ENDCHAR
STARTCHAR U+4EA9
ENCODING 20137
SWIDTH 520 0 
DWIDTH 14 0
BBX 14 14 -1 -4
BITMAP
0400
0200
FFF0
0000
3FC0
2240
2240
3FC0
2240
2240
3FC0
2040
0000
0000
ENDCHAR
STARTCHAR U+4EAB
ENCODING 20139
SWIDTH 520 0 
DWIDTH 14 0
BBX 14 14 -1 -4
BITMAP
0200
FFF0
0000
1FC0
1040
1FC0
0000
3FC0
0100
FFF0
0200
0600
0000
0000
ENDCHAR
STARTCHAR U+4EAC
ENCODING 20140
SWIDTH 520 0 
DWIDTH 14 0
BBX 14 14 -1 -4
BITMAP
0400
0200
FFF0
0000
1FC0
1040
1040
1FC0
1280
2240
4220
0600
0000
0000
ENDCHAR
STARTCHAR U+4EAD
ENCODING 20141
SWIDTH 520 0 
DWIDTH 14 0
BBX 14 14 -1 -4
BITMAP
0200
7FE0
0000
1F80
1080
1F80
FFF0
8010
3FC0
0200
0200
0600
0000
0000
ENDCHAR
STARTCHAR U+4EAE
ENCODING 20142
SWIDTH 520 0 
DWIDTH 14 0
BBX 14 14 -1 -4
BITMAP
0400
FFF0
0000
1F80
1080
7FF0
4010
8F20
0900
0910
1110
60F0
0000
0000
ENDCHAR
STARTCHAR U+4EB2
ENCODING 20146
SWIDTH 520 0 
DWIDTH 14 0
BBX 14 14 -1 -4
BITMAP
0400
7FE0
1080
0900
FFF0
0000
0200
7FE0
1280
2240
4220
0600
0000
0000
ENDCHAR
STARTCHAR U+4EB3
ENCODING 20147
SWIDTH 520 0 
DWIDTH 14 0
BBX 14 14 -1 -4
BITMAP
0400
FFF0
0000
1F80
1080
7FF0
4010
BF80
0460
7F80
0410
07F0
0000
0000
ENDCHAR
STARTCHAR U+4EB5
ENCODING 20149
SWIDTH 520 0 
DWIDTH 14 0
BBX 14 14 -1 -4
BITMAP
0400
FFF0
2200
77C0
2240
F550
28B0
6440
0A80
3100
D480
1870
0000
0000
ENDCHAR
STARTCHAR U+4EBA
ENCODING 20154
SWIDTH 520 0 
DWIDTH 14 0
BBX 14 14 -1 -4
BITMAP
0400
0400
0400
0400
0400
0400
0A00
0A00
1100
2080
4070
8020
0000
0000
ENDCHAR
STARTCHAR U+4EBB
ENCODING 20155
SWIDTH 520 0 
DWIDTH 14 0
BBX 14 14 -1 -4
BITMAP
0800
0800
1000
1000
3000
5000
9000
1000
1000
1000
1000
1000
0000
0000
ENDCHAR
STARTCHAR U+4EBF
ENCODING 20159
SWIDTH 520 0 
DWIDTH 14 0
BBX 14 14 -1 -4
BITMAP
1000
17C0
2040
2080
6100
A200
2400
2400
2810
2810
2810
27F0
0000
0000
ENDCHAR
STARTCHAR U+4EC0
ENCODING 20160
SWIDTH 520 0 
DWIDTH 14 0
BBX 14 14 -1 -4
BITMAP
1100
1100
2100
2100
6FF0
A100
2100
2100
2100
2100
2100
2100
0000
0000
ENDCHAR
STARTCHAR U+4EC1
ENCODING 20161
SWIDTH 520 0 
DWIDTH 14 0
BBX 14 14 -1 -4
BITMAP
1000
1000
27E0
2000
6000
A000
2000
2000
2000
2000
2FF0
2000
0000
0000
ENDCHAR
STARTCHAR U+4EC2
ENCODING 20162
SWIDTH 520 0 
DWIDTH 14 0
BBX 14 14 -1 -4
BITMAP
1100
1100
2100
2FF0
6110
A110
2110
2110
2210
2210
24A0
2840
0000
0000
ENDCHAR
STARTCHAR U+4EC3
ENCODING 20163
SWIDTH 520 0 
DWIDTH 14 0
BBX 14 14 -1 -4
BITMAP
1000
1020
2FF0
2080
6080
A080
2080
2080
2080
2080
2080
2180
0000
0000
ENDCHAR
STARTCHAR U+4EC4
ENCODING 20164
SWIDTH 520 0 
DWIDTH 14 0
BBX 14 14 -1 -4
BITMAP
0020
3FF0
2000
2200
2200
2200
2200
2500
2480
4840
5030
A020
0000
0000
ENDCHAR
STARTCHAR U+4EC5
ENCODING 20165
SWIDTH 520 0 
DWIDTH 14 0
BBX 14 14 -1 -4
BITMAP
1000
1FE0
2420
2420
6420
A440
2240
2280
2100
2280
2440
3830
0000
0000
ENDCHAR
STARTCHAR U+4EC6
ENCODING 20166
SWIDTH 520 0 
DWIDTH 14 0
BBX 14 14 -1 -4
BITMAP
0900
0900
1100
1100
31C0
5120
9110
1100
1100
1100
1100
1100
0000
0000
ENDCHAR
STARTCHAR U+4EC7
ENCODING 20167
SWIDTH 520 0 
DWIDTH 14 0
BBX 14 14 -1 -4
BITMAP
1200
1200
2200
23C0
6E40
A240
2240
2240
2440
2450
2850
3070
0000
0000
ENDCHAR
STARTCHAR U+4EC9
ENCODING 20169
SWIDTH 520 0 
DWIDTH 14 0
BBX 14 14 -1 -4
BITMAP
1040
17E0
2440
2440
6440
A440
2440
2440
2440
2850
2850
3070
0000
0000
ENDCHAR
STARTCHAR U+4ECA
ENCODING 20170
SWIDTH 520 0 
DWIDTH 14 0
BBX 14 14 -1 -4
BITMAP
0400
0A00
1100
2080
C460
0200
3F80
0080
0100
0100
0200
0200
0000
0000
ENDCHAR
STARTCHAR U+4ECB
ENCODING 20171
SWIDTH 520 0 
DWIDTH 14 0
BBX 14 14 -1 -4
BITMAP
0400
0A00
1100
2080
C060
1100
1100
1100
1100
1100
2100
4100
0000
0000
ENDCHAR
STARTCHAR U+4ECD
ENCODING 20173
SWIDTH 520 0 
DWIDTH 14 0
BBX 14 14 -1 -4
BITMAP
1040
17E0
2240
2240
6240
A270
2210
2210
2410
2410
28A0
3040
0000
0000
ENDCHAR
STARTCHAR U+4ECE
ENCODING 20174
SWIDTH 520 0 
DWIDTH 14 0
BBX 14 14 -1 -4
BITMAP
1100
1100
1100
1100
1100
1100
1100
2A80
2680
4440
8820
1010
0000
0000
ENDCHAR
STARTCHAR U+4ED1
ENCODING 20177
SWIDTH 520 0 
DWIDTH 14 0
BBX 14 14 -1 -4
BITMAP
0400
0600
0900
1080
2040
D030
1080
1300
1C00
1040
1040
0FC0
0000
0000
ENDCHAR
STARTCHAR U+4ED3
ENCODING 20179
SWIDTH 520 0 
DWIDTH 14 0
BBX 14 14 -1 -4
BITMAP
0400
0600
0900
1080
2040
DFB0
1080
1080
1300
1020
1020
0FE0
0000
0000
ENDCHAR
STARTCHAR U+4ED4
ENCODING 20180
SWIDTH 520 0 
DWIDTH 14 0
BBX 14 14 -1 -4
BITMAP
1000
17E0
2040
2080
6100
A100
2FF0
2100
2100
2100
2100
2300
0000
0000
ENDCHAR
STARTCHAR U+4ED5
ENCODING 20181
SWIDTH 520 0 
DWIDTH 14 0
BBX 14 14 -1 -4
BITMAP
1100
1100
2100
2100
6FF0
A100
2100
2100
2100
2100
27E0
2000
0000
0000
ENDCHAR
STARTCHAR U+4ED6
ENCODING 20182
SWIDTH 520 0 
DWIDTH 14 0
BBX 14 14 -1 -4
BITMAP
1100
1100
2100
25E0
6720
AD20
2520
25C0
2500
2510
2410
23F0
0000
0000
ENDCHAR
STARTCHAR U+4ED7
ENCODING 20183
SWIDTH 520 0 
DWIDTH 14 0
BBX 14 14 -1 -4
BITMAP
1080
1080
2080
2FF0
6080
A480
2480
2280
2100
2280
2440
2830
0000
0000
ENDCHAR
STARTCHAR U+4ED8
ENCODING 20184
SWIDTH 520 0 
DWIDTH 14 0
BBX 14 14 -1 -4
BITMAP
1040
1040
2040
2FF0
6040
A040
2440
2240
2240
2040
2040
20C0
0000
0000
ENDCHAR
STARTCHAR U+4ED9
ENCODING 20185
SWIDTH 520 0 
DWIDTH 14 0
BBX 14 14 -1 -4
BITMAP
1080
1080
2080
2490
6490
A490
2490
2490
2490
2490
27F0
2410
0000
0000
ENDCHAR
STARTCHAR U+4EDD
ENCODING 20189
SWIDTH 520 0 
DWIDTH 14 0
BBX 14 14 -1 -4
BITMAP
0400
0600
0900
1080
2040
C030
3FC0
0400
0400
0400
0400
7FE0
0000
0000
ENDCHAR
STARTCHAR U+4EDE
ENCODING 20190
SWIDTH 520 0 
DWIDTH 14 0
BBX 14 14 -1 -4
BITMAP
1000
1020
2FF0
2120
6520
A520
2920
2120
2220
2220
24A0
2840
0000
0000
ENDCHAR
STARTCHAR U+4EDF
ENCODING 20191
SWIDTH 520 0 
DWIDTH 14 0
BBX 14 14 -1 -4
BITMAP
1060
1780
2080
2080
6080
AFF0
2080
2080
2080
2080
2080
2080
0000
0000
ENDCHAR
STARTCHAR U+4EE1
ENCODING 20193
SWIDTH 520 0 
DWIDTH 14 0
BBX 14 14 -1 -4
BITMAP
1200
1200
23E0
2400
6800
A780
2080
2100
2200
2410
2410
23F0
0000
0000
ENDCHAR
STARTCHAR U+4EE3
ENCODING 20195
SWIDTH 520 0 
DWIDTH 14 0
BBX 14 14 -1 -4
BITMAP
1100
1140
1120
2100
2FF0
6100
A100
2100
2080
2090
2050
2030
0000
0000
ENDCHAR
STARTCHAR U+4EE4
ENCODING 20196
SWIDTH 520 0 
DWIDTH 14 0
BBX 14 14 -1 -4
BITMAP
0400
0600
0900
1080
2440
C230
1FC0
0080
0100
0E00
0200
0100
0000
0000
ENDCHAR
STARTCHAR U+4EE5
ENCODING 20197
SWIDTH 520 0 
DWIDTH 14 0
BBX 14 14 -1 -4
BITMAP
0040
4840
4440
4240
4040
4040
4440
4880
5140
6220
0410
1800
0000
0000
ENDCHAR
STARTCHAR U+4EE8
ENCODING 20200
SWIDTH 520 0 
DWIDTH 14 0
BBX 14 14 -1 -4
BITMAP
1000
1020
2FF0
2000
6000
A000
27E0
2000
2000
2000
2020
2FF0
0000
0000
ENDCHAR
STARTCHAR U+4EEA
ENCODING 20202
SWIDTH 520 0 
DWIDTH 14 0
BBX 14 14 -1 -4
BITMAP
1200
1100
2120
2420
6420
A440
2240
2280
2100
2280
2440
3830
0000
0000
ENDCHAR
STARTCHAR U+4EEB
ENCODING 20203
SWIDTH 520 0 
DWIDTH 14 0
BBX 14 14 -1 -4
BITMAP
1080
1080
1100
2100
2240
6440
A880
2100
2240
2420
2FF0
2410
0000
0000
ENDCHAR
STARTCHAR U+4EEC
ENCODING 20204
SWIDTH 520 0 
DWIDTH 14 0
BBX 14 14 -1 -4
BITMAP
1400
12E0
2820
2820
6820
A820
2820
2820
2820
2820
2820
2860
0000
0000
ENDCHAR
STARTCHAR U+4EF0
ENCODING 20208
SWIDTH 520 0 
DWIDTH 14 0
BBX 14 14 -1 -4
BITMAP
1000
1300
2CF0
6890
A890
2890
2890
2A90
2CD0
28A0
2080
2080
0000
0000
ENDCHAR
STARTCHAR U+4EF2
ENCODING 20210
SWIDTH 520 0 
DWIDTH 14 0
BBX 14 14 -1 -4
BITMAP
1080
1080
2080
27F0
6490
A490
27F0
2490
2080
2080
2080
2080
0000
0000
ENDCHAR
STARTCHAR U+4EF3
ENCODING 20211
SWIDTH 520 0 
DWIDTH 14 0
BBX 14 14 -1 -4
BITMAP
1080
1880
2880
2890
6EA0
A8C0
2880
2880
2880
2A90
2C90
2870
0000
0000
ENDCHAR
STARTCHAR U+4EF5
ENCODING 20213
SWIDTH 520 0 
DWIDTH 14 0
BBX 14 14 -1 -4
BITMAP
1200
1200
27E0
2480
6880
A080
2FF0
2080
2080
2080
2080
2080
0000
0000
ENDCHAR
STARTCHAR U+4EF6
ENCODING 20214
SWIDTH 520 0 
DWIDTH 14 0
BBX 14 14 -1 -4
BITMAP
1080
1480
2480
27E0
6880
A080
2FF0
2080
2080
2080
2080
2080
0000
0000
ENDCHAR
STARTCHAR U+4EF7
ENCODING 20215
SWIDTH 520 0 
DWIDTH 14 0
BBX 14 14 -1 -4
BITMAP
1100
1100
2280
2440
6820
B490
2480
2480
2480
2480
2880
3080
0000
0000
ENDCHAR
STARTCHAR U+4EFB
ENCODING 20219
SWIDTH 520 0 
DWIDTH 14 0
BBX 14 14 -1 -4
BITMAP
1040
10E0
2F00
2100
6100
A100
2FF0
2100
2100
2100
2100
2FF0
0000
0000
ENDCHAR
STARTCHAR U+4EFD
ENCODING 20221
SWIDTH 520 0 
DWIDTH 14 0
BBX 14 14 -1 -4
BITMAP
1080
1280
2240
2440
6820
B7D0
2240
2240
2240
2440
2940
3080
0000
0000
ENDCHAR
STARTCHAR U+4EFF
ENCODING 20223
SWIDTH 520 0 
DWIDTH 14 0
BBX 14 14 -1 -4
BITMAP
1100
1080
2FF0
2200
6200
A3E0
2220
2220
2220
2420
2940
3080
0000
0000
ENDCHAR
STARTCHAR U+4F01
ENCODING 20225
SWIDTH 520 0 
DWIDTH 14 0
BBX 14 14 -1 -4
BITMAP
0400
0600
0900
1080
2240
C230
1200
13C0
1200
1200
1200
FFF0
0000
0000
ENDCHAR
STARTCHAR U+4F09
ENCODING 20233
SWIDTH 520 0 
DWIDTH 14 0
BBX 14 14 -1 -4
BITMAP
1200
1100
2FF0
2000
6780
A480
2480
2480
2480
2490
2890
3070
0000
0000
ENDCHAR
STARTCHAR U+4F0A
ENCODING 20234
SWIDTH 520 0 
DWIDTH 14 0
BBX 14 14 -1 -4
BITMAP
1000
1FC0
2240
2240
6FF0
A240
2240
2FC0
2240
2400
2800
3000
0000
0000
ENDCHAR
STARTCHAR U+4F0D
ENCODING 20237
SWIDTH 520 0 
DWIDTH 14 0
BBX 14 14 -1 -4
BITMAP
1000
1FE0
2200
2200
6200
AFC0
2240
2240
2240
2440
2440
3FF0
0000
0000
ENDCHAR
STARTCHAR U+4F0E
ENCODING 20238
SWIDTH 520 0 
DWIDTH 14 0
BBX 14 14 -1 -4
BITMAP
1100
1100
2FF0
2100
6100
AFE0
2440
2440
2280
2100
2280
2C70
0000
0000
ENDCHAR
STARTCHAR U+4F0F
ENCODING 20239
SWIDTH 520 0 
DWIDTH 14 0
BBX 14 14 -1 -4
BITMAP
1100
1140
2120
2100
6FF0
A100
2100
2280
2280
2440
2820
3010
0000
0000
ENDCHAR
STARTCHAR U+4F10
ENCODING 20240
SWIDTH 520 0 
DWIDTH 14 0
BBX 14 14 -1 -4
BITMAP
1280
1240
2220
23F0
6E00
A220
2120
2140
2080
2190
2250
2C30
0000
0000
ENDCHAR
STARTCHAR U+4F11
ENCODING 20241
SWIDTH 520 0 
DWIDTH 14 0
BBX 14 14 -1 -4
BITMAP
1100
1100
2100
2FF0
6100
A380
2540
2540
2920
3110
2100
2100
0000
0000
ENDCHAR
STARTCHAR U+4F17
ENCODING 20247
SWIDTH 520 0 
DWIDTH 14 0
BBX 14 14 -1 -4
BITMAP
0400
0400
0A00
1100
20C0
D030
1080
1080
2880
2540
4220
8410
0000
0000
ENDCHAR
STARTCHAR U+4F18
ENCODING 20248
SWIDTH 520 0 
DWIDTH 14 0
BBX 14 14 -1 -4
BITMAP
1200
1240
2220
6FF0
A280
2280
2280
2280
2280
2490
2890
3070
0000
0000
ENDCHAR
STARTCHAR U+4F19
ENCODING 20249
SWIDTH 520 0 
DWIDTH 14 0
BBX 14 14 -1 -4
BITMAP
1100
1100
2100
2520
6540
A580
2900
2280
2280
2440
2820
3010
0000
0000
ENDCHAR
STARTCHAR U+4F1A
ENCODING 20250
SWIDTH 520 0 
DWIDTH 14 0
BBX 14 14 -1 -4
BITMAP
0400
0600
0900
1080
2040
DFB0
0000
7FE0
0800
1100
2080
3FC0
0000
0000
ENDCHAR
STARTCHAR U+4F1B
ENCODING 20251
SWIDTH 520 0 
DWIDTH 14 0
BBX 14 14 -1 -4
BITMAP
1020
1FF0
2800
2A40
6940
A880
2880
2940
2A20
2800
2800
2FF0
0000
0000
ENDCHAR
STARTCHAR U+4F1E
ENCODING 20254
SWIDTH 520 0 
DWIDTH 14 0
BBX 14 14 -1 -4
BITMAP
0400
0A00
1100
2480
4440
A4B0
1500
0400
FFE0
0400
0400
0400
0000
0000
ENDCHAR
STARTCHAR U+4F1F
ENCODING 20255
SWIDTH 520 0 
DWIDTH 14 0
BBX 14 14 -1 -4
BITMAP
1100
1120
2FF0
2100
67E0
A100
2FF0
2110
2110
2150
2120
2100
0000
0000
ENDCHAR
STARTCHAR U+4F20
ENCODING 20256
SWIDTH 520 0 
DWIDTH 14 0
BBX 14 14 -1 -4
BITMAP
1100
1100
27E0
2100
6100
AFF0
2200
23E0
2040
2280
2180
2040
0000
0000
ENDCHAR
STARTCHAR U+4F22
ENCODING 20258
SWIDTH 520 0 
DWIDTH 14 0
BBX 14 14 -1 -4
BITMAP
1000
17F0
2040
2440
6440
A7F0
2140
2140
2240
2440
2840
20C0
0000
0000
ENDCHAR
STARTCHAR U+4F24
ENCODING 20260
SWIDTH 520 0 
DWIDTH 14 0
BBX 14 14 -1 -4
BITMAP
1400
1420
27F0
6900
B100
2FE0
2120
2120
2120
2220
24A0
2840
0000
0000
ENDCHAR
STARTCHAR U+4F25
ENCODING 20261
SWIDTH 520 0 
DWIDTH 14 0
BBX 14 14 -1 -4
BITMAP
1400
1420
2440
2480
6500
BFF0
2500
2500
2480
2440
2530
2600
0000
0000
ENDCHAR
STARTCHAR U+4F26
ENCODING 20262
SWIDTH 520 0 
DWIDTH 14 0
BBX 14 14 -1 -4
BITMAP
1100
1100
2280
6440
A830
2400
24C0
2700
2400
2420
2420
23E0
0000
0000
ENDCHAR
STARTCHAR U+4F27
ENCODING 20263
SWIDTH 520 0 
DWIDTH 14 0
BBX 14 14 -1 -4
BITMAP
1100
1100
2280
2440
6830
B7C0
2440
2440
2580
2420
2420
23E0
0000
0000
ENDCHAR
STARTCHAR U+4F2A
ENCODING 20266
SWIDTH 520 0 
DWIDTH 14 0
BBX 14 14 -1 -4
BITMAP
1100
1900
2500
2120
6FF0
A120
2120
22A0
22A0
2420
2920
30C0
0000
0000
ENDCHAR
STARTCHAR U+4F2B
ENCODING 20267
SWIDTH 520 0 
DWIDTH 14 0
BBX 14 14 -1 -4
BITMAP
1200
1100
2000
2FF0
6810
A000
2000
2000
2000
2020
2FF0
2000
0000
0000
ENDCHAR
STARTCHAR U+4F2F
ENCODING 20271
SWIDTH 520 0 
DWIDTH 14 0
BBX 14 14 -1 -4
BITMAP
1080
1100
27E0
2420
6420
A420
27E0
2420
2420
2420
27E0
2420
0000
0000
ENDCHAR
STARTCHAR U+4F30
ENCODING 20272
SWIDTH 520 0 
DWIDTH 14 0
BBX 14 14 -1 -4
BITMAP
1100
1100
2100
2FF0
6100
A100
27E0
2420
2420
2420
27E0
2420
0000
0000
ENDCHAR
STARTCHAR U+4F32
ENCODING 20274
SWIDTH 520 0 
DWIDTH 14 0
BBX 14 14 -1 -4
BITMAP
1020
17F0
2420
27E0
6400
A500
2520
2540
2990
2910
3110
20F0
0000
0000
ENDCHAR
STARTCHAR U+4F34
ENCODING 20276
SWIDTH 520 0 
DWIDTH 14 0
BBX 14 14 -1 -4
BITMAP
1100
1100
2920
2540
6FE0
A100
2100
3FF0
2100
2100
2100
2100
0000
0000
ENDCHAR
STARTCHAR U+4F36
ENCODING 20278
SWIDTH 520 0 
DWIDTH 14 0
BBX 14 14 -1 -4
BITMAP
1100
1100
2280
6440
AA20
3110
2FC0
2040
2080
2280
2100
2080
0000
0000
ENDCHAR
STARTCHAR U+4F38
ENCODING 20280
SWIDTH 520 0 
DWIDTH 14 0
BBX 14 14 -1 -4
BITMAP
1100
1100
2FE0
6920
A920
2FE0
2920
2920
2FE0
2100
2100
2100
0000
0000
ENDCHAR
STARTCHAR U+4F3A
ENCODING 20282
SWIDTH 520 0 
DWIDTH 14 0
BBX 14 14 -1 -4
BITMAP
1020
17F0
2020
2FA0
6020
A7A0
24A0
24A0
27A0
2020
2020
2060
0000
0000
ENDCHAR
STARTCHAR U+4F3C
ENCODING 20284
SWIDTH 520 0 
DWIDTH 14 0
BBX 14 14 -1 -4
BITMAP
1000
1020
2A20
2920
6920
A820
2820
2920
2A40
2CA0
2110
2610
0000
0000
ENDCHAR
STARTCHAR U+4F3D
ENCODING 20285
SWIDTH 520 0 
DWIDTH 14 0
BBX 14 14 -1 -4
BITMAP
2800
2800
3EF0
6A90
6A90
AA90
2A90
2A90
2A90
2A90
32F0
2690
0000
0000
ENDCHAR
STARTCHAR U+4F43
ENCODING 20291
SWIDTH 520 0 
DWIDTH 14 0
BBX 14 14 -1 -4
BITMAP
1000
1000
2FE0
2920
6920
A920
2FE0
2920
2920
2920
2FE0
2820
0000
0000
ENDCHAR
STARTCHAR U+4F46
ENCODING 20294
SWIDTH 520 0 
DWIDTH 14 0
BBX 14 14 -1 -4
BITMAP
1000
17E0
2420
2420
6420
A7E0
2420
2420
27E0
2000
2000
2FF0
0000
0000
ENDCHAR
STARTCHAR U+4F4D
ENCODING 20301
SWIDTH 520 0 
DWIDTH 14 0
BBX 14 14 -1 -4
BITMAP
1200
1100
2100
2FF0
6000
A840
2440
2440
2280
2280
2080
2FF0
0000
0000
ENDCHAR
STARTCHAR U+4F4E
ENCODING 20302
SWIDTH 520 0 
DWIDTH 14 0
BBX 14 14 -1 -4
BITMAP
1040
10E0
2F00
2900
6900
AFF0
2880
2880
2880
2A50
2D30
2110
0000
0000
ENDCHAR
STARTCHAR U+4F4F
ENCODING 20303
SWIDTH 520 0 
DWIDTH 14 0
BBX 14 14 -1 -4
BITMAP
1200
1100
2020
2FF0
6100
A100
2100
27E0
2100
2100
2100
2FF0
0000
0000
ENDCHAR
STARTCHAR U+4F50
ENCODING 20304
SWIDTH 520 0 
DWIDTH 14 0
BBX 14 14 -1 -4
BITMAP
1200
1200
2200
2FF0
6200
A400
27E0
2900
3100
2100
2100
2FF0
0000
0000
ENDCHAR
STARTCHAR U+4F51
ENCODING 20305
SWIDTH 520 0 
DWIDTH 14 0
BBX 14 14 -1 -4
BITMAP
1100
1100
2100
2FF0
6200
A400
2FE0
3420
2420
2420
27E0
2420
0000
0000
ENDCHAR
STARTCHAR U+4F53
ENCODING 20307
SWIDTH 520 0 
DWIDTH 14 0
BBX 14 14 -1 -4
BITMAP
1100
1100
2100
2FF0
6100
A380
2540
2920
3110
27C0
2100
2100
0000
0000
ENDCHAR
STARTCHAR U+4F55
ENCODING 20309
SWIDTH 520 0 
DWIDTH 14 0
BBX 14 14 -1 -4
BITMAP
1000
1FF0
2040
2040
6F40
A940
2940
2F40
2940
2040
2040
20C0
0000
0000
ENDCHAR
STARTCHAR U+4F57
ENCODING 20311
SWIDTH 520 0 
DWIDTH 14 0
BBX 14 14 -1 -4
BITMAP
1100
1080
2FF0
2810
6400
A420
2460
2580
2600
2410
2410
23F0
0000
0000
ENDCHAR
STARTCHAR U+4F58
ENCODING 20312
SWIDTH 520 0 
DWIDTH 14 0
BBX 14 14 -1 -4
BITMAP
0400
0A00
1100
20C0
DF30
0000
7FC0
0400
1480
2440
C420
0C00
0000
0000
ENDCHAR
STARTCHAR U+4F59
ENCODING 20313
SWIDTH 520 0 
DWIDTH 14 0
BBX 14 14 -1 -4
BITMAP
0400
0A00
1100
2080
DF40
0430
7FC0
0400
1480
2440
C420
0C00
0000
0000
ENDCHAR
STARTCHAR U+4F5A
ENCODING 20314
SWIDTH 520 0 
DWIDTH 14 0
BBX 14 14 -1 -4
BITMAP
1100
1500
2500
27E0
6900
A100
2FF0
2100
2280
2440
2820
3010
0000
0000
ENDCHAR
STARTCHAR U+4F5B
ENCODING 20315
SWIDTH 520 0 
DWIDTH 14 0
BBX 14 14 -1 -4
BITMAP
1280
1280
2FE0
22A0
6FE0
AA80
2A80
2FF0
2290
24D0
28A0
3080
0000
0000
ENDCHAR
STARTCHAR U+4F5C
ENCODING 20316
SWIDTH 520 0 
DWIDTH 14 0
BBX 14 14 -1 -4
BITMAP
1200
1200
23F0
2500
6900
A1E0
2100
2100
21F0
2100
2100
2100
0000
0000
ENDCHAR
STARTCHAR U+4F5D
ENCODING 20317
SWIDTH 520 0 
DWIDTH 14 0
BBX 14 14 -1 -4
BITMAP
1200
1200
27E0
2820
7020
A7A0
24A0
24A0
27A0
2420
2020
20C0
0000
0000
ENDCHAR
STARTCHAR U+4F5E
ENCODING 20318
SWIDTH 520 0 
DWIDTH 14 0
BBX 14 14 -1 -4
BITMAP
2040
27E0
2000
2FF0
6200
A200
2FF0
2440
2680
2180
2260
2C20
0000
0000
ENDCHAR
STARTCHAR U+4F5F
ENCODING 20319
SWIDTH 520 0 
DWIDTH 14 0
BBX 14 14 -1 -4
BITMAP
1200
1200
27C0
2440
6A80
B100
22C0
2D30
2080
2600
2100
2080
0000
0000
ENDCHAR
STARTCHAR U+4F60
ENCODING 20320
SWIDTH 520 0 
DWIDTH 14 0
BBX 14 14 -1 -4
BITMAP
1200
1200
23F0
2410
6920
A100
2540
2520
2910
3110
2100
2300
0000
0000
ENDCHAR
STARTCHAR U+4F63
ENCODING 20323
SWIDTH 520 0 
DWIDTH 14 0
BBX 14 14 -1 -4
BITMAP
1000
1FE0
2920
6920
AFE0
2920
2920
2FE0
2920
2920
2920
3160
0000
0000
ENDCHAR
STARTCHAR U+4F64
ENCODING 20324
SWIDTH 520 0 
DWIDTH 14 0
BBX 14 14 -1 -4
BITMAP
1000
1FF0
2400
2400
67C0
A440
2740
24C0
2440
2550
2E50
2830
0000
0000
ENDCHAR
STARTCHAR U+4F65
ENCODING 20325
SWIDTH 520 0 
DWIDTH 14 0
BBX 14 14 -1 -4
BITMAP
0400
0600
0900
1080
2040
DFB0
0000
2440
1280
1280
0100
FFF0
0000
0000
ENDCHAR
STARTCHAR U+4F67
ENCODING 20327
SWIDTH 520 0 
DWIDTH 14 0
BBX 14 14 -1 -4
BITMAP
1200
1200
23E0
2200
6200
BFF0
2200
2380
2240
2220
2200
2200
0000
0000
ENDCHAR
STARTCHAR U+4F69
ENCODING 20329
SWIDTH 520 0 
DWIDTH 14 0
BBX 14 14 -1 -4
BITMAP
2000
3FC0
5040
57C0
D140
57C0
5540
5540
5540
55D0
5130
6110
0000
0000
ENDCHAR
STARTCHAR U+4F6C
ENCODING 20332
SWIDTH 520 0 
DWIDTH 14 0
BBX 14 14 -1 -4
BITMAP
1200
1220
2FA0
2240
6280
BFF0
2100
2260
2780
3A10
2210
21F0
0000
0000
ENDCHAR
STARTCHAR U+4F6F
ENCODING 20335
SWIDTH 520 0 
DWIDTH 14 0
BBX 14 14 -1 -4
BITMAP
1440
1280
2FF0
6100
A100
27E0
2100
2100
2FF0
2100
2100
2100
0000
0000
ENDCHAR
STARTCHAR U+4F70
ENCODING 20336
SWIDTH 520 0 
DWIDTH 14 0
BBX 14 14 -1 -4
BITMAP
1020
1FF0
2100
2200
67E0
A420
2420
27E0
2420
2420
27E0
2420
0000
0000
ENDCHAR
STARTCHAR U+4F73
ENCODING 20339
SWIDTH 520 0 
DWIDTH 14 0
BBX 14 14 -1 -4
BITMAP
1100
1100
27E0
2100
6100
AFF0
2100
2100
27E0
2100
2100
2FF0
0000
0000
ENDCHAR
STARTCHAR U+4F74
ENCODING 20340
SWIDTH 520 0 
DWIDTH 14 0
BBX 14 14 -1 -4
BITMAP
1000
17F0
2440
27C0
6440
A440
27C0
2440
2440
3FF0
2040
2040
0000
0000
ENDCHAR
STARTCHAR U+4F76
ENCODING 20342
SWIDTH 520 0 
DWIDTH 14 0
BBX 14 14 -1 -4
BITMAP
1100
1100
2FF0
2100
6100
AFE0
2000
27E0
2420
2420
27E0
2420
0000
0000
ENDCHAR
STARTCHAR U+4F7B
ENCODING 20347
SWIDTH 520 0 
DWIDTH 14 0
BBX 14 14 -1 -4
BITMAP
1280
1280
22A0
32A0
6AC0
A280
26C0
3AA0
2280
2490
2890
3070
0000
0000
ENDCHAR
STARTCHAR U+4F7C
ENCODING 20348
SWIDTH 520 0 
DWIDTH 14 0
BBX 14 14 -1 -4
BITMAP
1200
1100
2FF0
2280
6440
A820
2480
2480
2280
2100
2280
2C70
0000
0000
ENDCHAR
STARTCHAR U+4F7E
ENCODING 20350
SWIDTH 520 0 
DWIDTH 14 0
BBX 14 14 -1 -4
BITMAP
1280
1280
2440
2820
77D0
A440
27C0
2440
27C0
2440
2440
24C0
0000
0000
ENDCHAR
STARTCHAR U+4F7F
ENCODING 20351
SWIDTH 520 0 
DWIDTH 14 0
BBX 14 14 -1 -4
BITMAP
1100
1120
2FF0
2100
6FE0
A920
2FE0
2920
2500
2200
2580
3870
0000
0000
ENDCHAR
STARTCHAR U+4F83
ENCODING 20355
SWIDTH 520 0 
DWIDTH 14 0
BBX 14 14 -1 -4
BITMAP
1000
17E0
2420
2420
67E0
A000
2540
2540
2540
2550
2950
3130
0000
0000
ENDCHAR
STARTCHAR U+4F84
ENCODING 20356
SWIDTH 520 0 
DWIDTH 14 0
BBX 14 14 -1 -4
BITMAP
1020
1FF0
2200
2440
6FE0
A420
2100
2100
2FE0
2100
2100
3FF0
0000
0000
ENDCHAR
STARTCHAR U+4F88
ENCODING 20360
SWIDTH 520 0 
DWIDTH 14 0
BBX 14 14 -1 -4
BITMAP
1100
1200
27E0
2A40
6180
A200
2D00
23F0
2620
2940
2180
2E00
0000
0000
ENDCHAR
STARTCHAR U+4F89
ENCODING 20361
SWIDTH 520 0 
DWIDTH 14 0
BBX 14 14 -1 -4
BITMAP
1100
1100
2FF0
2240
65A0
A810
27E0
2200
23C0
2040
2040
2180
0000
0000
ENDCHAR
STARTCHAR U+4F8B
ENCODING 20363
SWIDTH 520 0 
DWIDTH 14 0
BBX 14 14 -1 -4
BITMAP
2020
3F20
28A0
48A0
4EA0
D2A0
6AA0
44A0
44A0
4820
5020
4060
0000
0000
ENDCHAR
STARTCHAR U+4F8D
ENCODING 20365
SWIDTH 520 0 
DWIDTH 14 0
BBX 14 14 -1 -4
BITMAP
1100
1100
2FE0
6100
BFF0
2080
2080
2FE0
2480
2280
2080
2180
0000
0000
ENDCHAR
STARTCHAR U+4F8F
ENCODING 20367
SWIDTH 520 0 
DWIDTH 14 0
BBX 14 14 -1 -4
BITMAP
1100
1500
2540
2FE0
6900
BFF0
2100
2380
2540
2920
3110
2100
0000
0000
ENDCHAR
STARTCHAR U+4F91
ENCODING 20369
SWIDTH 520 0 
DWIDTH 14 0
BBX 14 14 -1 -4
BITMAP
1100
1100
2FF0
2200
67E0
A420
2FE0
3420
27E0
2420
2420
2460
0000
0000
ENDCHAR
STARTCHAR U+4F94
ENCODING 20372
SWIDTH 520 0 
DWIDTH 14 0
BBX 14 14 -1 -4
BITMAP
1100
1240
2420
2FF0
6000
A500
2FE0
2900
3FF0
2100
2100
2100
0000
0000
ENDCHAR
STARTCHAR U+4F97
ENCODING 20375
SWIDTH 520 0 
DWIDTH 14 0
BBX 14 14 -1 -4
BITMAP
2000
2FE0
4820
4BA0
C820
4BA0
4AA0
4AA0
4BA0
4820
4820
4860
0000
0000
ENDCHAR
STARTCHAR U+4F9B
ENCODING 20379
SWIDTH 520 0 
DWIDTH 14 0
BBX 14 14 -1 -4
BITMAP
1240
1240
2240
2FF0
6240
A240
2240
3FF0
2000
2440
2820
3010
0000
0000
ENDCHAR
STARTCHAR U+4F9D
ENCODING 20381
SWIDTH 520 0 
DWIDTH 14 0
BBX 14 14 -1 -4
BITMAP
1200
1100
2FF0
2100
6300
A520
2D40
3480
2480
2540
2620
2410
0000
0000
ENDCHAR
STARTCHAR U+4FA0
ENCODING 20384
SWIDTH 520 0 
DWIDTH 14 0
BBX 14 14 -1 -4
BITMAP
1100
1100
2FE0
6100
A920
2540
3FF0
2100
2280
2440
2820
3010
0000
0000
ENDCHAR
STARTCHAR U+4FA3
ENCODING 20387
SWIDTH 520 0 
DWIDTH 14 0
BBX 14 14 -1 -4
BITMAP
1020
17F0
2420
2420
67E0
A000
2FF0
2810
2810
2810
2FF0
2810
0000
0000
ENDCHAR
STARTCHAR U+4FA5
ENCODING 20389
SWIDTH 520 0 
DWIDTH 14 0
BBX 14 14 -1 -4
BITMAP
1200
13E0
2E00
2240
6190
AE70
2000
3FE0
2480
2490
2890
3070
0000
0000
ENDCHAR
STARTCHAR U+4FA6
ENCODING 20390
SWIDTH 520 0 
DWIDTH 14 0
BBX 14 14 -1 -4
BITMAP
1100
1100
21F0
2100
67E0
A420
2520
2520
2520
2280
2440
2820
0000
0000
ENDCHAR
STARTCHAR U+4FA7
ENCODING 20391
SWIDTH 520 0 
DWIDTH 14 0
BBX 14 14 -1 -4
BITMAP
2010
3F10
5150
5550
D550
5550
5550
5550
4450
4A10
5110
6030
0000
0000
ENDCHAR
STARTCHAR U+4FA8
ENCODING 20392
SWIDTH 520 0 
DWIDTH 14 0
BBX 14 14 -1 -4
BITMAP
1060
1F80
2200
2200
7FF0
A480
2840
34B0
2480
2480
2880
3080
0000
0000
ENDCHAR
STARTCHAR U+4FA9
ENCODING 20393
SWIDTH 520 0 
DWIDTH 14 0
BBX 14 14 -1 -4
BITMAP
1100
1100
2280
2440
6830
B7C0
2000
3FF0
2200
2280
2440
2FE0
0000
0000
ENDCHAR
STARTCHAR U+4FAA
ENCODING 20394
SWIDTH 520 0 
DWIDTH 14 0
BBX 14 14 -1 -4
BITMAP
1200
1100
2FF0
2480
6300
A480
3870
2440
2440
2440
2840
3040
0000
0000
ENDCHAR
STARTCHAR U+4FAC
ENCODING 20396
SWIDTH 520 0 
DWIDTH 14 0
BBX 14 14 -1 -4
BITMAP
1100
1100
2FF0
2A10
6300
A520
2540
2C80
3480
2440
2520
2610
0000
0000
ENDCHAR
STARTCHAR U+4FAE
ENCODING 20398
SWIDTH 520 0 
DWIDTH 14 0
BBX 14 14 -1 -4
BITMAP
1400
17F0
2800
27E0
6520
A520
3FF0
2A40
2940
2FF0
2040
2180
0000
0000
ENDCHAR
STARTCHAR U+4FAF
ENCODING 20399
SWIDTH 520 0 
DWIDTH 14 0
BBX 14 14 -1 -4
BITMAP
1000
1780
2080
3FF0
6400
A7E0
2900
3FF0
2100
2280
2440
2830
0000
0000
ENDCHAR
STARTCHAR U+4FB5
ENCODING 20405
SWIDTH 520 0 
DWIDTH 14 0
BBX 14 14 -1 -4
BITMAP
1000
17E0
2020
27E0
6020
AFF0
2810
23C0
2240
2180
2240
2C30
0000
0000
ENDCHAR
STARTCHAR U+4FBF
ENCODING 20415
SWIDTH 520 0 
DWIDTH 14 0
BBX 14 14 -1 -4
BITMAP
1000
1FF0
2100
2FE0
6920
AFE0
2920
2FE0
2500
2300
2480
3870
0000
0000
ENDCHAR
STARTCHAR U+4FC3
ENCODING 20419
SWIDTH 520 0 
DWIDTH 14 0
BBX 14 14 -1 -4
BITMAP
1000
17E0
2420
2420
67E0
A100
2500
25F0
2500
2500
2B00
30F0
0000
0000
ENDCHAR
STARTCHAR U+4FC4
ENCODING 20420
SWIDTH 520 0 
DWIDTH 14 0
BBX 14 14 -1 -4
BITMAP
1080
12C0
2CA0
2480
6FF0
A480
26A0
2CA0
3440
24D0
2530
2C10
0000
0000
ENDCHAR
STARTCHAR U+4FC5
ENCODING 20421
SWIDTH 520 0 
DWIDTH 14 0
BBX 14 14 -1 -4
BITMAP
1100
1140
2120
2FF0
6100
A920
2540
2380
2540
2920
2110
2300
0000
0000
ENDCHAR
STARTCHAR U+4FCA
ENCODING 20426
SWIDTH 520 0 
DWIDTH 14 0
BBX 14 14 -1 -4
BITMAP
1100
1240
2420
2FE0
6440
AA30
23C0
2440
2A80
2100
2280
2C70
0000
0000
ENDCHAR
STARTCHAR U+4FCE
ENCODING 20430
SWIDTH 520 0 
DWIDTH 14 0
BBX 14 14 -1 -4
BITMAP
2020
23F0
2220
5220
4BE0
8A20
2220
23E0
5220
4A20
8220
1FF0
0000
0000
ENDCHAR
STARTCHAR U+4FCF
ENCODING 20431
SWIDTH 520 0 
DWIDTH 14 0
BBX 14 14 -1 -4
BITMAP
1100
1520
2540
2100
67E0
A420
27E0
2420
27E0
2420
2420
2460
0000
0000
ENDCHAR
STARTCHAR U+4FD0
ENCODING 20432
SWIDTH 520 0 
DWIDTH 14 0
BBX 14 14 -1 -4
BITMAP
2320
2C20
44A0
44A0
DFA0
44A0
46A0
4DA0
54A0
4420
4420
4460
0000
0000
ENDCHAR
STARTCHAR U+4FD1
ENCODING 20433
SWIDTH 520 0 
DWIDTH 14 0
BBX 14 14 -1 -4
BITMAP
1040
17E0
2280
2100
6FE0
A920
2FE0
2920
2FE0
2920
2920
2960
0000
0000
ENDCHAR
STARTCHAR U+4FD7
ENCODING 20439
SWIDTH 520 0 
DWIDTH 14 0
BBX 14 14 -1 -4
BITMAP
1280
1240
2520
2900
6280
A440
2820
37D0
2440
2440
27C0
2440
0000
0000
ENDCHAR
STARTCHAR U+4FD8
ENCODING 20440
SWIDTH 520 0 
DWIDTH 14 0
BBX 14 14 -1 -4
BITMAP
1060
1780
2920
2540
6000
AFE0
2080
3FF0
2100
2100
2100
2300
0000
0000
ENDCHAR
STARTCHAR U+4FDA
ENCODING 20442
SWIDTH 520 0 
DWIDTH 14 0
BBX 14 14 -1 -4
BITMAP
2FE0
2920
2920
2FE0
6920
A920
2FE0
2100
2FE0
2100
2100
2FF0
0000
0000
ENDCHAR
STARTCHAR U+4FDC
ENCODING 20444
SWIDTH 520 0 
DWIDTH 14 0
BBX 14 14 -1 -4
BITMAP
1100
1FE0
2920
2FE0
6920
AFE0
2000
3FF0
2400
27E0
2040
21C0
0000
0000
ENDCHAR
STARTCHAR U+4FDD
ENCODING 20445
SWIDTH 520 0 
DWIDTH 14 0
BBX 14 14 -1 -4
BITMAP
1000
17E0
2420
2420
67E0
A100
3FF0
2180
2340
2520
2910
2100
0000
0000
ENDCHAR
STARTCHAR U+4FDE
ENCODING 20446
SWIDTH 520 0 
DWIDTH 14 0
BBX 14 14 -1 -4
BITMAP
0600
0900
1080
2F70
C000
3C20
2520
3D20
2520
3D20
2420
2C60
0000
0000
ENDCHAR
STARTCHAR U+4FDF
ENCODING 20447
SWIDTH 520 0 
DWIDTH 14 0
BBX 14 14 -1 -4
BITMAP
1100
1240
24E0
2F20
6400
A7E0
2900
3FF0
2100
2280
2440
2830
0000
0000
ENDCHAR
STARTCHAR U+4FE1
ENCODING 20449
SWIDTH 520 0 
DWIDTH 14 0
BBX 14 14 -1 -4
BITMAP
1100
1080
2FF0
2000
67E0
A000
27E0
2000
27E0
2420
27E0
2420
0000
0000
ENDCHAR
STARTCHAR U+4FE3
ENCODING 20451
SWIDTH 520 0 
DWIDTH 14 0
BBX 14 14 -1 -4
BITMAP
1020
17F0
2420
27E0
6000
AFE0
2100
2100
2FF0
2280
2440
2830
0000
0000
ENDCHAR
STARTCHAR U+4FE6
ENCODING 20454
SWIDTH 520 0 
DWIDTH 14 0
BBX 14 14 -1 -4
BITMAP
1100
1100
2FF0
2100
67E0
A200
2FF0
2440
2FF0
3440
2240
20C0
0000
0000
ENDCHAR
STARTCHAR U+4FE8
ENCODING 20456
SWIDTH 520 0 
DWIDTH 14 0
BBX 14 14 -1 -4
BITMAP
1000
17F0
2950
2560
6140
A7F0
2400
2400
2400
2400
2800
3000
0000
0000
ENDCHAR
STARTCHAR U+4FE9
ENCODING 20457
SWIDTH 520 0 
DWIDTH 14 0
BBX 14 14 -1 -4
BITMAP
2000
2FF0
2280
4280
6FF0
AA90
2A90
2BD0
2CB0
2910
2810
2830
0000
0000
ENDCHAR
STARTCHAR U+4FEA
ENCODING 20458
SWIDTH 520 0 
DWIDTH 14 0
BBX 14 14 -1 -4
BITMAP
2020
2FF0
2000
4EE0
4AA0
CAA0
4AA0
4EE0
4AA0
4AA0
4AA0
4AA0
0000
0000
ENDCHAR
STARTCHAR U+4FED
ENCODING 20461
SWIDTH 520 0 
DWIDTH 14 0
BBX 14 14 -1 -4
BITMAP
1100
1100
2280
2440
6BB0
A000
2A20
2520
2540
2040
2080
2FF0
0000
0000
ENDCHAR
STARTCHAR U+4FEE
ENCODING 20462
SWIDTH 520 0 
DWIDTH 14 0
BBX 14 14 -1 -4
BITMAP
1200
13E0
2220
2D40
6880
AB70
2C80
2B40
2880
2B20
20C0
2700
0000
0000
ENDCHAR
STARTCHAR U+4FEF
ENCODING 20463
SWIDTH 520 0 
DWIDTH 14 0
BBX 14 14 -1 -4
BITMAP
1100
1080
2FF0
2920
6920
AAF0
2E20
2AA0
2AA0
2A20
3220
2260
0000
0000
ENDCHAR
STARTCHAR U+4FF1
ENCODING 20465
SWIDTH 520 0 
DWIDTH 14 0
BBX 14 14 -1 -4
BITMAP
1000
17C0
2440
27C0
6440
A740
25C0
2440
3FF0
2240
2420
2810
0000
0000
ENDCHAR
STARTCHAR U+4FF3
ENCODING 20467
SWIDTH 520 0 
DWIDTH 14 0
BBX 14 14 -1 -4
BITMAP
1280
1280
2EF0
2280
6280
AEF0
2280
2280
2EF0
2280
2280
2280
0000
0000
ENDCHAR
STARTCHAR U+4FF8
ENCODING 20472
SWIDTH 520 0 
DWIDTH 14 0
BBX 14 14 -1 -4
BITMAP
1100
1FE0
2100
2FE0
6200
BFF0
2940
37E0
2110
2FE0
2100
2100
0000
0000
ENDCHAR
STARTCHAR U+4FFA
ENCODING 20474
SWIDTH 520 0 
DWIDTH 14 0
BBX 14 14 -1 -4
BITMAP
1200
1200
2FE0
2480
6940
BFF0
2940
2FC0
2940
2FD0
2110
20F0
0000
0000
ENDCHAR
STARTCHAR U+4FFE
ENCODING 20478
SWIDTH 520 0 
DWIDTH 14 0
BBX 14 14 -1 -4
BITMAP
1100
1FE0
2920
2920
6FE0
A920
2FE0
2280
2480
3FF0
2080
2080
0000
0000
ENDCHAR
STARTCHAR U+500C
ENCODING 20492
SWIDTH 520 0 
DWIDTH 14 0
BBX 14 14 -1 -4
BITMAP
1100
1080
2FF0
2810
67C0
A440
27C0
2400
27E0
2420
27E0
2420
0000
0000
ENDCHAR
STARTCHAR U+500D
ENCODING 20493
SWIDTH 520 0 
DWIDTH 14 0
BBX 14 14 -1 -4
BITMAP
1100
1100
2FF0
2440
6280
AFF0
2000
27E0
2420
2420
27E0
2420
0000
0000
ENDCHAR
STARTCHAR U+500F
ENCODING 20495
SWIDTH 520 0 
DWIDTH 14 0
BBX 14 14 -1 -4
BITMAP
1100
11E0
2B40
2C80
6940
AA30
2940
2920
2FF0
2940
2220
2C10
0000
0000
ENDCHAR
STARTCHAR U+5012
ENCODING 20498
SWIDTH 520 0 
DWIDTH 14 0
BBX 14 14 -1 -4
BITMAP
2010
3F10
4410
4A50
DF50
4050
4450
5F50
4450
4710
5C10
4030
0000
0000
ENDCHAR
STARTCHAR U+5014
ENCODING 20500
SWIDTH 520 0 
DWIDTH 14 0
BBX 14 14 -1 -4
BITMAP
1000
1FE0
2820
2FE0
6880
AAA0
2AA0
2BE0
2880
2CA0
34A0
27E0
0000
0000
ENDCHAR
STARTCHAR U+5018
ENCODING 20504
SWIDTH 520 0 
DWIDTH 14 0
BBX 14 14 -1 -4
BITMAP
1100
1920
2540
2100
6FE0
A820
2BA0
2AA0
2AA0
2BA0
2820
2860
0000
0000
ENDCHAR
STARTCHAR U+5019
ENCODING 20505
SWIDTH 520 0 
DWIDTH 14 0
BBX 14 14 -1 -4
BITMAP
2000
23C0
3040
57F0
5200
D3E0
5480
57F0
5080
5140
4220
4C10
0000
0000
ENDCHAR
STARTCHAR U+501A
ENCODING 20506
SWIDTH 520 0 
DWIDTH 14 0
BBX 14 14 -1 -4
BITMAP
1100
1100
2FE0
2280
6440
BFF0
2040
2F40
2940
2F40
2040
20C0
0000
0000
ENDCHAR
STARTCHAR U+501C
ENCODING 20508
SWIDTH 520 0 
DWIDTH 14 0
BBX 14 14 -1 -4
BITMAP
1000
1FF0
2910
2BD0
6910
AFF0
2810
2BD0
2A50
2BD0
2810
3030
0000
0000
ENDCHAR
STARTCHAR U+501F
ENCODING 20511
SWIDTH 520 0 
DWIDTH 14 0
BBX 14 14 -1 -4
BITMAP
1240
1240
2FF0
2240
6240
AFF0
2000
27E0
2420
27E0
2420
27E0
0000
0000
ENDCHAR
STARTCHAR U+5021
ENCODING 20513
SWIDTH 520 0 
DWIDTH 14 0
BBX 14 14 -1 -4
BITMAP
17E0
1420
27E0
2420
67E0
A000
2FF0
2810
2FF0
2810
2FF0
2810
0000
0000
ENDCHAR
STARTCHAR U+5025
ENCODING 20517
SWIDTH 520 0 
DWIDTH 14 0
BBX 14 14 -1 -4
BITMAP
1100
1080
2FF0
2810
6240
A420
2800
27E0
2100
2100
2100
2FF0
0000
0000
ENDCHAR
STARTCHAR U+5026
ENCODING 20518
SWIDTH 520 0 
DWIDTH 14 0
BBX 14 14 -1 -4
BITMAP
1100
1520
2540
2FE0
6200
BFF0
2440
2FB0
3480
25A0
2420
23E0
0000
0000
ENDCHAR
STARTCHAR U+5028
ENCODING 20520
SWIDTH 520 0 
DWIDTH 14 0
BBX 14 14 -1 -4
BITMAP
17E0
1420
2420
27E0
6480
A7F0
2480
27E0
2A20
2A20
33E0
2220
0000
0000
ENDCHAR
STARTCHAR U+5029
ENCODING 20521
SWIDTH 520 0 
DWIDTH 14 0
BBX 14 14 -1 -4
BITMAP
1100
1FF0
2100
27E0
6100
AFF0
2420
27E0
2420
27E0
2420
2460
0000
0000
ENDCHAR
STARTCHAR U+502A
ENCODING 20522
SWIDTH 520 0 
DWIDTH 14 0
BBX 14 14 -1 -4
BITMAP
1200
1CE0
2820
2EE0
6820
AFE0
2AA0
2280
2280
2290
2490
3870
0000
0000
ENDCHAR
STARTCHAR U+502C
ENCODING 20524
SWIDTH 520 0 
DWIDTH 14 0
BBX 14 14 -1 -4
BITMAP
1100
11F0
2100
2FE0
6820
AFE0
2820
2FE0
2100
3FF0
2100
2100
0000
0000
ENDCHAR
STARTCHAR U+502D
ENCODING 20525
SWIDTH 520 0 
DWIDTH 14 0
BBX 14 14 -1 -4
BITMAP
10C0
1700
2100
3FF0
6540
A930
3100
2200
3FF0
2480
2380
2C60
0000
0000
ENDCHAR
STARTCHAR U+502E
ENCODING 20526
SWIDTH 520 0 
DWIDTH 14 0
BBX 14 14 -1 -4
BITMAP
2FE0
2920
2920
4FE0
6920
AFE0
2100
3FF0
2380
2540
2920
3110
0000
0000
ENDCHAR
STARTCHAR U+503A
ENCODING 20538
SWIDTH 520 0 
DWIDTH 14 0
BBX 14 14 -1 -4
BITMAP
1100
1FF0
2100
2FE0
6100
BFF0
2420
2520
2520
2520
22C0
2C30
0000
0000
ENDCHAR
STARTCHAR U+503C
ENCODING 20540
SWIDTH 520 0 
DWIDTH 14 0
BBX 14 14 -1 -4
BITMAP
1120
1FF0
2100
67E0
A420
27E0
2420
27E0
2420
27E0
2420
2FF0
0000
0000
ENDCHAR
STARTCHAR U+503E
ENCODING 20542
SWIDTH 520 0 
DWIDTH 14 0
BBX 14 14 -1 -4
BITMAP
2020
27F0
5080
53E0
DA20
52A0
52A0
52A0
5AA0
5140
4220
4C10
0000
0000
ENDCHAR
STARTCHAR U+5043
ENCODING 20547
SWIDTH 520 0 
DWIDTH 14 0
BBX 14 14 -1 -4
BITMAP
2020
2FF0
2A20
4BE0
4A20
CBE0
4900
4FF0
4A40
49C0
4A20
4FF0
0000
0000
ENDCHAR
STARTCHAR U+5047
ENCODING 20551
SWIDTH 520 0 
DWIDTH 14 0
BBX 14 14 -1 -4
BITMAP
2EE0
2A20
2A20
6EE0
A800
2EE0
28A0
28A0
2EA0
2840
28A0
2910
0000
0000
ENDCHAR
STARTCHAR U+5048
ENCODING 20552
SWIDTH 520 0 
DWIDTH 14 0
BBX 14 14 -1 -4
BITMAP
17E0
1420
27E0
2420
67E0
A200
27F0
3D10
2690
2450
2790
2060
0000
0000
ENDCHAR
STARTCHAR U+504C
ENCODING 20556
SWIDTH 520 0 
DWIDTH 14 0
BBX 14 14 -1 -4
BITMAP
1240
1240
2FF0
2240
6100
BFF0
2200
27E0
2C20
3420
27E0
2420
0000
0000
ENDCHAR
STARTCHAR U+504E
ENCODING 20558
SWIDTH 520 0 
DWIDTH 14 0
BBX 14 14 -1 -4
BITMAP
1020
17F0
2520
27E0
6520
A7E0
2000
3FF0
2540
2480
2540
2630
0000
0000
ENDCHAR
STARTCHAR U+504F
ENCODING 20559
SWIDTH 520 0 
DWIDTH 14 0
BBX 14 14 -1 -4
BITMAP
1100
1FE0
2820
2FE0
6800
AFF0
2D50
2D50
37F0
2550
2550
2430
0000
0000
ENDCHAR
STARTCHAR U+5055
ENCODING 20565
SWIDTH 520 0 
DWIDTH 14 0
BBX 14 14 -1 -4
BITMAP
1480
1490
26E0
2480
6690
A470
2100
27E0
2420
27E0
2420
27E0
0000
0000
ENDCHAR
STARTCHAR U+505A
ENCODING 20570
SWIDTH 520 0 
DWIDTH 14 0
BBX 14 14 -1 -4
BITMAP
1440
1440
2480
3EF0
65A0
A4A0
2EA0
2AA0
2A40
2E40
2AA0
2110
0000
0000
ENDCHAR
STARTCHAR U+505C
ENCODING 20572
SWIDTH 520 0 
DWIDTH 14 0
BBX 14 14 -1 -4
BITMAP
2100
3FF0
2000
47C0
4440
C7C0
5FF0
5010
4FE0
4100
4100
4300
0000
0000
ENDCHAR
STARTCHAR U+5065
ENCODING 20581
SWIDTH 520 0 
DWIDTH 14 0
BBX 14 14 -1 -4
BITMAP
1080
1FE0
24A0
27F0
68A0
AFE0
2480
27F0
3480
2BE0
3480
23F0
0000
0000
ENDCHAR
STARTCHAR U+506C
ENCODING 20588
SWIDTH 520 0 
DWIDTH 14 0
BBX 14 14 -1 -4
BITMAP
1400
1420
27F0
2AA0
73A0
A560
2A20
24C0
2520
2D50
3450
23C0
0000
0000
ENDCHAR
STARTCHAR U+5076
ENCODING 20598
SWIDTH 520 0 
DWIDTH 14 0
BBX 14 14 -1 -4
BITMAP
17E0
1520
27E0
2520
67E0
A100
2FF0
2910
29D0
2B50
2810
2830
0000
0000
ENDCHAR
STARTCHAR U+5077
ENCODING 20599
SWIDTH 520 0 
DWIDTH 14 0
BBX 14 14 -1 -4
BITMAP
1100
1280
2440
2BB0
7000
AEA0
2AA0
2EA0
2AA0
2EA0
2A20
2A60
0000
0000
ENDCHAR
STARTCHAR U+507B
ENCODING 20603
SWIDTH 520 0 
DWIDTH 14 0
BBX 14 14 -1 -4
BITMAP
1100
1920
2540
2FF0
6540
A830
3100
2FF0
2240
2680
21C0
2E30
0000
0000
ENDCHAR
STARTCHAR U+507E
ENCODING 20606
SWIDTH 520 0 
DWIDTH 14 0
BBX 14 14 -1 -4
BITMAP
2100
2FE0
2100
4440
6FF0
A440
2FE0
2920
2920
29A0
2240
2C30
0000
0000
ENDCHAR
STARTCHAR U+507F
ENCODING 20607
SWIDTH 520 0 
DWIDTH 14 0
BBX 14 14 -1 -4
BITMAP
1100
1920
2540
2FF0
6810
A7C0
2000
2FF0
2200
2200
2440
2FE0
0000
0000
ENDCHAR
STARTCHAR U+5080
ENCODING 20608
SWIDTH 520 0 
DWIDTH 14 0
BBX 14 14 -1 -4
BITMAP
1100
1200
2FE0
2920
6FE0
A920
2FE0
2100
2340
2560
2910
30F0
0000
0000
ENDCHAR
STARTCHAR U+5085
ENCODING 20613
SWIDTH 520 0 
DWIDTH 14 0
BBX 14 14 -1 -4
BITMAP
1140
1FF0
2920
2FE0
6920
AFE0
2920
2940
3FF0
2440
2240
20C0
0000
0000
ENDCHAR
STARTCHAR U+5088
ENCODING 20616
SWIDTH 520 0 
DWIDTH 14 0
BBX 14 14 -1 -4
BITMAP
2000
3FF0
4280
4FE0
CAA0
4FE0
4100
5FF0
4580
4940
5130
4100
0000
0000
ENDCHAR
STARTCHAR U+508D
ENCODING 20621
SWIDTH 520 0 
DWIDTH 14 0
BBX 14 14 -1 -4
BITMAP
1100
1FF0
2440
2280
6FF0
A910
27E0
2200
23E0
2220
2420
28C0
0000
0000
ENDCHAR
STARTCHAR U+50A3
ENCODING 20643
SWIDTH 520 0 
DWIDTH 14 0
BBX 14 14 -1 -4
BITMAP
1100
1FE0
2100
2FE0
6200
BFF0
2540
2D60
3390
2540
2920
2300
0000
0000
ENDCHAR
STARTCHAR U+50A5
ENCODING 20645
SWIDTH 520 0 
DWIDTH 14 0
BBX 14 14 -1 -4
BITMAP
2100
2920
2540
4FF0
6810
A7C0
2440
27C0
2280
2290
2490
2870
0000
0000
ENDCHAR
STARTCHAR U+50A7
ENCODING 20647
SWIDTH 520 0 
DWIDTH 14 0
BBX 14 14 -1 -4
BITMAP
2100
2FF0
2810
40C0
6700
A400
27E0
2480
2FF0
2240
2420
2810
0000
0000
ENDCHAR
STARTCHAR U+50A8
ENCODING 20648
SWIDTH 520 0 
DWIDTH 14 0
BBX 14 14 -1 -4
BITMAP
2100
2120
2BA0
4940
43F0
D880
49E0
4B20
49E0
4D20
49E0
4120
0000
0000
ENDCHAR
STARTCHAR U+50A9
ENCODING 20649
SWIDTH 520 0 
DWIDTH 14 0
BBX 14 14 -1 -4
BITMAP
2000
2140
3D40
45F0
5740
D5F0
4940
49F0
5540
6540
41F0
4100
0000
0000
ENDCHAR
STARTCHAR U+50AC
ENCODING 20652
SWIDTH 520 0 
DWIDTH 14 0
BBX 14 14 -1 -4
BITMAP
1080
1490
27F0
2000
6480
AFF0
3480
27F0
2480
27F0
2480
27F0
0000
0000
ENDCHAR
STARTCHAR U+50B2
ENCODING 20658
SWIDTH 520 0 
DWIDTH 14 0
BBX 14 14 -1 -4
BITMAP
2480
3E80
2480
5EF0
45A0
DEA0
48A0
4EA0
4A40
4A40
52A0
6510
0000
0000
ENDCHAR
STARTCHAR U+50BA
ENCODING 20666
SWIDTH 520 0 
DWIDTH 14 0
BBX 14 14 -1 -4
BITMAP
2480
26F0
2AA0
56A0
4A40
C7A0
4810
57E0
4100
4540
4920
5310
0000
0000
ENDCHAR
STARTCHAR U+50BB
ENCODING 20667
SWIDTH 520 0 
DWIDTH 14 0
BBX 14 14 -1 -4
BITMAP
1100
1FE0
2AA0
2920
6FE0
A240
2520
2BD0
2440
2A80
2180
2E70
0000
0000
ENDCHAR
STARTCHAR U+50CF
ENCODING 20687
SWIDTH 520 0 
DWIDTH 14 0
BBX 14 14 -1 -4
BITMAP
1200
17C0
2880
3FE0
6920
AFE0
2540
2A80
25C0
2AA0
2490
2B00
0000
0000
ENDCHAR
STARTCHAR U+50D6
ENCODING 20694
SWIDTH 520 0 
DWIDTH 14 0
BBX 14 14 -1 -4
BITMAP
1100
1FF0
2100
27E0
6420
A7E0
2240
2FF0
2000
27E0
2420
27E0
0000
0000
ENDCHAR
STARTCHAR U+50DA
ENCODING 20698
SWIDTH 520 0 
DWIDTH 14 0
BBX 14 14 -1 -4
BITMAP
1100
1100
2FF0
2AA0
67C0
AC70
37C0
2440
27C0
2540
2920
3310
0000
0000
ENDCHAR
STARTCHAR U+50E6
ENCODING 20710
SWIDTH 520 0 
DWIDTH 14 0
BBX 14 14 -1 -4
BITMAP
2880
24A0
3E90
41F0
5E80
D280
5E80
44C0
56C0
5550
6550
4E30
0000
0000
ENDCHAR
STARTCHAR U+50E7
ENCODING 20711
SWIDTH 520 0 
DWIDTH 14 0
BBX 14 14 -1 -4
BITMAP
1440
1280
2FE0
2920
6BA0
AFE0
2000
27C0
2440
27C0
2440
27C0
0000
0000
ENDCHAR
STARTCHAR U+50EC
ENCODING 20716
SWIDTH 520 0 
DWIDTH 14 0
BBX 14 14 -1 -4
BITMAP
1500
1480
27F0
2C80
77E0
A480
27E0
2480
27F0
2000
2AA0
3150
0000
0000
ENDCHAR
STARTCHAR U+50ED
ENCODING 20717
SWIDTH 520 0 
DWIDTH 14 0
BBX 14 14 -1 -4
BITMAP
2020
3EF0
5540
5FF0
CCC0
5550
6230
4FC0
4840
4FC0
4840
4FC0
0000
0000
ENDCHAR
STARTCHAR U+50EE
ENCODING 20718
SWIDTH 520 0 
DWIDTH 14 0
BBX 14 14 -1 -4
BITMAP
1100
17E0
2240
2FF0
6000
A7E0
2520
27E0
2520
2FF0
2100
3FF0
0000
0000
ENDCHAR
STARTCHAR U+50F3
ENCODING 20723
SWIDTH 520 0 
DWIDTH 14 0
BBX 14 14 -1 -4
BITMAP
2020
3FF0
4280
4FE0
CAA0
4FE0
4920
4540
5FF0
4540
4920
5110
0000
0000
ENDCHAR
STARTCHAR U+50F5
ENCODING 20725
SWIDTH 520 0 
DWIDTH 14 0
BBX 14 14 -1 -4
BITMAP
2000
3FF0
4920
4FE0
C920
5FF0
4000
4FE0
4920
4FE0
4920
5FF0
0000
0000
ENDCHAR
STARTCHAR U+50FB
ENCODING 20731
SWIDTH 520 0 
DWIDTH 14 0
BBX 14 14 -1 -4
BITMAP
1080
1E40
2BF0
2A00
6EA0
A9F0
2E40
2A40
3BF0
2E40
2A40
2040
0000
0000
ENDCHAR
STARTCHAR U+5106
ENCODING 20742
SWIDTH 520 0 
DWIDTH 14 0
BBX 14 14 -1 -4
BITMAP
2A40
2A40
3F80
4AF0
49A0
DEA0
72A0
5EA0
5640
5E40
42A0
4710
0000
0000
ENDCHAR
STARTCHAR U+5107
ENCODING 20743
SWIDTH 520 0 
DWIDTH 14 0
BBX 14 14 -1 -4
BITMAP
2FE0
2AA0
2AA0
6FE0
6000
BFF0
2420
27E0
2290
26A0
2B40
3230
0000
0000
ENDCHAR
STARTCHAR U+510B
ENCODING 20747
SWIDTH 520 0 
DWIDTH 14 0
BBX 14 14 -1 -4
BITMAP
1200
13C0
2480
2FF0
7AA0
AFF0
2800
2BE0
2800
2BE0
2A20
33E0
0000
0000
ENDCHAR
STARTCHAR U+5112
ENCODING 20754
SWIDTH 520 0 
DWIDTH 14 0
BBX 14 14 -1 -4
BITMAP
17E0
1100
2FF0
2910
6D60
A000
2FF0
2100
2FE0
2AA0
2AA0
2860
0000
0000
ENDCHAR
STARTCHAR U+5121
ENCODING 20769
SWIDTH 520 0 
DWIDTH 14 0
BBX 14 14 -1 -4
BITMAP
17E0
1520
27E0
2520
67E0
A000
2FF0
2A50
2FF0
2A50
2FF0
2810
0000
0000
ENDCHAR
STARTCHAR U+513F
ENCODING 20799
SWIDTH 520 0 
DWIDTH 14 0
BBX 14 14 -1 -4
BITMAP
0000
0900
0900
0900
0900
0900
0900
0900
1100
1110
2110
C0F0
0000
0000
ENDCHAR
STARTCHAR U+5140
ENCODING 20800
SWIDTH 520 0 
DWIDTH 14 0
BBX 14 14 -1 -4
BITMAP
0020
FFF0
0900
0900
0900
0900
0900
1100
1110
2110
40F0
8000
0000
0000
ENDCHAR
STARTCHAR U+5141
ENCODING 20801
SWIDTH 520 0 
DWIDTH 14 0
BBX 14 14 -1 -4
BITMAP
0400
0400
0880
1040
3FE0
0920
0900
0900
0900
1110
2110
C0F0
0000
0000
ENDCHAR
STARTCHAR U+5143
ENCODING 20803
SWIDTH 520 0 
DWIDTH 14 0
BBX 14 14 -1 -4
BITMAP
0040
3FE0
0000
0020
7FF0
0900
0900
0900
0900
1110
2110
C0F0
0000
0000
ENDCHAR
STARTCHAR U+5144
ENCODING 20804
SWIDTH 520 0 
DWIDTH 14 0
BBX 14 14 -1 -4
BITMAP
0040
3FE0
2040
2040
2040
3FC0
0900
0900
0900
1110
2110
C0F0
0000
0000
ENDCHAR
STARTCHAR U+5145
ENCODING 20805
SWIDTH 520 0 
DWIDTH 14 0
BBX 14 14 -1 -4
BITMAP
0400
0200
FFF0
0900
1080
3FC0
0920
0900
0900
1110
2110
40F0
0000
0000
ENDCHAR
STARTCHAR U+5146
ENCODING 20806
SWIDTH 520 0 
DWIDTH 14 0
BBX 14 14 -1 -4
BITMAP
0900
0900
4920
2940
2980
0900
39C0
C920
0900
1110
2110
C0F0
0000
0000
ENDCHAR
STARTCHAR U+5148
ENCODING 20808
SWIDTH 520 0 
DWIDTH 14 0
BBX 14 14 -1 -4
BITMAP
0200
2200
2240
3FE0
4200
0200
FFF0
0900
0900
1110
2110
C0F0
0000
0000
ENDCHAR
STARTCHAR U+5149
ENCODING 20809
SWIDTH 520 0 
DWIDTH 14 0
BBX 14 14 -1 -4
BITMAP
0200
2240
1240
1280
0200
FFF0
0900
0900
0900
1110
2110
C0F0
0000
0000
ENDCHAR
STARTCHAR U+514B
ENCODING 20811
SWIDTH 520 0 
DWIDTH 14 0
BBX 14 14 -1 -4
BITMAP
0200
0220
7FF0
0200
1FC0
1040
1040
1FC0
0900
0910
1110
60F0
0000
0000
ENDCHAR
STARTCHAR U+514D
ENCODING 20813
SWIDTH 520 0 
DWIDTH 14 0
BBX 14 14 -1 -4
BITMAP
0800
0F80
1100
2200
7FE0
2220
2220
3FE0
0500
0910
1110
60F0
0000
0000
ENDCHAR
STARTCHAR U+5151
ENCODING 20817
SWIDTH 520 0 
DWIDTH 14 0
BBX 14 14 -1 -4
BITMAP
1080
0900
0A00
3F80
2080
2080
3F80
0A00
0A00
1210
2210
C1F0
0000
0000
ENDCHAR
STARTCHAR U+5154
ENCODING 20820
SWIDTH 520 0 
DWIDTH 14 0
BBX 14 14 -1 -4
BITMAP
1000
1F00
2200
7FE0
A220
2220
3FE0
2200
0580
0950
1110
E0F0
0000
0000
ENDCHAR
STARTCHAR U+5155
ENCODING 20821
SWIDTH 520 0 
DWIDTH 14 0
BBX 14 14 -1 -4
BITMAP
0020
79F0
4920
4F20
4020
4020
7FE0
0900
0900
1110
2110
C0F0
0000
0000
ENDCHAR
STARTCHAR U+5156
ENCODING 20822
SWIDTH 520 0 
DWIDTH 14 0
BBX 14 14 -1 -4
BITMAP
0400
0220
FFF0
1080
2440
C920
1080
3FC0
0900
0910
1110
60F0
0000
0000
ENDCHAR
STARTCHAR U+515A
ENCODING 20826
SWIDTH 520 0 
DWIDTH 14 0
BBX 14 14 -1 -4
BITMAP
2440
1480
7FF0
4010
9FA0
1080
1080
1F80
0900
0910
1110
E0F0
0000
0000
ENDCHAR
STARTCHAR U+515C
ENCODING 20828
SWIDTH 520 0 
DWIDTH 14 0
BBX 14 14 -1 -4
BITMAP
0200
1400
6F60
4920
4F20
4920
6F60
0000
0900
0910
1110
E0F0
0000
0000
ENDCHAR
STARTCHAR U+5162
ENCODING 20834
SWIDTH 520 0 
DWIDTH 14 0
BBX 14 14 -1 -4
BITMAP
2080
2080
FBF0
2080
FBE0
8A20
FBE0
5140
5540
5940
5250
8470
0000
0000
ENDCHAR
STARTCHAR U+5165
ENCODING 20837
SWIDTH 520 0 
DWIDTH 14 0
BBX 14 14 -1 -4
BITMAP
1800
0400
0400
0400
0A00
0A00
0900
1100
1080
2040
C030
0000
0000
0000
ENDCHAR
STARTCHAR U+5168
ENCODING 20840
SWIDTH 520 0 
DWIDTH 14 0
BBX 14 14 -1 -4
BITMAP
0400
0A00
1100
2080
4040
BFA0
0400
0400
3F80
0400
0400
FFE0
0000
0000
ENDCHAR
STARTCHAR U+516B
ENCODING 20843
SWIDTH 520 0 
DWIDTH 14 0
BBX 14 14 -1 -4
BITMAP
0100
0900
0900
0900
0900
0900
0880
1080
1040
2040
4020
8010
0000
0000
ENDCHAR
STARTCHAR U+516C
ENCODING 20844
SWIDTH 520 0 
DWIDTH 14 0
BBX 14 14 -1 -4
BITMAP
0900
0900
1080
1080
2040
4420
8410
0800
0900
1080
3FC0
1040
0000
0000
ENDCHAR
STARTCHAR U+516D
ENCODING 20845
SWIDTH 520 0 
DWIDTH 14 0
BBX 14 14 -1 -4
BITMAP
0800
0400
0200
FFF0
0000
0900
0880
1040
1040
2020
4020
0000
0000
0000
ENDCHAR
STARTCHAR U+516E
ENCODING 20846
SWIDTH 520 0 
DWIDTH 14 0
BBX 14 14 -1 -4
BITMAP
0900
0900
1080
2080
5FC0
8430
0800
0F80
0080
0080
0500
0200
0000
0000
ENDCHAR
STARTCHAR U+5170
ENCODING 20848
SWIDTH 520 0 
DWIDTH 14 0
BBX 14 14 -1 -4
BITMAP
2040
1080
0900
7FE0
0000
0000
0000
3FC0
0000
0000
0000
FFF0
0000
0000
ENDCHAR
STARTCHAR U+5171
ENCODING 20849
SWIDTH 520 0 
DWIDTH 14 0
BBX 14 14 -1 -4
BITMAP
0880
0880
7FE0
0880
0880
0880
0880
FFF0
0900
1080
2040
4020
0000
0000
ENDCHAR
STARTCHAR U+5173
ENCODING 20851
SWIDTH 520 0 
DWIDTH 14 0
BBX 14 14 -1 -4
BITMAP
2080
1100
0200
7FC0
0400
0400
FFE0
0400
0A00
1100
2080
C060
0000
0000
ENDCHAR
STARTCHAR U+5174
ENCODING 20852
SWIDTH 520 0 
DWIDTH 14 0
BBX 14 14 -1 -4
BITMAP
0020
4820
2440
1240
1280
0000
FFF0
0000
1100
2080
4060
8020
0000
0000
ENDCHAR
STARTCHAR U+5175
ENCODING 20853
SWIDTH 520 0 
DWIDTH 14 0
BBX 14 14 -1 -4
BITMAP
00C0
1F00
1000
1000
1FE0
1100
1100
FFF0
0000
1080
2060
C020
0000
0000
ENDCHAR
STARTCHAR U+5176
ENCODING 20854
SWIDTH 520 0 
DWIDTH 14 0
BBX 14 14 -1 -4
BITMAP
1080
7FE0
1080
1F80
1080
1080
1F80
1080
FFF0
0880
1040
6020
0000
0000
ENDCHAR
STARTCHAR U+5177
ENCODING 20855
SWIDTH 520 0 
DWIDTH 14 0
BBX 14 14 -1 -4
BITMAP
1F80
1080
1F80
1080
1F80
1080
1F80
1080
FFF0
1080
2040
C020
0000
0000
ENDCHAR
STARTCHAR U+5178
ENCODING 20856
SWIDTH 520 0 
DWIDTH 14 0
BBX 14 14 -1 -4
BITMAP
0900
0900
3FC0
2940
2940
3FC0
2940
2940
FFF0
1080
2040
4020
0000
0000
ENDCHAR
STARTCHAR U+5179
ENCODING 20857
SWIDTH 520 0 
DWIDTH 14 0
BBX 14 14 -1 -4
BITMAP
1080
0900
FFF0
1080
1080
2520
7BE0
0840
1080
2920
7DF0
0410
0000
0000
ENDCHAR
STARTCHAR U+517B
ENCODING 20859
SWIDTH 520 0 
DWIDTH 14 0
BBX 14 14 -1 -4
BITMAP
1080
7FE0
0400
3FC0
0800
FFF0
1080
2940
C930
0900
1100
6100
0000
0000
ENDCHAR
STARTCHAR U+517C
ENCODING 20860
SWIDTH 520 0 
DWIDTH 14 0
BBX 14 14 -1 -4
BITMAP
1080
0900
FFF0
0900
7FC0
0940
FFF0
0940
7FC0
1980
2940
C930
0000
0000
ENDCHAR
STARTCHAR U+517D
ENCODING 20861
SWIDTH 520 0 
DWIDTH 14 0
BBX 14 14 -1 -4
BITMAP
0880
3FE0
2220
3FE0
2220
3FE0
0000
7FF0
0000
1FC0
1040
1FC0
0000
0000
ENDCHAR
STARTCHAR U+5180
ENCODING 20864
SWIDTH 520 0 
DWIDTH 14 0
BBX 14 14 -1 -4
BITMAP
0960
7980
0910
FFF0
2440
3FC0
2440
7FE0
0900
FFF0
0880
7060
0000
0000
ENDCHAR
STARTCHAR U+5181
ENCODING 20865
SWIDTH 520 0 
DWIDTH 14 0
BBX 14 14 -1 -4
BITMAP
8800
53F0
FA10
ABF0
FAA0
ABF0
FAA0
23F0
FB40
2550
29A0
3110
0000
0000
ENDCHAR
STARTCHAR U+5182
ENCODING 20866
SWIDTH 520 0 
DWIDTH 14 0
BBX 14 14 -1 -4
BITMAP
0020
7FF0
4020
4020
4020
4020
4020
4020
4020
4020
4020
4060
0000
0000
ENDCHAR
STARTCHAR U+5185
ENCODING 20869
SWIDTH 520 0 
DWIDTH 14 0
BBX 14 14 -1 -4
BITMAP
0400
0400
0400
7FE0
4420
4620
4920
50A0
60A0
4020
4020
4060
0000
0000
ENDCHAR
STARTCHAR U+5188
ENCODING 20872
SWIDTH 520 0 
DWIDTH 14 0
BBX 14 14 -1 -4
BITMAP
0020
7FF0
4020
48A0
4520
4220
4520
48A0
50A0
4020
4020
4060
0000
0000
ENDCHAR
STARTCHAR U+5189
ENCODING 20873
SWIDTH 520 0 
DWIDTH 14 0
BBX 14 14 -1 -4
BITMAP
0200
0200
3FC0
2240
2240
3FC0
2240
FFF0
2040
2040
2040
20C0
0000
0000
ENDCHAR
STARTCHAR U+518C
ENCODING 20876
SWIDTH 520 0 
DWIDTH 14 0
BBX 14 14 -1 -4
BITMAP
0020
3DF0
2520
2520
2520
FFF0
2520
2520
2520
2520
4A20
8460
0000
0000
ENDCHAR
STARTCHAR U+518D
ENCODING 20877
SWIDTH 520 0 
DWIDTH 14 0
BBX 14 14 -1 -4
BITMAP
0020
FFF0
0400
3FC0
2440
3FC0
2440
2440
FFF0
2040
2040
20C0
0000
0000
ENDCHAR
STARTCHAR U+5192
ENCODING 20882
SWIDTH 520 0 
DWIDTH 14 0
BBX 14 14 -1 -4
BITMAP
3FE0
2020
2FA0
2020
2FA0
0000
1FC0
1240
1940
14C0
1240
1FC0
0000
0000
ENDCHAR
STARTCHAR U+5195
ENCODING 20885
SWIDTH 520 0 
DWIDTH 14 0
BBX 14 14 -1 -4
BITMAP
3FC0
2040
2F40
2040
1F00
2200
7FC0
A440
3FC0
0A10
1210
E1F0
0000
0000
ENDCHAR
STARTCHAR U+5196
ENCODING 20886
SWIDTH 520 0 
DWIDTH 14 0
BBX 14 14 -1 -4
BITMAP
0000
7FF0
4010
8020
0000
0000
0000
0000
0000
0000
0000
0000
0000
0000
ENDCHAR
STARTCHAR U+5197
ENCODING 20887
SWIDTH 520 0 
DWIDTH 14 0
BBX 14 14 -1 -4
BITMAP
0000
7FE0
4020
9F40
1100
1100
1100
1100
1110
1110
2110
C0F0
0000
0000
ENDCHAR
STARTCHAR U+5199
ENCODING 20889
SWIDTH 520 0 
DWIDTH 14 0
BBX 14 14 -1 -4
BITMAP
0000
7FE0
5020
1FC0
1000
1000
1FE0
0020
7FA0
0020
0140
0080
0000
0000
ENDCHAR
STARTCHAR U+519B
ENCODING 20891
SWIDTH 520 0 
DWIDTH 14 0
BBX 14 14 -1 -4
BITMAP
7FF0
4020
8400
3FC0
0800
1200
3FC0
0200
7FF0
0200
0200
0200
0000
0000
ENDCHAR
STARTCHAR U+519C
ENCODING 20892
SWIDTH 520 0 
DWIDTH 14 0
BBX 14 14 -1 -4
BITMAP
0400
0400
7FE0
4420
0A00
0A40
1280
3100
5080
9240
1430
1800
0000
0000
ENDCHAR
STARTCHAR U+51A0
ENCODING 20896
SWIDTH 520 0 
DWIDTH 14 0
BBX 14 14 -1 -4
BITMAP
0000
7FE0
4020
3C40
03F0
7C40
2940
2940
2840
28D0
4810
87F0
0000
0000
ENDCHAR
STARTCHAR U+51A2
ENCODING 20898
SWIDTH 520 0 
DWIDTH 14 0
BBX 14 14 -1 -4
BITMAP
0000
7FF0
8020
3F80
0C40
3680
EB00
3280
D640
1A20
E210
0C00
0000
0000
ENDCHAR
STARTCHAR U+51A4
ENCODING 20900
SWIDTH 520 0 
DWIDTH 14 0
BBX 14 14 -1 -4
BITMAP
7FF0
4810
9F20
2200
7FC0
2440
2440
3FC0
0A80
1250
2210
C1F0
0000
0000
ENDCHAR
STARTCHAR U+51A5
ENCODING 20901
SWIDTH 520 0 
DWIDTH 14 0
BBX 14 14 -1 -4
BITMAP
7FF0
4010
9FA0
1080
1F80
1080
1F80
0220
FFF0
1080
2040
C020
0000
0000
ENDCHAR
STARTCHAR U+51AB
ENCODING 20907
SWIDTH 520 0 
DWIDTH 14 0
BBX 14 14 -1 -4
BITMAP
0000
4000
2000
2000
0800
1000
2000
C000
4000
4000
4000
0000
0000
0000
ENDCHAR
STARTCHAR U+51AC
ENCODING 20908
SWIDTH 520 0 
DWIDTH 14 0
BBX 14 14 -1 -4
BITMAP
0800
0FC0
0880
1500
2200
4500
18C0
E630
0100
1800
0600
0100
0000
0000
ENDCHAR
STARTCHAR U+51AF
ENCODING 20911
SWIDTH 520 0 
DWIDTH 14 0
BBX 14 14 -1 -4
BITMAP
0040
4FE0
2040
0440
1440
2440
47F0
C010
5FD0
4010
40A0
0040
0000
0000
ENDCHAR
STARTCHAR U+51B0
ENCODING 20912
SWIDTH 520 0 
DWIDTH 14 0
BBX 14 14 -1 -4
BITMAP
8100
4100
2120
0D40
0580
2500
4580
C940
4920
5110
4100
0300
0000
0000
ENDCHAR
STARTCHAR U+51B1
ENCODING 20913
SWIDTH 520 0 
DWIDTH 14 0
BBX 14 14 -1 -4
BITMAP
0020
9FF0
4200
0200
03C0
1440
2440
47C0
C040
4080
4080
5FF0
0000
0000
ENDCHAR
STARTCHAR U+51B2
ENCODING 20914
SWIDTH 520 0 
DWIDTH 14 0
BBX 14 14 -1 -4
BITMAP
0100
8100
4100
2FF0
0910
0910
2FF0
4910
C100
4100
4100
4100
0000
0000
ENDCHAR
STARTCHAR U+51B3
ENCODING 20915
SWIDTH 520 0 
DWIDTH 14 0
BBX 14 14 -1 -4
BITMAP
0200
4200
2200
0FC0
0240
1240
2FF0
C200
4500
4880
5040
2030
0000
0000
ENDCHAR
STARTCHAR U+51B5
ENCODING 20917
SWIDTH 520 0 
DWIDTH 14 0
BBX 14 14 -1 -4
BITMAP
0040
8FE0
4840
0840
0840
2FC0
4280
C280
4280
4490
4890
3070
0000
0000
ENDCHAR
STARTCHAR U+51B6
ENCODING 20918
SWIDTH 520 0 
DWIDTH 14 0
BBX 14 14 -1 -4
BITMAP
0100
8100
4240
2420
0FF0
2010
47E0
C420
4420
4420
47E0
0420
0000
0000
ENDCHAR
STARTCHAR U+51B7
ENCODING 20919
SWIDTH 520 0 
DWIDTH 14 0
BBX 14 14 -1 -4
BITMAP
0100
8100
4280
0440
0A20
2110
4FC0
C040
4080
4300
4100
0080
0000
0000
ENDCHAR
STARTCHAR U+51BB
ENCODING 20923
SWIDTH 520 0 
DWIDTH 14 0
BBX 14 14 -1 -4
BITMAP
0100
4100
2FF0
0200
0500
2900
4FF0
C100
4540
4920
5110
0300
0000
0000
ENDCHAR
STARTCHAR U+51BC
ENCODING 20924
SWIDTH 520 0 
DWIDTH 14 0
BBX 14 14 -1 -4
BITMAP
0100
8900
4FE0
0900
1100
1FF0
4480
C480
4480
4890
5090
2070
0000
0000
ENDCHAR
STARTCHAR U+51BD
ENCODING 20925
SWIDTH 520 0 
DWIDTH 14 0
BBX 14 14 -1 -4
BITMAP
0020
9F20
4820
0EA0
0AA0
2AA0
56A0
C2A0
44A0
4820
5020
2060
0000
0000
ENDCHAR
STARTCHAR U+51C0
ENCODING 20928
SWIDTH 520 0 
DWIDTH 14 0
BBX 14 14 -1 -4
BITMAP
0200
43C0
2480
0FE0
0120
2FF0
4120
C120
4FE0
4100
4100
0300
0000
0000
ENDCHAR
STARTCHAR U+51C4
ENCODING 20932
SWIDTH 520 0 
DWIDTH 14 0
BBX 14 14 -1 -4
BITMAP
0100
4FF0
2120
0FF0
0120
2FE0
4200
DFF0
4240
4480
4380
5C60
0000
0000
ENDCHAR
STARTCHAR U+51C6
ENCODING 20934
SWIDTH 520 0 
DWIDTH 14 0
BBX 14 14 -1 -4
BITMAP
0500
4480
27F0
0C80
0480
27E0
4480
C7E0
4480
4480
47F0
0400
0000
0000
ENDCHAR
STARTCHAR U+51C7
ENCODING 20935
SWIDTH 520 0 
DWIDTH 14 0
BBX 14 14 -1 -4
BITMAP
0440
8440
4540
1F20
0520
2D50
4E40
D480
5480
6520
4570
4590
0000
0000
ENDCHAR
STARTCHAR U+51C9
ENCODING 20937
SWIDTH 520 0 
DWIDTH 14 0
BBX 14 14 -1 -4
BITMAP
0200
8100
5FF0
0000
0FC0
2840
4FC0
C100
4540
4920
5110
2300
0000
0000
ENDCHAR
STARTCHAR U+51CB
ENCODING 20939
SWIDTH 520 0 
DWIDTH 14 0
BBX 14 14 -1 -4
BITMAP
8020
4FF0
4920
0BA0
2920
4FE0
C820
4BA0
4AA0
4BA0
5020
2060
0000
0000
ENDCHAR
STARTCHAR U+51CC
ENCODING 20940
SWIDTH 520 0 
DWIDTH 14 0
BBX 14 14 -1 -4
BITMAP
0100
8100
4FE0
0100
1FF0
2440
4A20
C7C0
4A80
4100
4280
1C70
0000
0000
ENDCHAR
STARTCHAR U+51CF
ENCODING 20943
SWIDTH 520 0 
DWIDTH 14 0
BBX 14 14 -1 -4
BITMAP
00A0
80A0
5FF0
1080
1780
30A0
57A0
D5A0
5540
5750
20B0
4310
0000
0000
ENDCHAR
STARTCHAR U+51D1
ENCODING 20945
SWIDTH 520 0 
DWIDTH 14 0
BBX 14 14 -1 -4
BITMAP
8200
5FE0
4200
0FC0
2400
3FE0
4880
D770
6200
4FC0
4480
5860
0000
0000
ENDCHAR
STARTCHAR U+51DB
ENCODING 20955
SWIDTH 520 0 
DWIDTH 14 0
BBX 14 14 -1 -4
BITMAP
0100
9FF0
4000
0FE0
0AA0
2BA0
4FE0
C000
5FF0
4100
4920
1310
0000
0000
ENDCHAR
STARTCHAR U+51DD
ENCODING 20957
SWIDTH 520 0 
DWIDTH 14 0
BBX 14 14 -1 -4
BITMAP
11E0
9C20
52C0
0E40
51F0
5E50
6940
C970
5F40
49C0
5540
2230
0000
0000
ENDCHAR
STARTCHAR U+51E0
ENCODING 20960
SWIDTH 520 0 
DWIDTH 14 0
BBX 14 14 -1 -4
BITMAP
0100
1F80
1100
1100
1100
1100
1100
1100
1100
2110
4110
80F0
0000
0000
ENDCHAR
STARTCHAR U+51E1
ENCODING 20961
SWIDTH 520 0 
DWIDTH 14 0
BBX 14 14 -1 -4
BITMAP
0080
1FC0
1080
1080
1480
1280
1280
1080
1090
2090
4090
8070
0000
0000
ENDCHAR
STARTCHAR U+51E4
ENCODING 20964
SWIDTH 520 0 
DWIDTH 14 0
BBX 14 14 -1 -4
BITMAP
0040
3FE0
2040
3F40
2940
2540
2240
2540
28D0
5050
4030
8010
0000
0000
ENDCHAR
STARTCHAR U+51EB
ENCODING 20971
SWIDTH 520 0 
DWIDTH 14 0
BBX 14 14 -1 -4
BITMAP
0400
3FC0
2840
2580
2000
3FE0
0020
1E20
12C0
1210
2210
C1F0
0000
0000
ENDCHAR
STARTCHAR U+51ED
ENCODING 20973
SWIDTH 520 0 
DWIDTH 14 0
BBX 14 14 -1 -4
BITMAP
10C0
1700
2100
6FF0
A100
2100
2FE0
0000
1F00
1110
2110
C0F0
0000
0000
ENDCHAR
STARTCHAR U+51EF
ENCODING 20975
SWIDTH 520 0 
DWIDTH 14 0
BBX 14 14 -1 -4
BITMAP
2000
ABC0
AA40
FA40
0240
FA40
0A40
FA40
8240
9A50
E450
8830
0000
0000
ENDCHAR
STARTCHAR U+51F0
ENCODING 20976
SWIDTH 520 0 
DWIDTH 14 0
BBX 14 14 -1 -4
BITMAP
3FC0
2040
2440
2F40
2940
2F40
2940
3FC0
2450
5F50
4430
BFD0
0000
0000
ENDCHAR
STARTCHAR U+51F3
ENCODING 20979
SWIDTH 520 0 
DWIDTH 14 0
BBX 14 14 -1 -4
BITMAP
7D40
2880
1FA0
2040
DFB0
1080
1F80
0900
FFF0
0900
1110
E0F0
0000
0000
ENDCHAR
STARTCHAR U+51F5
ENCODING 20981
SWIDTH 520 0 
DWIDTH 14 0
BBX 14 14 -1 -4
BITMAP
0000
0000
4020
4020
4020
4020
4020
4020
4020
4020
7FE0
0020
0000
0000
ENDCHAR
STARTCHAR U+51F6
ENCODING 20982
SWIDTH 520 0 
DWIDTH 14 0
BBX 14 14 -1 -4
BITMAP
0000
0080
50A0
4920
4520
4220
4520
48A0
50A0
4020
7FE0
0020
0000
0000
ENDCHAR
STARTCHAR U+51F8
ENCODING 20984
SWIDTH 520 0 
DWIDTH 14 0
BBX 14 14 -1 -4
BITMAP
0000
0F00
0900
0900
0900
79E0
4020
4020
4020
4020
7FE0
4020
0000
0000
ENDCHAR
STARTCHAR U+51F9
ENCODING 20985
SWIDTH 520 0 
DWIDTH 14 0
BBX 14 14 -1 -4
BITMAP
0000
79E0
4920
4920
4920
4920
4F20
4020
4020
4020
7FE0
4020
0000
0000
ENDCHAR
STARTCHAR U+51FA
ENCODING 20986
SWIDTH 520 0 
DWIDTH 14 0
BBX 14 14 -1 -4
BITMAP
0400
0400
2440
2440
2440
3FC0
0400
4420
4420
4420
4420
7FE0
0000
0000
ENDCHAR
STARTCHAR U+51FB
ENCODING 20987
SWIDTH 520 0 
DWIDTH 14 0
BBX 14 14 -1 -4
BITMAP
0200
0200
7FE0
0200
0200
FFF0
0200
2220
2220
2220
3FE0
0020
0000
0000
ENDCHAR
STARTCHAR U+51FC
ENCODING 20988
SWIDTH 520 0 
DWIDTH 14 0
BBX 14 14 -1 -4
BITMAP
0200
0200
4220
7AA0
4B20
4A20
5320
52A0
6260
4620
4020
7FE0
0000
0000
ENDCHAR
STARTCHAR U+51FD
ENCODING 20989
SWIDTH 520 0 
DWIDTH 14 0
BBX 14 14 -1 -4
BITMAP
0080
7FC0
0100
0200
52A0
4B20
4620
4B20
52A0
4620
4020
7FE0
0000
0000
ENDCHAR
STARTCHAR U+51FF
ENCODING 20991
SWIDTH 520 0 
DWIDTH 14 0
BBX 14 14 -1 -4
BITMAP
0900
4920
2940
FFF0
1100
4A20
5FA0
4420
5FA0
4420
4020
7FE0
0000
0000
ENDCHAR
STARTCHAR U+5200
ENCODING 20992
SWIDTH 520 0 
DWIDTH 14 0
BBX 14 14 -1 -4
BITMAP
0000
7FE0
0420
0420
0420
0420
0420
0820
0820
1020
2140
C080
0000
0000
ENDCHAR
STARTCHAR U+5201
ENCODING 20993
SWIDTH 520 0 
DWIDTH 14 0
BBX 14 14 -1 -4
BITMAP
0020
7FF0
0020
00A0
0120
0220
0420
1820
6020
0020
0140
0080
0000
0000
ENDCHAR
STARTCHAR U+5202
ENCODING 20994
SWIDTH 520 0 
DWIDTH 14 0
BBX 14 14 -1 -4
BITMAP
0020
0020
0120
0120
0120
0120
0120
0120
0120
0020
0020
0060
0000
0000
ENDCHAR
STARTCHAR U+5203
ENCODING 20995
SWIDTH 520 0 
DWIDTH 14 0
BBX 14 14 -1 -4
BITMAP
0020
7FF0
0420
0420
2420
2420
4420
0820
0820
1020
2140
4080
0000
0000
ENDCHAR
STARTCHAR U+5206
ENCODING 20998
SWIDTH 520 0 
DWIDTH 14 0
BBX 14 14 -1 -4
BITMAP
0900
0900
1100
1080
2040
5FB0
8880
0880
0880
1080
2280
4100
0000
0000
ENDCHAR
STARTCHAR U+5207
ENCODING 20999
SWIDTH 520 0 
DWIDTH 14 0
BBX 14 14 -1 -4
BITMAP
2000
27E0
2120
3D20
E120
2120
2120
2120
2920
3220
24A0
0840
0000
0000
ENDCHAR
STARTCHAR U+5208
ENCODING 21000
SWIDTH 520 0 
DWIDTH 14 0
BBX 14 14 -1 -4
BITMAP
0020
0420
8520
4920
2920
1120
1920
2920
2520
4420
8020
0060
0000
0000
ENDCHAR
STARTCHAR U+520A
ENCODING 21002
SWIDTH 520 0 
DWIDTH 14 0
BBX 14 14 -1 -4
BITMAP
0020
7C20
1120
1120
1120
FF20
1120
1120
1120
1020
1020
1060
0000
0000
ENDCHAR
STARTCHAR U+520D
ENCODING 21005
SWIDTH 520 0 
DWIDTH 14 0
BBX 14 14 -1 -4
BITMAP
0800
0880
1F80
2100
4200
BFE0
0020
0020
1FE0
0020
0020
3FE0
0000
0000
ENDCHAR
STARTCHAR U+520E
ENCODING 21006
SWIDTH 520 0 
DWIDTH 14 0
BBX 14 14 -1 -4
BITMAP
2020
2020
3EA0
6AA0
AAA0
2AA0
2AA0
4AA0
92A0
2220
5420
0860
0000
0000
ENDCHAR
STARTCHAR U+5211
ENCODING 21009
SWIDTH 520 0 
DWIDTH 14 0
BBX 14 14 -1 -4
BITMAP
0420
7E20
24A0
24A0
24A0
FFA0
24A0
24A0
24A0
4420
4420
8460
0000
0000
ENDCHAR
STARTCHAR U+5212
ENCODING 21010
SWIDTH 520 0 
DWIDTH 14 0
BBX 14 14 -1 -4
BITMAP
2010
2810
2490
3E90
E090
2090
2490
2890
1090
2810
C510
0330
0000
0000
ENDCHAR
STARTCHAR U+5216
ENCODING 21014
SWIDTH 520 0 
DWIDTH 14 0
BBX 14 14 -1 -4
BITMAP
0410
7E10
4490
4490
7C90
4490
4490
7C90
4490
4410
8410
8C30
0000
0000
ENDCHAR
STARTCHAR U+5217
ENCODING 21015
SWIDTH 520 0 
DWIDTH 14 0
BBX 14 14 -1 -4
BITMAP
0020
FE20
10A0
1CA0
24A0
24A0
54A0
88A0
08A0
1020
2020
4060
0000
0000
ENDCHAR
STARTCHAR U+5218
ENCODING 21016
SWIDTH 520 0 
DWIDTH 14 0
BBX 14 14 -1 -4
BITMAP
2010
1010
0090
FE90
0490
4890
2890
1090
1090
2890
4410
8030
0000
0000
ENDCHAR
STARTCHAR U+5219
ENCODING 21017
SWIDTH 520 0 
DWIDTH 14 0
BBX 14 14 -1 -4
BITMAP
0020
7C20
44A0
54A0
54A0
54A0
54A0
54A0
10A0
2820
4420
8260
0000
0000
ENDCHAR
STARTCHAR U+521A
ENCODING 21018
SWIDTH 520 0 
DWIDTH 14 0
BBX 14 14 -1 -4
BITMAP
0010
7E10
4290
4A90
6A90
5290
5290
6A90
4A90
4210
4210
4630
0000
0000
ENDCHAR
STARTCHAR U+521B
ENCODING 21019
SWIDTH 520 0 
DWIDTH 14 0
BBX 14 14 -1 -4
BITMAP
1010
1810
2490
4290
BC90
2490
2490
2490
3810
2210
2210
1E30
0000
0000
ENDCHAR
STARTCHAR U+521D
ENCODING 21021
SWIDTH 520 0 
DWIDTH 14 0
BBX 14 14 -1 -4
BITMAP
2000
1020
FBF0
0920
1120
2920
7120
A920
2220
2220
24A0
2840
0000
0000
ENDCHAR
STARTCHAR U+5220
ENCODING 21024
SWIDTH 520 0 
DWIDTH 14 0
BBX 14 14 -1 -4
BITMAP
0010
7710
5550
5550
5550
FFD0
5550
5550
5550
5510
5510
AB30
0000
0000
ENDCHAR
STARTCHAR U+5224
ENCODING 21028
SWIDTH 520 0 
DWIDTH 14 0
BBX 14 14 -1 -4
BITMAP
1020
9220
54A0
10A0
7EA0
10A0
10A0
FEA0
10A0
2020
4020
8060
0000
0000
ENDCHAR
STARTCHAR U+5228
ENCODING 21032
SWIDTH 520 0 
DWIDTH 14 0
BBX 14 14 -1 -4
BITMAP
2020
2020
3EA0
42A0
FAA0
4AA0
4AA0
7AA0
44A0
4220
4220
3E60
0000
0000
ENDCHAR
STARTCHAR U+5229
ENCODING 21033
SWIDTH 520 0 
DWIDTH 14 0
BBX 14 14 -1 -4
BITMAP
0C20
7020
10A0
10A0
FEA0
10A0
38A0
54A0
52A0
9020
1020
1060
0000
0000
ENDCHAR
STARTCHAR U+522B
ENCODING 21035
SWIDTH 520 0 
DWIDTH 14 0
BBX 14 14 -1 -4
BITMAP
0020
7C20
44A0
44A0
7CA0
10A0
FEA0
12A0
12A0
2220
4220
8C60
0000
0000
ENDCHAR
STARTCHAR U+522D
ENCODING 21037
SWIDTH 520 0 
DWIDTH 14 0
BBX 14 14 -1 -4
BITMAP
0820
FC20
10A0
28A0
44A0
82A0
7CA0
10A0
10A0
1020
1E20
E060
0000
0000
ENDCHAR
STARTCHAR U+522E
ENCODING 21038
SWIDTH 520 0 
DWIDTH 14 0
BBX 14 14 -1 -4
BITMAP
0420
0E20
F0A0
10A0
FEA0
10A0
10A0
7CA0
44A0
4420
7C20
4460
0000
0000
ENDCHAR
STARTCHAR U+5230
ENCODING 21040
SWIDTH 520 0 
DWIDTH 14 0
BBX 14 14 -1 -4
BITMAP
0020
FE20
10A0
24A0
7EA0
10A0
10A0
7EA0
10A0
1020
1E20
E060
0000
0000
ENDCHAR
STARTCHAR U+5233
ENCODING 21043
SWIDTH 520 0 
DWIDTH 14 0
BBX 14 14 -1 -4
BITMAP
1010
FE10
2890
4490
BA90
0090
FE90
2090
7C90
0410
2410
1830
0000
0000
ENDCHAR
STARTCHAR U+5236
ENCODING 21046
SWIDTH 520 0 
DWIDTH 14 0
BBX 14 14 -1 -4
BITMAP
0810
2810
3E50
4850
FF50
0850
0850
7F50
4950
4910
4B10
0830
0000
0000
ENDCHAR
STARTCHAR U+5237
ENCODING 21047
SWIDTH 520 0 
DWIDTH 14 0
BBX 14 14 -1 -4
BITMAP
7E20
4220
42A0
7EA0
48A0
7EA0
6AA0
6AA0
AAA0
AA20
2E20
0860
0000
0000
ENDCHAR
STARTCHAR U+5238
ENCODING 21048
SWIDTH 520 0 
DWIDTH 14 0
BBX 14 14 -1 -4
BITMAP
2480
1500
7FE0
0800
FFF0
1100
20C0
5FB0
8880
0880
1080
6300
0000
0000
ENDCHAR
STARTCHAR U+5239
ENCODING 21049
SWIDTH 520 0 
DWIDTH 14 0
BBX 14 14 -1 -4
BITMAP
0020
6420
18A0
64A0
10A0
FEA0
10A0
54A0
52A0
9220
1020
3060
0000
0000
ENDCHAR
STARTCHAR U+523A
ENCODING 21050
SWIDTH 520 0 
DWIDTH 14 0
BBX 14 14 -1 -4
BITMAP
0810
FF10
0890
7E90
4A90
4A90
4A90
1890
2C90
4A10
8910
0830
0000
0000
ENDCHAR
STARTCHAR U+523B
ENCODING 21051
SWIDTH 520 0 
DWIDTH 14 0
BBX 14 14 -1 -4
BITMAP
1010
0810
FE90
1090
2490
7890
1290
2490
4890
9410
2210
4030
0000
0000
ENDCHAR
STARTCHAR U+523D
ENCODING 21053
SWIDTH 520 0 
DWIDTH 14 0
BBX 14 14 -1 -4
BITMAP
1020
1820
24A0
42A0
BCA0
00A0
FEA0
10A0
20A0
4420
FE20
4260
0000
0000
ENDCHAR
STARTCHAR U+523F
ENCODING 21055
SWIDTH 520 0 
DWIDTH 14 0
BBX 14 14 -1 -4
BITMAP
0820
4A20
4AA0
7EA0
10A0
1EA0
22A0
64A0
94A0
0820
1020
6060
0000
0000
ENDCHAR
STARTCHAR U+5240
ENCODING 21056
SWIDTH 520 0 
DWIDTH 14 0
BBX 14 14 -1 -4
BITMAP
1020
5220
52A0
7EA0
00A0
FCA0
04A0
7CA0
40A0
4620
5820
6060
0000
0000
ENDCHAR
STARTCHAR U+5241
ENCODING 21057
SWIDTH 520 0 
DWIDTH 14 0
BBX 14 14 -1 -4
BITMAP
3C10
2410
2490
2490
4690
9090
FE90
1090
3890
5410
9210
1030
0000
0000
ENDCHAR
STARTCHAR U+5242
ENCODING 21058
SWIDTH 520 0 
DWIDTH 14 0
BBX 14 14 -1 -4
BITMAP
1010
0810
FE90
2490
1890
2490
C290
2490
2490
2410
4410
8430
0000
0000
ENDCHAR
STARTCHAR U+5243
ENCODING 21059
SWIDTH 520 0 
DWIDTH 14 0
BBX 14 14 -1 -4
BITMAP
4410
2810
7E90
1290
7E90
5090
7E90
1290
3290
5610
9010
1030
0000
0000
ENDCHAR
STARTCHAR U+524A
ENCODING 21066
SWIDTH 520 0 
DWIDTH 14 0
BBX 14 14 -1 -4
BITMAP
1020
9220
54A0
7CA0
44A0
7CA0
44A0
44A0
7CA0
4420
4420
4C60
0000
0000
ENDCHAR
STARTCHAR U+524C
ENCODING 21068
SWIDTH 520 0 
DWIDTH 14 0
BBX 14 14 -1 -4
BITMAP
1020
1020
FEA0
10A0
7EA0
52A0
7EA0
18A0
34A0
5220
9020
1060
0000
0000
ENDCHAR
STARTCHAR U+524D
ENCODING 21069
SWIDTH 520 0 
DWIDTH 14 0
BBX 14 14 -1 -4
BITMAP
1080
0900
FFF0
0000
7D40
4540
7D40
4540
7D40
4540
4440
4CC0
0000
0000
ENDCHAR
STARTCHAR U+5250
ENCODING 21072
SWIDTH 520 0 
DWIDTH 14 0
BBX 14 14 -1 -4
BITMAP
7C20
4420
44A0
7CA0
10A0
FEA0
92A0
9AA0
A6A0
C220
8220
8660
0000
0000
ENDCHAR
STARTCHAR U+5251
ENCODING 21073
SWIDTH 520 0 
DWIDTH 14 0
BBX 14 14 -1 -4
BITMAP
1010
1810
2490
4290
BC90
0090
5290
5290
5490
0410
1F10
E030
0000
0000
ENDCHAR
STARTCHAR U+5254
ENCODING 21076
SWIDTH 520 0 
DWIDTH 14 0
BBX 14 14 -1 -4
BITMAP
0020
7CA0
44A0
7CA0
44A0
7CA0
40A0
7EA0
AAA0
5220
A220
4C60
0000
0000
ENDCHAR
STARTCHAR U+5256
ENCODING 21078
SWIDTH 520 0 
DWIDTH 14 0
BBX 14 14 -1 -4
BITMAP
2020
1020
FEA0
44A0
28A0
FEA0
00A0
7CA0
44A0
4420
7C20
4460
0000
0000
ENDCHAR
STARTCHAR U+525C
ENCODING 21084
SWIDTH 520 0 
DWIDTH 14 0
BBX 14 14 -1 -4
BITMAP
0810
7F10
4150
2050
3750
5550
5550
D750
2450
2510
4610
8430
0000
0000
ENDCHAR
STARTCHAR U+525E
ENCODING 21086
SWIDTH 520 0 
DWIDTH 14 0
BBX 14 14 -1 -4
BITMAP
1020
1020
FEA0
28A0
44A0
FFA0
04A0
74A0
54A0
7420
4420
0C60
0000
0000
ENDCHAR
STARTCHAR U+5261
ENCODING 21089
SWIDTH 520 0 
DWIDTH 14 0
BBX 14 14 -1 -4
BITMAP
1020
5220
54A0
98A0
24A0
50A0
92A0
54A0
58A0
9420
2220
C060
0000
0000
ENDCHAR
STARTCHAR U+5265
ENCODING 21093
SWIDTH 520 0 
DWIDTH 14 0
BBX 14 14 -1 -4
BITMAP
0020
7C20
04A0
7CA0
04A0
FFA0
10A0
54A0
38A0
5420
9220
3060
0000
0000
ENDCHAR
STARTCHAR U+5267
ENCODING 21095
SWIDTH 520 0 
DWIDTH 14 0
BBX 14 14 -1 -4
BITMAP
0010
7E10
4290
7E90
4890
7E90
4890
5E90
5290
5210
9E10
9230
0000
0000
ENDCHAR
STARTCHAR U+5269
ENCODING 21097
SWIDTH 520 0 
DWIDTH 14 0
BBX 14 14 -1 -4
BITMAP
0610
3810
0850
7F50
2A50
6B50
2A50
6B50
1C50
2A50
4910
0830
0000
0000
ENDCHAR
STARTCHAR U+526A
ENCODING 21098
SWIDTH 520 0 
DWIDTH 14 0
BBX 14 14 -1 -4
BITMAP
0880
7FF0
0000
3D20
2520
3D20
2560
0000
7FE0
0420
0820
70C0
0000
0000
ENDCHAR
STARTCHAR U+526F
ENCODING 21103
SWIDTH 520 0 
DWIDTH 14 0
BBX 14 14 -1 -4
BITMAP
0020
FE20
00A0
7CA0
44A0
7CA0
00A0
FEA0
92A0
FE20
9220
FE60
0000
0000
ENDCHAR
STARTCHAR U+5272
ENCODING 21106
SWIDTH 520 0 
DWIDTH 14 0
BBX 14 14 -1 -4
BITMAP
1010
FE10
9290
7C90
1090
7C90
1090
FE90
1090
7C10
4410
7C30
0000
0000
ENDCHAR
STARTCHAR U+527D
ENCODING 21117
SWIDTH 520 0 
DWIDTH 14 0
BBX 14 14 -1 -4
BITMAP
FF10
1410
7F50
5550
7F50
0050
7E50
0050
FF50
0810
4A10
9930
0000
0000
ENDCHAR
STARTCHAR U+527F
ENCODING 21119
SWIDTH 520 0 
DWIDTH 14 0
BBX 14 14 -1 -4
BITMAP
2A20
54A0
2AA0
00A0
7EA0
4AA0
7EA0
4AA0
FFA0
2C20
4A20
8960
0000
0000
ENDCHAR
STARTCHAR U+5281
ENCODING 21121
SWIDTH 520 0 
DWIDTH 14 0
BBX 14 14 -1 -4
BITMAP
2810
2410
7F50
C850
7E50
4850
7E50
4850
7F50
0010
5510
9530
0000
0000
ENDCHAR
STARTCHAR U+5282
ENCODING 21122
SWIDTH 520 0 
DWIDTH 14 0
BBX 14 14 -1 -4
BITMAP
0110
7F90
6A50
5250
7F50
5550
5250
7A50
5250
5510
A890
5030
0000
0000
ENDCHAR
STARTCHAR U+5288
ENCODING 21128
SWIDTH 520 0 
DWIDTH 14 0
BBX 14 14 -1 -4
BITMAP
7880
4BE0
7940
47F0
7880
6BE0
B880
0000
7FE0
0820
1020
E1C0
0000
0000
ENDCHAR
STARTCHAR U+5290
ENCODING 21136
SWIDTH 520 0 
DWIDTH 14 0
BBX 14 14 -1 -4
BITMAP
2410
FF10
2850
3F50
4850
FF50
4850
7F50
4050
3E10
0C10
F330
0000
0000
ENDCHAR
STARTCHAR U+5293
ENCODING 21139
SWIDTH 520 0 
DWIDTH 14 0
BBX 14 14 -1 -4
BITMAP
1020
3E20
22A0
3EA0
22A0
7EA0
4AA0
7EA0
00A0
FF20
2420
C460
0000
0000
ENDCHAR
STARTCHAR U+529B
ENCODING 21147
SWIDTH 520 0 
DWIDTH 14 0
BBX 14 14 -1 -4
BITMAP
0400
0400
0400
7FE0
0420
0420
0420
0420
0820
1020
2140
C080
0000
0000
ENDCHAR
STARTCHAR U+529D
ENCODING 21149
SWIDTH 520 0 
DWIDTH 14 0
BBX 14 14 -1 -4
BITMAP
0080
7880
0880
0FF0
4890
2890
1090
1110
2910
4A10
84A0
0840
0000
0000
ENDCHAR
STARTCHAR U+529E
ENCODING 21150
SWIDTH 520 0 
DWIDTH 14 0
BBX 14 14 -1 -4
BITMAP
0800
0800
0880
7FC0
0880
2880
28A0
4890
1090
2080
4500
8200
0000
0000
ENDCHAR
STARTCHAR U+529F
ENCODING 21151
SWIDTH 520 0 
DWIDTH 14 0
BBX 14 14 -1 -4
BITMAP
0080
0080
FC80
13F0
1090
1090
1090
1110
1910
E210
04A0
0840
0000
0000
ENDCHAR
STARTCHAR U+52A0
ENCODING 21152
SWIDTH 520 0 
DWIDTH 14 0
BBX 14 14 -1 -4
BITMAP
2000
2000
21F0
FD10
2510
2510
2510
2510
2510
4510
55F0
8910
0000
0000
ENDCHAR
STARTCHAR U+52A1
ENCODING 21153
SWIDTH 520 0 
DWIDTH 14 0
BBX 14 14 -1 -4
BITMAP
0800
0F80
1080
2900
4600
1980
E470
3F80
0480
0880
1280
6100
0000
0000
ENDCHAR
STARTCHAR U+52A2
ENCODING 21154
SWIDTH 520 0 
DWIDTH 14 0
BBX 14 14 -1 -4
BITMAP
0080
FE80
2080
21F0
3C90
2490
2490
2490
2510
4520
5AA0
8440
0000
0000
ENDCHAR
STARTCHAR U+52A3
ENCODING 21155
SWIDTH 520 0 
DWIDTH 14 0
BBX 14 14 -1 -4
BITMAP
0400
1440
2420
4490
8100
0600
1A00
EFE0
0220
0420
0940
7080
0000
0000
ENDCHAR
STARTCHAR U+52A8
ENCODING 21160
SWIDTH 520 0 
DWIDTH 14 0
BBX 14 14 -1 -4
BITMAP
0080
7880
0080
03F0
FC90
2090
2090
4890
8510
FD10
02A0
0440
0000
0000
ENDCHAR
STARTCHAR U+52A9
ENCODING 21161
SWIDTH 520 0 
DWIDTH 14 0
BBX 14 14 -1 -4
BITMAP
0100
7900
4900
4BE0
7920
4920
7920
4920
4920
5A20
E4A0
0840
0000
0000
ENDCHAR
STARTCHAR U+52AA
ENCODING 21162
SWIDTH 520 0 
DWIDTH 14 0
BBX 14 14 -1 -4
BITMAP
2000
23E0
FA20
4940
4880
3140
CA30
0400
3FC0
0440
0840
7180
0000
0000
ENDCHAR
STARTCHAR U+52AB
ENCODING 21163
SWIDTH 520 0 
DWIDTH 14 0
BBX 14 14 -1 -4
BITMAP
1080
1080
7C80
13F0
1090
FE90
2090
2890
4490
7D10
42A0
0440
0000
0000
ENDCHAR
STARTCHAR U+52AC
ENCODING 21164
SWIDTH 520 0 
DWIDTH 14 0
BBX 14 14 -1 -4
BITMAP
2080
2080
7C80
45F0
F490
5490
5490
5490
7490
4510
1550
0A20
0000
0000
ENDCHAR
STARTCHAR U+52AD
ENCODING 21165
SWIDTH 520 0 
DWIDTH 14 0
BBX 14 14 -1 -4
BITMAP
0080
FC80
2480
27F0
5490
8890
7C90
4490
4510
4510
7EA0
4440
0000
0000
ENDCHAR
STARTCHAR U+52B1
ENCODING 21169
SWIDTH 520 0 
DWIDTH 14 0
BBX 14 14 -1 -4
BITMAP
0080
7E80
4080
7FF0
5090
5E90
5290
5290
5290
5290
AD50
A220
0000
0000
ENDCHAR
STARTCHAR U+52B2
ENCODING 21170
SWIDTH 520 0 
DWIDTH 14 0
BBX 14 14 -1 -4
BITMAP
0080
7C80
0880
13F0
2C90
C290
7C90
1090
1110
1D10
E2A0
4440
0000
0000
ENDCHAR
STARTCHAR U+52B3
ENCODING 21171
SWIDTH 520 0 
DWIDTH 14 0
BBX 14 14 -1 -4
BITMAP
0900
0900
FFF0
0900
7FE0
4420
0400
3FC0
0440
0840
1040
6180
0000
0000
ENDCHAR
STARTCHAR U+52BE
ENCODING 21182
SWIDTH 520 0 
DWIDTH 14 0
BBX 14 14 -1 -4
BITMAP
2080
1080
FC80
23F0
4890
F890
1490
2490
C890
1510
62A0
8440
0000
0000
ENDCHAR
STARTCHAR U+52BF
ENCODING 21183
SWIDTH 520 0 
DWIDTH 14 0
BBX 14 14 -1 -4
BITMAP
1100
1100
FBC0
1540
7A40
1550
3830
0410
7FC0
0840
1040
6180
0000
0000
ENDCHAR
STARTCHAR U+52C3
ENCODING 21187
SWIDTH 520 0 
DWIDTH 14 0
BBX 14 14 -1 -4
BITMAP
1080
7C80
1080
FDF0
8490
7890
0890
1C90
F110
1110
12A0
3440
0000
0000
ENDCHAR
STARTCHAR U+52C7
ENCODING 21191
SWIDTH 520 0 
DWIDTH 14 0
BBX 14 14 -1 -4
BITMAP
3FC0
0900
3FE0
2220
3FE0
2220
3FE0
2200
7FE0
0420
0920
70C0
0000
0000
ENDCHAR
STARTCHAR U+52C9
ENCODING 21193
SWIDTH 520 0 
DWIDTH 14 0
BBX 14 14 -1 -4
BITMAP
2080
3C80
4880
FDE0
54A0
54A0
7CA0
5120
1920
2AD0
4810
87F0
0000
0000
ENDCHAR
STARTCHAR U+52CB
ENCODING 21195
SWIDTH 520 0 
DWIDTH 14 0
BBX 14 14 -1 -4
BITMAP
0080
7C80
4480
7DE0
00A0
7CA0
44A0
54A0
54A0
1120
2AA0
C440
0000
0000
ENDCHAR
STARTCHAR U+52D0
ENCODING 21200
SWIDTH 520 0 
DWIDTH 14 0
BBX 14 14 -1 -4
BITMAP
0080
7C80
0880
FDF0
1090
3090
7C90
5490
5490
5F10
E150
0220
0000
0000
ENDCHAR
STARTCHAR U+52D2
ENCODING 21202
SWIDTH 520 0 
DWIDTH 14 0
BBX 14 14 -1 -4
BITMAP
2880
FE80
2880
3BF0
1090
7C90
5490
7C90
1090
FD10
12A0
1440
0000
0000
ENDCHAR
STARTCHAR U+52D6
ENCODING 21206
SWIDTH 520 0 
DWIDTH 14 0
BBX 14 14 -1 -4
BITMAP
FE80
8280
BA80
83F0
BA90
0090
7C90
4490
7C90
4510
7D50
4220
0000
0000
ENDCHAR
STARTCHAR U+52D8
ENCODING 21208
SWIDTH 520 0 
DWIDTH 14 0
BBX 14 14 -1 -4
BITMAP
2480
FE80
2480
3DF0
2490
3C90
2490
FE90
5490
6290
7D50
0220
0000
0000
ENDCHAR
STARTCHAR U+52DF
ENCODING 21215
SWIDTH 520 0 
DWIDTH 14 0
BBX 14 14 -1 -4
BITMAP
0900
FFF0
0900
3FC0
2040
3FC0
2040
FFF0
2440
DFB0
0880
3300
0000
0000
ENDCHAR
STARTCHAR U+52E4
ENCODING 21220
SWIDTH 520 0 
DWIDTH 14 0
BBX 14 14 -1 -4
BITMAP
2880
FE80
2880
39F0
1090
7C90
5490
FE90
1090
7C90
1150
FE20
0000
0000
ENDCHAR
STARTCHAR U+52F0
ENCODING 21232
SWIDTH 520 0 
DWIDTH 14 0
BBX 14 14 -1 -4
BITMAP
2020
FBF0
2AA0
2BE0
5AA0
83E0
5000
FD50
5550
5700
A520
ACE0
0000
0000
ENDCHAR
STARTCHAR U+52F9
ENCODING 21241
SWIDTH 520 0 
DWIDTH 14 0
BBX 14 14 -1 -4
BITMAP
0800
0820
1FF0
2020
4020
8020
0020
0020
0020
0020
0120
00C0
0000
0000
ENDCHAR
STARTCHAR U+52FA
ENCODING 21242
SWIDTH 520 0 
DWIDTH 14 0
BBX 14 14 -1 -4
BITMAP
1000
1000
1FE0
2020
4020
8820
0420
0420
0020
0020
0140
0080
0000
0000
ENDCHAR
STARTCHAR U+52FE
ENCODING 21246
SWIDTH 520 0 
DWIDTH 14 0
BBX 14 14 -1 -4
BITMAP
1000
1000
1FE0
2020
4420
8420
0820
1120
3FA0
0020
0140
0080
0000
0000
ENDCHAR
STARTCHAR U+52FF
ENCODING 21247
SWIDTH 520 0 
DWIDTH 14 0
BBX 14 14 -1 -4
BITMAP
1000
1000
1FE0
2520
4520
8920
1120
2220
4420
0820
3240
0180
0000
0000
ENDCHAR
STARTCHAR U+5300
ENCODING 21248
SWIDTH 520 0 
DWIDTH 14 0
BBX 14 14 -1 -4
BITMAP
1000
1000
3FE0
2020
4820
8420
0220
01A0
0620
3820
0140
0080
0000
0000
ENDCHAR
STARTCHAR U+5305
ENCODING 21253
SWIDTH 520 0 
DWIDTH 14 0
BBX 14 14 -1 -4
BITMAP
2000
2000
3FC0
4040
BE40
2240
2240
3E40
2180
2010
2010
1FF0
0000
0000
ENDCHAR
STARTCHAR U+5306
ENCODING 21254
SWIDTH 520 0 
DWIDTH 14 0
BBX 14 14 -1 -4
BITMAP
1000
1000
1FE0
2520
4520
9D20
0B20
11A0
2220
4420
0920
30C0
0000
0000
ENDCHAR
STARTCHAR U+5308
ENCODING 21256
SWIDTH 520 0 
DWIDTH 14 0
BBX 14 14 -1 -4
BITMAP
1000
1020
3FF0
4020
AAA0
24A0
24A0
2AA0
20A0
3FA0
0020
00C0
0000
0000
ENDCHAR
STARTCHAR U+530D
ENCODING 21261
SWIDTH 520 0 
DWIDTH 14 0
BBX 14 14 -1 -4
BITMAP
1020
1FF0
2520
7FE0
8420
3FA0
24A0
3FA0
24A0
3FA0
24A0
0440
0000
0000
ENDCHAR
STARTCHAR U+530F
ENCODING 21263
SWIDTH 520 0 
DWIDTH 14 0
BBX 14 14 -1 -4
BITMAP
1100
1120
FDF0
2A20
47A0
BAA0
02A0
FFA0
2260
3A10
0A10
31F0
0000
0000
ENDCHAR
STARTCHAR U+5310
ENCODING 21264
SWIDTH 520 0 
DWIDTH 14 0
BBX 14 14 -1 -4
BITMAP
2000
3FE0
4020
BFA0
1120
1F20
3FA0
24A0
3FA0
24A0
3FA0
0040
0000
0000
ENDCHAR
STARTCHAR U+5315
ENCODING 21269
SWIDTH 520 0 
DWIDTH 14 0
BBX 14 14 -1 -4
BITMAP
2000
2000
2080
2180
2200
2C00
3000
2000
2020
2020
1FE0
0000
0000
0000
ENDCHAR
STARTCHAR U+5316
ENCODING 21270
SWIDTH 520 0 
DWIDTH 14 0
BBX 14 14 -1 -4
BITMAP
1200
1200
2200
2220
6240
A280
2300
2600
3A00
2210
2210
21F0
0000
0000
ENDCHAR
STARTCHAR U+5317
ENCODING 21271
SWIDTH 520 0 
DWIDTH 14 0
BBX 14 14 -1 -4
BITMAP
0900
0900
0900
0920
F940
0980
0900
0900
1900
2910
C910
08F0
0000
0000
ENDCHAR
STARTCHAR U+5319
ENCODING 21273
SWIDTH 520 0 
DWIDTH 14 0
BBX 14 14 -1 -4
BITMAP
7D00
4500
7D00
4520
7D40
0180
FD00
5110
5D10
50F0
B000
8FF0
0000
0000
ENDCHAR
STARTCHAR U+531A
ENCODING 21274
SWIDTH 520 0 
DWIDTH 14 0
BBX 14 14 -1 -4
BITMAP
0040
7FE0
4000
4000
4000
4000
4000
4000
4000
4000
4020
7FF0
0000
0000
ENDCHAR
STARTCHAR U+531D
ENCODING 21277
SWIDTH 520 0 
DWIDTH 14 0
BBX 14 14 -1 -4
BITMAP
0040
7FE0
4200
4200
5FC0
5240
5240
5240
52C0
4200
4220
7FF0
0000
0000
ENDCHAR
STARTCHAR U+5320
ENCODING 21280
SWIDTH 520 0 
DWIDTH 14 0
BBX 14 14 -1 -4
BITMAP
7FE0
4000
41C0
4E00
4800
4FE0
4900
4900
4900
5100
6100
7FF0
0000
0000
ENDCHAR
STARTCHAR U+5321
ENCODING 21281
SWIDTH 520 0 
DWIDTH 14 0
BBX 14 14 -1 -4
BITMAP
0000
7FE0
4000
5FC0
4200
4200
5FC0
4200
4200
5FE0
4000
7FF0
0000
0000
ENDCHAR
STARTCHAR U+5323
ENCODING 21283
SWIDTH 520 0 
DWIDTH 14 0
BBX 14 14 -1 -4
BITMAP
7FE0
4000
5FC0
5240
5240
5FC0
5240
5FC0
4200
4200
4220
7FF0
0000
0000
ENDCHAR
STARTCHAR U+5326
ENCODING 21286
SWIDTH 520 0 
DWIDTH 14 0
BBX 14 14 -1 -4
BITMAP
FFE0
9100
9100
BD00
ABC0
BD40
8940
8D50
B950
8A70
8800
FFF0
0000
0000
ENDCHAR
STARTCHAR U+532A
ENCODING 21290
SWIDTH 520 0 
DWIDTH 14 0
BBX 14 14 -1 -4
BITMAP
7FE0
4000
4500
7DE0
4500
5DC0
4500
7DE0
4500
4500
4000
7FF0
0000
0000
ENDCHAR
STARTCHAR U+532E
ENCODING 21294
SWIDTH 520 0 
DWIDTH 14 0
BBX 14 14 -1 -4
BITMAP
7FF0
4200
5FC0
5240
7FF0
4000
5FC0
5240
5240
4580
5840
7FF0
0000
0000
ENDCHAR
STARTCHAR U+5339
ENCODING 21305
SWIDTH 520 0 
DWIDTH 14 0
BBX 14 14 -1 -4
BITMAP
0040
7FE0
4900
4900
4900
4900
4920
4920
50E0
6000
4000
7FE0
0000
0000
ENDCHAR
STARTCHAR U+533A
ENCODING 21306
SWIDTH 520 0 
DWIDTH 14 0
BBX 14 14 -1 -4
BITMAP
0040
7FE0
4000
5040
4880
4500
4200
4500
4880
5040
4000
7FF0
0000
0000
ENDCHAR
STARTCHAR U+533B
ENCODING 21307
SWIDTH 520 0 
DWIDTH 14 0
BBX 14 14 -1 -4
BITMAP
0020
7FF0
4800
4FC0
5200
4200
5FE0
4200
4500
4880
5040
7FF0
0000
0000
ENDCHAR
STARTCHAR U+533E
ENCODING 21310
SWIDTH 520 0 
DWIDTH 14 0
BBX 14 14 -1 -4
BITMAP
7FE0
4200
5FC0
5040
5FC0
5000
5FE0
5AA0
6FE0
6AA0
4000
7FF0
0000
0000
ENDCHAR
STARTCHAR U+533F
ENCODING 21311
SWIDTH 520 0 
DWIDTH 14 0
BBX 14 14 -1 -4
BITMAP
7FE0
4000
4880
7FE0
4480
7FE0
4800
5FC0
6840
4FC0
4000
7FF0
0000
0000
ENDCHAR
STARTCHAR U+5341
ENCODING 21313
SWIDTH 520 0 
DWIDTH 14 0
BBX 14 14 -1 -4
BITMAP
0400
0400
0400
0400
0420
FFF0
0400
0400
0400
0400
0400
0400
0000
0000
ENDCHAR
STARTCHAR U+5343
ENCODING 21315
SWIDTH 520 0 
DWIDTH 14 0
BBX 14 14 -1 -4
BITMAP
01C0
3E00
0200
0200
0200
FFF0
0200
0200
0200
0200
0200
0200
0000
0000
ENDCHAR
STARTCHAR U+5345
ENCODING 21317
SWIDTH 520 0 
DWIDTH 14 0
BBX 14 14 -1 -4
BITMAP
2040
2240
2240
2240
2240
FFF0
2240
2240
2240
2240
4240
8040
0000
0000
ENDCHAR
STARTCHAR U+5347
ENCODING 21319
SWIDTH 520 0 
DWIDTH 14 0
BBX 14 14 -1 -4
BITMAP
0680
7880
0880
0880
08A0
FFF0
0880
0880
0880
1080
2080
4080
0000
0000
ENDCHAR
STARTCHAR U+5348
ENCODING 21320
SWIDTH 520 0 
DWIDTH 14 0
BBX 14 14 -1 -4
BITMAP
1000
1000
1FE0
2200
4200
0200
FFF0
0200
0200
0200
0200
0200
0000
0000
ENDCHAR
STARTCHAR U+5349
ENCODING 21321
SWIDTH 520 0 
DWIDTH 14 0
BBX 14 14 -1 -4
BITMAP
0400
0400
7FE0
0400
1480
1080
FFF0
1080
1080
2080
4080
8080
0000
0000
ENDCHAR
STARTCHAR U+534A
ENCODING 21322
SWIDTH 520 0 
DWIDTH 14 0
BBX 14 14 -1 -4
BITMAP
0400
4440
2480
1500
7FE0
0400
0400
FFF0
0400
0400
0400
0400
0000
0000
ENDCHAR
STARTCHAR U+534E
ENCODING 21326
SWIDTH 520 0 
DWIDTH 14 0
BBX 14 14 -1 -4
BITMAP
1200
1220
22C0
6300
AE10
2210
21F0
0400
FFF0
0400
0400
0400
0000
0000
ENDCHAR
STARTCHAR U+534F
ENCODING 21327
SWIDTH 520 0 
DWIDTH 14 0
BBX 14 14 -1 -4
BITMAP
2200
2200
2200
27C0
F240
2A60
2A50
3250
2240
2440
2940
3080
0000
0000
ENDCHAR
STARTCHAR U+5351
ENCODING 21329
SWIDTH 520 0 
DWIDTH 14 0
BBX 14 14 -1 -4
BITMAP
0400
3FC0
2440
2440
3FC0
2440
3FC0
0A00
1200
FFF0
0200
0200
0000
0000
ENDCHAR
STARTCHAR U+5352
ENCODING 21330
SWIDTH 520 0 
DWIDTH 14 0
BBX 14 14 -1 -4
BITMAP
0400
7FE0
0000
1100
1100
2A80
4440
FFF0
0400
0400
0400
0400
0000
0000
ENDCHAR
STARTCHAR U+5353
ENCODING 21331
SWIDTH 520 0 
DWIDTH 14 0
BBX 14 14 -1 -4
BITMAP
0400
07E0
0400
3FC0
2040
3FC0
2040
3FC0
0400
FFF0
0400
0400
0000
0000
ENDCHAR
STARTCHAR U+5355
ENCODING 21333
SWIDTH 520 0 
DWIDTH 14 0
BBX 14 14 -1 -4
BITMAP
1080
0900
3FC0
2440
3FC0
2440
2440
3FC0
0400
FFF0
0400
0400
0000
0000
ENDCHAR
STARTCHAR U+5356
ENCODING 21334
SWIDTH 520 0 
DWIDTH 14 0
BBX 14 14 -1 -4
BITMAP
0400
3FC0
0400
FFE0
1020
0A40
2200
1200
FFF0
0500
0880
7060
0000
0000
ENDCHAR
STARTCHAR U+5357
ENCODING 21335
SWIDTH 520 0 
DWIDTH 14 0
BBX 14 14 -1 -4
BITMAP
0400
0400
FFF0
0400
7FE0
4920
5FA0
4420
5FA0
4420
4420
4460
0000
0000
ENDCHAR
STARTCHAR U+535A
ENCODING 21338
SWIDTH 520 0 
DWIDTH 14 0
BBX 14 14 -1 -4
BITMAP
4140
4120
5FF0
E920
4FE0
4920
4FE0
4940
5FF0
4440
4240
40C0
0000
0000
ENDCHAR
STARTCHAR U+535C
ENCODING 21340
SWIDTH 520 0 
DWIDTH 14 0
BBX 14 14 -1 -4
BITMAP
0400
0400
0400
0400
0700
04C0
0420
0400
0400
0400
0400
0400
0000
0000
ENDCHAR
STARTCHAR U+535E
ENCODING 21342
SWIDTH 520 0 
DWIDTH 14 0
BBX 14 14 -1 -4
BITMAP
0400
0200
0020
FFF0
0400
0700
0480
0440
0400
0400
0400
0400
0000
0000
ENDCHAR
STARTCHAR U+535F
ENCODING 21343
SWIDTH 520 0 
DWIDTH 14 0
BBX 14 14 -1 -4
BITMAP
0100
0100
7900
4900
4980
4960
4910
7900
4900
4100
0100
0100
0000
0000
ENDCHAR
STARTCHAR U+5360
ENCODING 21344
SWIDTH 520 0 
DWIDTH 14 0
BBX 14 14 -1 -4
BITMAP
0400
0400
0420
07F0
0400
0400
3FC0
2040
2040
2040
3FC0
2040
0000
0000
ENDCHAR
STARTCHAR U+5361
ENCODING 21345
SWIDTH 520 0 
DWIDTH 14 0
BBX 14 14 -1 -4
BITMAP
0400
0400
07E0
0400
0400
FFF0
0400
0700
04C0
0420
0400
0400
0000
0000
ENDCHAR
STARTCHAR U+5362
ENCODING 21346
SWIDTH 520 0 
DWIDTH 14 0
BBX 14 14 -1 -4
BITMAP
0400
07E0
0400
3FC0
2040
2040
3FC0
2000
2000
2000
4000
8000
0000
0000
ENDCHAR
STARTCHAR U+5363
ENCODING 21347
SWIDTH 520 0 
DWIDTH 14 0
BBX 14 14 -1 -4
BITMAP
0400
07F0
0400
7FE0
4020
7F20
4120
4120
7F20
4020
7FE0
4020
0000
0000
ENDCHAR
STARTCHAR U+5364
ENCODING 21348
SWIDTH 520 0 
DWIDTH 14 0
BBX 14 14 -1 -4
BITMAP
0200
03F0
0200
3FE0
2020
28A0
2520
2220
2520
28A0
2020
3FE0
0000
0000
ENDCHAR
STARTCHAR U+5366
ENCODING 21350
SWIDTH 520 0 
DWIDTH 14 0
BBX 14 14 -1 -4
BITMAP
1080
1080
7E80
1080
10C0
FEA0
1090
7E80
1080
1E80
F080
4080
0000
0000
ENDCHAR
STARTCHAR U+5367
ENCODING 21351
SWIDTH 520 0 
DWIDTH 14 0
BBX 14 14 -1 -4
BITMAP
0080
7E80
4880
4880
7EC0
42B0
4290
7E80
4880
4880
7E80
0080
0000
0000
ENDCHAR
STARTCHAR U+5369
ENCODING 21353
SWIDTH 520 0 
DWIDTH 14 0
BBX 14 14 -1 -4
BITMAP
01E0
0120
0120
0120
0120
0120
0120
01A0
0140
0100
0100
0100
0000
0000
ENDCHAR
STARTCHAR U+536B
ENCODING 21355
SWIDTH 520 0 
DWIDTH 14 0
BBX 14 14 -1 -4
BITMAP
0000
7FE0
0420
0420
0420
0420
04A0
0440
0400
0400
0400
FFF0
0000
0000
ENDCHAR
STARTCHAR U+536E
ENCODING 21358
SWIDTH 520 0 
DWIDTH 14 0
BBX 14 14 -1 -4
BITMAP
01C0
3E00
2020
3FF0
2000
2FC0
2840
2840
2980
4810
4810
87F0
0000
0000
ENDCHAR
STARTCHAR U+536F
ENCODING 21359
SWIDTH 520 0 
DWIDTH 14 0
BBX 14 14 -1 -4
BITMAP
0C00
71E0
4120
4920
4920
4920
5920
6920
09A0
1140
2100
C100
0000
0000
ENDCHAR
STARTCHAR U+5370
ENCODING 21360
SWIDTH 520 0 
DWIDTH 14 0
BBX 14 14 -1 -4
BITMAP
0C00
73E0
4220
4220
4220
7A20
4220
4220
5AA0
6240
0200
0200
0000
0000
ENDCHAR
STARTCHAR U+5371
ENCODING 21361
SWIDTH 520 0 
DWIDTH 14 0
BBX 14 14 -1 -4
BITMAP
1000
1F80
2100
7FE0
A000
2780
2480
2480
2580
2410
4410
83F0
0000
0000
ENDCHAR
STARTCHAR U+5373
ENCODING 21363
SWIDTH 520 0 
DWIDTH 14 0
BBX 14 14 -1 -4
BITMAP
7820
49F0
4920
7920
4920
7920
4120
5120
4960
7500
4100
0100
0000
0000
ENDCHAR
STARTCHAR U+5374
ENCODING 21364
SWIDTH 520 0 
DWIDTH 14 0
BBX 14 14 -1 -4
BITMAP
1000
11E0
7D20
1120
1120
FF20
1120
2120
4520
7D60
0500
0100
0000
0000
ENDCHAR
STARTCHAR U+5375
ENCODING 21365
SWIDTH 520 0 
DWIDTH 14 0
BBX 14 14 -1 -4
BITMAP
0C00
71E0
4920
4920
69A0
5960
4920
5920
69A0
0940
1100
6100
0000
0000
ENDCHAR
STARTCHAR U+5377
ENCODING 21367
SWIDTH 520 0 
DWIDTH 14 0
BBX 14 14 -1 -4
BITMAP
2480
1500
7FC0
0800
FFE0
1100
2080
DF60
1100
1740
1040
0FC0
0000
0000
ENDCHAR
STARTCHAR U+5378
ENCODING 21368
SWIDTH 520 0 
DWIDTH 14 0
BBX 14 14 -1 -4
BITMAP
2000
21E0
7D20
9120
FD20
1120
5120
5D20
51A0
5F40
E100
0100
0000
0000
ENDCHAR
STARTCHAR U+537A
ENCODING 21370
SWIDTH 520 0 
DWIDTH 14 0
BBX 14 14 -1 -4
BITMAP
3FC0
0100
F660
1580
2440
DFB0
0000
3F80
2080
23A0
2020
1FE0
0000
0000
ENDCHAR
STARTCHAR U+537F
ENCODING 21375
SWIDTH 520 0 
DWIDTH 14 0
BBX 14 14 -1 -4
BITMAP
1000
6770
5550
5750
5550
5750
7450
5550
1770
2540
4040
8040
0000
0000
ENDCHAR
STARTCHAR U+5382
ENCODING 21378
SWIDTH 520 0 
DWIDTH 14 0
BBX 14 14 -1 -4
BITMAP
0020
3FF0
2000
2000
2000
2000
2000
2000
2000
2000
4000
8000
0000
0000
ENDCHAR
STARTCHAR U+5384
ENCODING 21380
SWIDTH 520 0 
DWIDTH 14 0
BBX 14 14 -1 -4
BITMAP
0020
3FF0
2000
27C0
2440
2440
2440
2580
2410
2410
4410
83F0
0000
0000
ENDCHAR
STARTCHAR U+5385
ENCODING 21381
SWIDTH 520 0 
DWIDTH 14 0
BBX 14 14 -1 -4
BITMAP
0020
3FF0
2000
3FF0
2100
2100
2100
2100
2100
4100
4100
8300
0000
0000
ENDCHAR
STARTCHAR U+5386
ENCODING 21382
SWIDTH 520 0 
DWIDTH 14 0
BBX 14 14 -1 -4
BITMAP
0020
3FF0
2200
2200
2FE0
2220
2220
2220
2420
4820
5140
A080
0000
0000
ENDCHAR
STARTCHAR U+5389
ENCODING 21385
SWIDTH 520 0 
DWIDTH 14 0
BBX 14 14 -1 -4
BITMAP
0020
3FF0
2000
3FF0
2200
23E0
2220
2220
2420
4420
4940
9080
0000
0000
ENDCHAR
STARTCHAR U+538B
ENCODING 21387
SWIDTH 520 0 
DWIDTH 14 0
BBX 14 14 -1 -4
BITMAP
0020
3FF0
2000
2200
2240
2FE0
2200
2280
2240
4220
4200
BFF0
0000
0000
ENDCHAR
STARTCHAR U+538C
ENCODING 21388
SWIDTH 520 0 
DWIDTH 14 0
BBX 14 14 -1 -4
BITMAP
0020
7FF0
4200
4240
4240
5FF0
4200
4200
4500
4880
9040
A030
0000
0000
ENDCHAR
STARTCHAR U+538D
ENCODING 21389
SWIDTH 520 0 
DWIDTH 14 0
BBX 14 14 -1 -4
BITMAP
3FF0
2200
2200
3FE0
2400
2900
2FE0
2100
3FF0
4100
4100
8100
0000
0000
ENDCHAR
STARTCHAR U+5395
ENCODING 21397
SWIDTH 520 0 
DWIDTH 14 0
BBX 14 14 -1 -4
BITMAP
0020
7FF0
4000
5EA0
52A0
56A0
56A0
56A0
44A0
4A20
9120
A060
0000
0000
ENDCHAR
STARTCHAR U+5398
ENCODING 21400
SWIDTH 520 0 
DWIDTH 14 0
BBX 14 14 -1 -4
BITMAP
3FF0
2000
2FE0
2920
2FE0
2920
2FE0
2920
2100
4FE0
4100
9FF0
0000
0000
ENDCHAR
STARTCHAR U+539A
ENCODING 21402
SWIDTH 520 0 
DWIDTH 14 0
BBX 14 14 -1 -4
BITMAP
3FF0
2000
2FC0
2840
2FC0
2840
3FE0
2080
3FF0
4100
4100
8300
0000
0000
ENDCHAR
STARTCHAR U+539D
ENCODING 21405
SWIDTH 520 0 
DWIDTH 14 0
BBX 14 14 -1 -4
BITMAP
3FF0
2000
2480
3FE0
2480
3FF0
2000
2FC0
2840
4FC0
4840
8FC0
0000
0000
ENDCHAR
STARTCHAR U+539F
ENCODING 21407
SWIDTH 520 0 
DWIDTH 14 0
BBX 14 14 -1 -4
BITMAP
3FF0
2100
2200
2FE0
2820
2FE0
2820
2FE0
2100
4940
5130
A310
0000
0000
ENDCHAR
STARTCHAR U+53A2
ENCODING 21410
SWIDTH 520 0 
DWIDTH 14 0
BBX 14 14 -1 -4
BITMAP
0020
7FF0
4800
49E0
7F20
49E0
4D20
5BE0
6920
4920
89E0
8920
0000
0000
ENDCHAR
STARTCHAR U+53A3
ENCODING 21411
SWIDTH 520 0 
DWIDTH 14 0
BBX 14 14 -1 -4
BITMAP
7FF0
4280
4240
5FF0
4480
5FE0
6A50
4FC0
4A40
4FC0
8200
8200
0000
0000
ENDCHAR
STARTCHAR U+53A5
ENCODING 21413
SWIDTH 520 0 
DWIDTH 14 0
BBX 14 14 -1 -4
BITMAP
7FF0
4000
5480
7E80
48E0
6B20
6A80
7E80
4880
4940
5120
A610
0000
0000
ENDCHAR
STARTCHAR U+53A6
ENCODING 21414
SWIDTH 520 0 
DWIDTH 14 0
BBX 14 14 -1 -4
BITMAP
7FF0
4000
5FE0
4840
4FC0
4840
4FC0
4400
4FC0
5480
8300
BCF0
0000
0000
ENDCHAR
STARTCHAR U+53A8
ENCODING 21416
SWIDTH 520 0 
DWIDTH 14 0
BBX 14 14 -1 -4
BITMAP
7FF0
4000
5E40
4040
5FF0
5240
5E40
40C0
5240
4B40
BC40
80C0
0000
0000
ENDCHAR
STARTCHAR U+53A9
ENCODING 21417
SWIDTH 520 0 
DWIDTH 14 0
BBX 14 14 -1 -4
BITMAP
7FF0
4000
5DE0
5440
5D40
5540
5DF0
5040
54C0
5D50
9250
8430
0000
0000
ENDCHAR
STARTCHAR U+53AE
ENCODING 21422
SWIDTH 520 0 
DWIDTH 14 0
BBX 14 14 -1 -4
BITMAP
7FF0
4000
5430
7EC0
5480
5CF0
54A0
5CA0
54A0
7EA0
9520
A220
0000
0000
ENDCHAR
STARTCHAR U+53B6
ENCODING 21430
SWIDTH 520 0 
DWIDTH 14 0
BBX 14 14 -1 -4
BITMAP
0000
0600
0400
0400
0800
0800
1100
1080
2040
43E0
7C20
0000
0000
0000
ENDCHAR
STARTCHAR U+53BB
ENCODING 21435
SWIDTH 520 0 
DWIDTH 14 0
BBX 14 14 -1 -4
BITMAP
0200
0200
0200
3FE0
0200
0200
7FF0
0400
0880
1040
3FE0
1020
0000
0000
ENDCHAR
STARTCHAR U+53BF
ENCODING 21439
SWIDTH 520 0 
DWIDTH 14 0
BBX 14 14 -1 -4
BITMAP
1F80
1080
1F80
1080
1080
1F80
1080
FFF0
0800
1080
7FC0
2040
0000
0000
ENDCHAR
STARTCHAR U+53C1
ENCODING 21441
SWIDTH 520 0 
DWIDTH 14 0
BBX 14 14 -1 -4
BITMAP
0400
0880
3FC0
0400
FFF0
0880
1040
2FB0
C000
1FC0
0000
FFF0
0000
0000
ENDCHAR
STARTCHAR U+53C2
ENCODING 21442
SWIDTH 520 0 
DWIDTH 14 0
BBX 14 14 -1 -4
BITMAP
0400
0880
3FC0
0400
FFF0
1280
2440
D930
0240
0C80
0300
3C00
0000
0000
ENDCHAR
STARTCHAR U+53C8
ENCODING 21448
SWIDTH 520 0 
DWIDTH 14 0
BBX 14 14 -1 -4
BITMAP
0000
7FC0
1040
1040
0880
0880
0500
0200
0500
0880
3040
C030
0000
0000
ENDCHAR
STARTCHAR U+53C9
ENCODING 21449
SWIDTH 520 0 
DWIDTH 14 0
BBX 14 14 -1 -4
BITMAP
0040
7FE0
1440
1240
0880
0880
0500
0200
0500
0880
1040
6030
0000
0000
ENDCHAR
STARTCHAR U+53CA
ENCODING 21450
SWIDTH 520 0 
DWIDTH 14 0
BBX 14 14 -1 -4
BITMAP
0080
7FC0
0880
0900
09E0
0820
1440
1280
2100
2280
4C40
B030
0000
0000
ENDCHAR
STARTCHAR U+53CB
ENCODING 21451
SWIDTH 520 0 
DWIDTH 14 0
BBX 14 14 -1 -4
BITMAP
0400
0400
FFF0
0800
0800
0FC0
1440
1280
2100
2280
4440
9830
0000
0000
ENDCHAR
STARTCHAR U+53CC
ENCODING 21452
SWIDTH 520 0 
DWIDTH 14 0
BBX 14 14 -1 -4
BITMAP
0000
FBE0
0A20
4A20
2920
1140
1140
2880
2480
4540
8220
0C10
0000
0000
ENDCHAR
STARTCHAR U+53CD
ENCODING 21453
SWIDTH 520 0 
DWIDTH 14 0
BBX 14 14 -1 -4
BITMAP
01C0
3E00
2000
2000
3FC0
2440
2440
2280
2100
4280
4440
9830
0000
0000
ENDCHAR
STARTCHAR U+53D1
ENCODING 21457
SWIDTH 520 0 
DWIDTH 14 0
BBX 14 14 -1 -4
BITMAP
0480
2440
4400
7FF0
0800
0FC0
0840
1440
1280
2100
46C0
9830
0000
0000
ENDCHAR
STARTCHAR U+53D4
ENCODING 21460
SWIDTH 520 0 
DWIDTH 14 0
BBX 14 14 -1 -4
BITMAP
1000
1020
1DF0
1120
1120
FD20
1140
5480
5280
9140
1220
3410
0000
0000
ENDCHAR
STARTCHAR U+53D6
ENCODING 21462
SWIDTH 520 0 
DWIDTH 14 0
BBX 14 14 -1 -4
BITMAP
0000
FC00
4BE0
7820
4920
4940
7940
4C80
7880
C940
0A20
0C10
0000
0000
ENDCHAR
STARTCHAR U+53D7
ENCODING 21463
SWIDTH 520 0 
DWIDTH 14 0
BBX 14 14 -1 -4
BITMAP
01C0
7E00
2440
1280
7FF0
4010
9FA0
0880
0500
0200
0D80
7070
0000
0000
ENDCHAR
STARTCHAR U+53D8
ENCODING 21464
SWIDTH 520 0 
DWIDTH 14 0
BBX 14 14 -1 -4
BITMAP
0400
FFF0
0900
2940
2920
4910
BFC0
1080
0900
0600
1980
E070
0000
0000
ENDCHAR
STARTCHAR U+53D9
ENCODING 21465
SWIDTH 520 0 
DWIDTH 14 0
BBX 14 14 -1 -4
BITMAP
1000
1020
2BF0
4520
B920
1120
FD40
1140
5880
5540
9220
3410
0000
0000
ENDCHAR
STARTCHAR U+53DB
ENCODING 21467
SWIDTH 520 0 
DWIDTH 14 0
BBX 14 14 -1 -4
BITMAP
1020
95C0
5A00
1200
7BE0
12A0
12A0
FEA0
1240
2240
44A0
8B10
0000
0000
ENDCHAR
STARTCHAR U+53DF
ENCODING 21471
SWIDTH 520 0 
DWIDTH 14 0
BBX 14 14 -1 -4
BITMAP
0200
3BC0
2240
3BC0
2240
3FC0
0200
7FC0
0900
0600
0980
F070
0000
0000
ENDCHAR
STARTCHAR U+53E0
ENCODING 21472
SWIDTH 520 0 
DWIDTH 14 0
BBX 14 14 -1 -4
BITMAP
3F80
1100
0E00
FBE0
5140
2A80
FFF0
9490
1280
1F80
1080
FFF0
0000
0000
ENDCHAR
STARTCHAR U+53E3
ENCODING 21475
SWIDTH 520 0 
DWIDTH 14 0
BBX 14 14 -1 -4
BITMAP
0000
0000
3FE0
2020
2020
2020
2020
2020
2020
3FE0
2020
0000
0000
0000
ENDCHAR
STARTCHAR U+53E4
ENCODING 21476
SWIDTH 520 0 
DWIDTH 14 0
BBX 14 14 -1 -4
BITMAP
0400
0400
FFF0
0400
0400
0400
3FC0
2040
2040
2040
3FC0
2040
0000
0000
ENDCHAR
STARTCHAR U+53E5
ENCODING 21477
SWIDTH 520 0 
DWIDTH 14 0
BBX 14 14 -1 -4
BITMAP
1000
1000
3FE0
2020
4020
BF20
2120
2120
3F20
2020
0120
00C0
0000
0000
ENDCHAR
STARTCHAR U+53E6
ENCODING 21478
SWIDTH 520 0 
DWIDTH 14 0
BBX 14 14 -1 -4
BITMAP
1FC0
1040
1040
1040
1FC0
0400
7FE0
0420
0420
0820
1140
6080
0000
0000
ENDCHAR
STARTCHAR U+53E8
ENCODING 21480
SWIDTH 520 0 
DWIDTH 14 0
BBX 14 14 -1 -4
BITMAP
0000
7BF0
4910
4910
4910
4910
7910
4A10
0210
0410
08A0
3040
0000
0000
ENDCHAR
STARTCHAR U+53E9
ENCODING 21481
SWIDTH 520 0 
DWIDTH 14 0
BBX 14 14 -1 -4
BITMAP
0020
7BF0
4A20
4A20
4A20
4A20
4A20
7A20
4AA0
0240
0200
0200
0000
0000
ENDCHAR
STARTCHAR U+53EA
ENCODING 21482
SWIDTH 520 0 
DWIDTH 14 0
BBX 14 14 -1 -4
BITMAP
0040
1FE0
1040
1040
1040
1040
1FC0
0000
0880
1040
2020
4010
0000
0000
ENDCHAR
STARTCHAR U+53EB
ENCODING 21483
SWIDTH 520 0 
DWIDTH 14 0
BBX 14 14 -1 -4
BITMAP
0020
0220
7A20
4A20
4A20
4A20
4A60
7BA0
4A20
0020
0020
0020
0000
0000
ENDCHAR
STARTCHAR U+53EC
ENCODING 21484
SWIDTH 520 0 
DWIDTH 14 0
BBX 14 14 -1 -4
BITMAP
0000
7FE0
0820
0820
1140
2080
DFC0
1040
1040
1040
1FC0
1040
0000
0000
ENDCHAR
STARTCHAR U+53ED
ENCODING 21485
SWIDTH 520 0 
DWIDTH 14 0
BBX 14 14 -1 -4
BITMAP
0080
0280
F280
9280
9280
9280
9280
F440
9440
0820
1020
2010
0000
0000
ENDCHAR
STARTCHAR U+53EE
ENCODING 21486
SWIDTH 520 0 
DWIDTH 14 0
BBX 14 14 -1 -4
BITMAP
0020
F7F0
9080
9080
9080
9080
9080
F080
9080
0080
0080
0180
0000
0000
ENDCHAR
STARTCHAR U+53EF
ENCODING 21487
SWIDTH 520 0 
DWIDTH 14 0
BBX 14 14 -1 -4
BITMAP
0020
FFF0
0040
3E40
2240
2240
2240
3E40
2240
0040
0040
00C0
0000
0000
ENDCHAR
STARTCHAR U+53F0
ENCODING 21488
SWIDTH 520 0 
DWIDTH 14 0
BBX 14 14 -1 -4
BITMAP
0400
0800
1080
2040
7FE0
0020
0000
3FC0
2040
2040
2040
3FC0
0000
0000
ENDCHAR
STARTCHAR U+53F1
ENCODING 21489
SWIDTH 520 0 
DWIDTH 14 0
BBX 14 14 -1 -4
BITMAP
0100
0100
7920
4920
4940
4980
4B00
7D00
4910
4110
0110
00F0
0000
0000
ENDCHAR
STARTCHAR U+53F2
ENCODING 21490
SWIDTH 520 0 
DWIDTH 14 0
BBX 14 14 -1 -4
BITMAP
0200
0200
3FE0
2220
2220
3FE0
2200
0A00
0400
0A00
1180
E070
0000
0000
ENDCHAR
STARTCHAR U+53F3
ENCODING 21491
SWIDTH 520 0 
DWIDTH 14 0
BBX 14 14 -1 -4
BITMAP
0400
0420
FFF0
0800
0800
1000
3FC0
5040
9040
1040
1FC0
1040
0000
0000
ENDCHAR
STARTCHAR U+53F5
ENCODING 21493
SWIDTH 520 0 
DWIDTH 14 0
BBX 14 14 -1 -4
BITMAP
0020
7FF0
4000
4FC0
4840
4840
4840
4FC0
4840
4000
4020
7FF0
0000
0000
ENDCHAR
STARTCHAR U+53F6
ENCODING 21494
SWIDTH 520 0 
DWIDTH 14 0
BBX 14 14 -1 -4
BITMAP
0080
0080
F080
9080
97F0
9080
9080
F080
9080
0080
0080
0080
0000
0000
ENDCHAR
STARTCHAR U+53F7
ENCODING 21495
SWIDTH 520 0 
DWIDTH 14 0
BBX 14 14 -1 -4
BITMAP
1FC0
1040
1040
1FC0
0000
FFF0
0800
1FC0
0040
0040
0480
0300
0000
0000
ENDCHAR
STARTCHAR U+53F8
ENCODING 21496
SWIDTH 520 0 
DWIDTH 14 0
BBX 14 14 -1 -4
BITMAP
0020
7FF0
0020
FFA0
0020
3E20
2220
2220
3E20
2220
00A0
0040
0000
0000
ENDCHAR
STARTCHAR U+53F9
ENCODING 21497
SWIDTH 520 0 
DWIDTH 14 0
BBX 14 14 -1 -4
BITMAP
0000
7BE0
4A20
4A20
4A20
4940
4940
7880
4880
0140
0220
0C10
0000
0000
ENDCHAR
STARTCHAR U+53FB
ENCODING 21499
SWIDTH 520 0 
DWIDTH 14 0
BBX 14 14 -1 -4
BITMAP
0100
0100
7920
4FF0
4920
4920
4920
7A20
4A20
0420
0940
3080
0000
0000
ENDCHAR
STARTCHAR U+53FC
ENCODING 21500
SWIDTH 520 0 
DWIDTH 14 0
BBX 14 14 -1 -4
BITMAP
0020
F7F0
9020
9020
9060
90A0
9120
F620
9020
0020
0140
0080
0000
0000
ENDCHAR
STARTCHAR U+53FD
ENCODING 21501
SWIDTH 520 0 
DWIDTH 14 0
BBX 14 14 -1 -4
BITMAP
0040
7BE0
4A40
4A40
4A40
4A40
4A40
7A40
4C50
0450
0870
3000
0000
0000
ENDCHAR
STARTCHAR U+5401
ENCODING 21505
SWIDTH 520 0 
DWIDTH 14 0
BBX 14 14 -1 -4
BITMAP
0020
F7F0
9080
9080
9080
9FF0
9080
F080
9080
0080
0080
0180
0000
0000
ENDCHAR
STARTCHAR U+5403
ENCODING 21507
SWIDTH 520 0 
DWIDTH 14 0
BBX 14 14 -1 -4
BITMAP
0200
0200
F3F0
9400
9800
97C0
9080
F100
9200
0410
0410
03F0
0000
0000
ENDCHAR
STARTCHAR U+5404
ENCODING 21508
SWIDTH 520 0 
DWIDTH 14 0
BBX 14 14 -1 -4
BITMAP
0800
0F80
1080
2900
4600
0900
30C0
DFB0
1080
1080
1F80
1080
0000
0000
ENDCHAR
ENDFONT
